<svg width="667" height="737" viewBox="0 0 667 737" fill="none" xmlns="http://www.w3.org/2000/svg">
<rect width="667" height="737" />
<g clip-path="url(#clip0_127_3)">
<path d="M269.346 641.005C269.346 641.005 357.131 568.179 442.159 554.008C543.46 487.677 613.206 478.069 613.206 478.069L338.235 439.06L35.1208 536.687L269.346 641.005Z" fill="#403225"/>
<path d="M269.346 641.005C269.346 641.005 357.131 568.179 442.159 554.008C543.46 487.677 613.206 478.069 613.206 478.069L338.235 439.06L35.1208 536.687L269.346 641.005Z" stroke="#403225" stroke-width="1.57461" stroke-miterlimit="10" stroke-linecap="round" stroke-linejoin="round"/>
<path d="M435.074 546.923C435.074 546.923 489.922 496.271 595.947 479.213C596.734 473.177 595.947 467.404 595.947 467.404C595.947 467.404 410.042 425.891 367.102 428.432C324.164 430.975 262.39 448.423 236.783 471.34C349.436 520.685 435.074 546.923 435.074 546.923Z" fill="#EDE9E5"/>
<path d="M531.782 465.22C486.198 471.687 443.108 490.927 407.902 520.596C407.487 520.947 408.087 521.544 408.499 521.193C443.488 491.281 486.234 471.863 531.788 465.243C531.803 465.241 531.796 465.219 531.782 465.22Z" fill="#B9ADA3"/>
<path d="M496.099 456.457C455.476 462.144 414.928 480.551 381.886 504.504C381.296 504.931 381.854 505.923 382.466 505.496C399.268 493.788 416.868 483.543 435.692 475.419C455.256 466.975 475.455 461.484 496.118 456.525C496.163 456.515 496.143 456.451 496.099 456.457Z" fill="#B9ADA3"/>
<path d="M448.94 450.559C415.054 457.305 380.984 474.308 354.984 497.017C354.498 497.441 355.195 498.095 355.68 497.712C369.559 486.797 383.831 476.867 399.639 468.909C415.467 460.941 431.966 455.46 448.99 450.74C449.107 450.707 449.058 450.536 448.94 450.559Z" fill="#B9ADA3"/>
<path d="M425.546 441.456C390.338 445.496 353.33 463.157 327.482 487.305C326.9 487.849 327.751 488.661 328.344 488.167C342.464 476.416 356.983 465.929 373.63 457.997C390.307 450.049 407.579 445.407 425.564 441.593C425.642 441.577 425.626 441.447 425.546 441.456Z" fill="#B9ADA3"/>
<path d="M392.199 435.233C375.344 436.004 358.038 441.691 342.775 448.604C327.056 455.727 310.306 465.464 298.464 478.251C298.254 478.479 298.563 478.764 298.796 478.583C312.766 467.661 325.948 457.248 342.186 449.747C358.366 442.269 374.864 438.741 392.208 435.303C392.248 435.295 392.239 435.231 392.199 435.233Z" fill="#B9ADA3"/>
<path d="M362.512 432.257C330.843 436.343 299.116 449.399 275.591 471.365C275.098 471.825 275.816 472.508 276.32 472.093C301.536 451.38 329.994 437.097 362.552 432.556C362.72 432.533 362.683 432.235 362.512 432.257Z" fill="#B9ADA3"/>
<path d="M435.074 546.923C435.074 546.923 366.315 545.704 267.115 625.128C171.063 591.536 50.4775 533.731 50.4775 533.731C50.4775 533.731 50.0801 523.303 50.0801 514.643C79.5583 490.321 161.794 449.675 245.07 472.915C357.918 504.408 435.074 546.923 435.074 546.923Z" fill="white"/>
<path d="M382.428 531.037C337.523 536.812 294.115 554.273 259.58 583.82C259.066 584.26 259.82 585.025 260.328 584.568C293.95 554.372 338.316 538.044 382.483 531.44C382.71 531.407 382.658 531.007 382.428 531.037Z" fill="#B9ADA3"/>
<path d="M364.232 522.487C324.067 524.599 281.638 541.149 251.491 567.849C251.007 568.277 251.719 568.985 252.2 568.557C283.752 540.559 323.403 528.832 364.26 522.699C364.379 522.68 364.352 522.481 364.232 522.487Z" fill="#B9ADA3"/>
<path d="M332.084 513.4C295.487 519.1 259.466 536.868 232.996 562.775C232.602 563.16 233.208 563.767 233.602 563.38C260.824 536.624 295.542 522.309 332.227 513.919C332.571 513.84 332.418 513.348 332.084 513.4Z" fill="#B9ADA3"/>
<path d="M311.348 503.913C271.946 510.071 234.251 528.447 208.14 559.071C207.702 559.585 208.447 560.333 208.886 559.816C234.67 529.339 272.515 511.001 311.447 504.271C311.683 504.231 311.582 503.876 311.348 503.913Z" fill="#B9ADA3"/>
<path d="M280.734 491.852C243.892 499.703 206.674 516.824 179.206 542.955C178.8 543.34 179.41 543.943 179.819 543.567C208.524 517.204 243.376 501.737 280.814 492.144C281.003 492.095 280.923 491.812 280.734 491.852Z" fill="#B9ADA3"/>
<path d="M256.727 485.705C218.264 490.849 179.13 506.911 150.506 533.596C150.034 534.036 150.728 534.712 151.207 534.299C181.398 508.105 217.436 492.556 256.782 486.107C257.007 486.071 256.956 485.675 256.727 485.705Z" fill="#B9ADA3"/>
<path d="M242.014 477.099C202.162 480.404 159.135 494.017 128.563 520.769C128.227 521.064 128.68 521.669 129.047 521.397C162.596 496.505 200.394 481.985 242.014 477.639C242.355 477.603 242.364 477.071 242.014 477.099Z" fill="#B9ADA3"/>
<path d="M210.412 471.555C171.986 472.575 132.422 484.439 100.876 506.645C100.25 507.085 100.843 508.123 101.482 507.681C133.84 485.332 171.496 474.748 210.412 471.867C210.608 471.851 210.614 471.549 210.412 471.555Z" fill="#B9ADA3"/>
<path d="M267.115 625.128V598.491C267.115 598.491 353.587 526.452 435.074 546.923C368.943 547.527 267.115 625.128 267.115 625.128Z" fill="#C2B6A8"/>
<path d="M267.115 598.491L50.0801 514.643L50.6703 536.185C50.6703 536.185 221.451 615.155 267.115 625.128C267.376 606.495 267.115 598.491 267.115 598.491Z" fill="#E1D7CD"/>
<path d="M435.074 546.923C435.074 546.923 463.679 471.865 595.947 467.404C596.208 474.227 595.947 479.213 595.947 479.213C595.947 479.213 503.044 492.335 435.074 546.923Z" fill="#C2B6A8"/>
<path d="M407.912 547.187C392.438 546.757 376.188 549.075 361.731 554.747C361.212 554.949 361.403 555.755 361.967 555.6C377.222 551.415 392.067 548.447 407.912 547.519C408.124 547.507 408.127 547.193 407.912 547.187Z" fill="#A39487"/>
<path d="M391.002 552.905C370.058 554.785 347.956 561.377 331.179 574.457C330.85 574.713 331.27 575.216 331.615 575.021C350.543 564.359 369.26 555.996 391.002 553.099C391.123 553.084 391.128 552.895 391.002 552.905Z" fill="#A39487"/>
<path d="M306.611 580.713C293.971 585.957 281.282 592.569 271.031 601.76C270.662 602.092 271.15 602.74 271.568 602.455C283.047 594.647 294.184 587.143 306.942 581.497C307.38 581.304 307.06 580.528 306.611 580.713Z" fill="#A39487"/>
<path d="M309.039 588.033C298.351 592.48 287.858 597.647 278.255 604.147C277.92 604.373 278.22 604.908 278.576 604.696C288.57 598.784 298.576 593.139 309.199 588.413C309.412 588.317 309.258 587.943 309.039 588.033Z" fill="#A39487"/>
<path d="M570.867 473.293C544.626 474.791 516.724 483.563 493.587 495.884C493.379 495.996 493.563 496.284 493.77 496.196C506.555 490.677 519.236 485.552 532.651 481.749C545.292 478.165 558.044 476.157 570.938 473.811C571.228 473.757 571.163 473.276 570.867 473.293Z" fill="#A39487"/>
<path d="M530.738 489.887C509.802 493.723 487.756 502.417 471.366 516.272C471.055 516.537 471.46 517.057 471.803 516.839C490.539 504.817 508.954 495.247 530.759 489.968C530.812 489.955 530.79 489.877 530.738 489.887Z" fill="#A39487"/>
<path d="M253.376 598.271C234.183 592.361 215.715 584.891 196.955 577.804C196.603 577.671 196.366 578.241 196.699 578.411C214.482 587.513 233.92 593.879 253.142 599.125C253.694 599.276 253.92 598.439 253.376 598.271Z" fill="#A39487"/>
<path d="M236.088 603.227C223.368 597.649 210.651 591.888 197.786 586.659C197.163 586.405 196.731 587.443 197.327 587.747C209.654 594.008 222.802 599.243 235.834 603.835C236.183 603.957 236.435 603.379 236.088 603.227Z" fill="#A39487"/>
<path d="M122.574 560.627C111.684 555.263 100.844 549.724 89.6769 544.951C89.1515 544.727 88.6807 545.464 89.216 545.74C100.02 551.307 111.211 556.129 122.295 561.104C122.615 561.248 122.898 560.785 122.574 560.627Z" fill="#A39487"/>
<path d="M150.9 563.293C129.112 555.523 107.321 547.567 86.3613 537.748C86.2655 537.703 86.1807 537.845 86.2769 537.891C107.26 547.891 128.491 557.029 150.812 563.613C151.019 563.675 151.099 563.364 150.9 563.293Z" fill="#A39487"/>
<path d="M91.1233 535.945C80.7817 532.263 70.7703 527.087 59.9843 524.795C59.7067 524.736 59.5911 525.143 59.8666 525.221C70.5098 528.311 80.5531 532.761 90.9906 536.427C91.2942 536.532 91.4239 536.052 91.1233 535.945Z" fill="#A39487"/>
<path d="M426.53 358.317C427.487 353.736 428.008 348.983 428.008 344.099C428.008 307.685 399.912 278.168 365.254 278.168C330.595 278.168 302.5 307.685 302.5 344.099C302.5 354.615 305.503 364.221 310.39 372.681C309.623 378.639 312.559 385.963 317.359 388.981C320.544 390.985 324.306 392.559 328.075 393.089C330.423 395.005 332.85 396.797 335.338 398.429C344.964 404.743 353.07 410.031 365.254 410.031C365.254 410.031 427.826 414.181 433.798 377.805C435.186 368.717 429.207 361.051 426.53 358.317Z" fill="#FCD69D"/>
<path d="M409.023 373.979C411.915 372.848 414.819 368.228 413.771 365.083C412.5 361.265 405.648 360.749 402.382 360.569C401.247 360.507 401.24 362.303 402.382 362.341C404.863 362.424 411.956 362.593 412.407 366.072C412.768 368.861 409.94 371.369 408.71 373.572C408.602 373.765 408.786 374.071 409.023 373.979Z" fill="#765536"/>
<path d="M411.412 383.163C406.378 385.071 401.531 386.661 396.058 386.348C390.204 386.012 381.19 383.956 379.882 377.256C379.731 376.479 378.524 376.675 378.523 377.44C378.52 383.261 384.963 386.009 389.852 387.211C397.079 388.988 405.498 388.037 411.624 383.668C411.859 383.501 411.727 383.043 411.412 383.163Z" fill="#765536"/>
<path d="M384.338 352.279C385.246 356.319 386.155 361.445 380.978 363.119C376.546 364.552 373.383 360.209 371.267 357.06C370.784 356.34 369.615 357.011 370.096 357.744C372.774 361.832 376.892 366.679 382.334 364.205C386.796 362.176 388.828 355.487 385.17 351.793C384.808 351.428 384.231 351.805 384.338 352.279Z" fill="#765536"/>
<path d="M382.92 334.413C375.831 330.559 367.159 335.631 363.455 341.823C362.852 342.829 364.358 343.669 365.008 342.731C367.023 339.825 369.47 337.705 372.752 336.356C376.13 334.968 379.282 335.012 382.838 334.723C382.991 334.709 383.076 334.497 382.92 334.413Z" fill="#765536"/>
<path d="M421.891 349.424C421.81 350.944 422.427 352.376 422.315 353.92C422.162 356.02 421.055 358.037 419.04 358.852C414.356 360.745 411.847 354.86 410.84 351.407C410.662 350.793 409.699 351.055 409.879 351.672C411.114 355.909 413.816 362.517 419.548 360.313C423.416 358.827 425.656 352.303 422.294 349.257C422.139 349.117 421.903 349.217 421.891 349.424Z" fill="#765536"/>
<path d="M407.783 329.5C411.206 329.748 414.071 329.687 417.259 331.259C420.139 332.677 422.171 334.801 423.863 337.493C424.448 338.427 425.864 337.603 425.339 336.631C422.21 330.827 414.322 325.315 407.703 329.205C407.562 329.289 407.632 329.489 407.783 329.5Z" fill="#765536"/>
<path d="M316.915 373.516C321.967 366.764 329.067 369.58 334.142 374.775C334.879 375.531 336.075 374.323 335.295 373.62C331.926 370.58 327.91 367.308 323.05 367.761C319.947 368.052 316.679 370.083 316.322 373.356C316.282 373.707 316.751 373.735 316.915 373.516Z" fill="#765536"/>
<path d="M333.01 372.949C331.028 373.525 329.95 375.843 330.386 377.792C330.724 379.305 332.924 382.136 334.703 381.004C335.032 380.795 335.076 380.377 334.822 380.091C334.398 379.615 333.942 379.649 333.382 379.373C332.67 379.024 332.047 378.36 331.796 377.599C331.259 375.979 332.254 374.639 333.414 373.644C333.735 373.368 333.392 372.839 333.01 372.949Z" fill="#765536"/>
<path d="M338.622 364.492C330.468 357.251 314.495 359.515 310.451 370.189C304.59 385.657 320.159 393.752 333.096 393.676C334.326 393.669 334.328 391.759 333.096 391.767C328.702 391.792 324.374 390.643 320.268 389.101C313.356 386.505 310.382 379.731 311.766 372.653C314.17 360.372 328.998 359.205 338.135 365.123C338.514 365.368 338.964 364.796 338.622 364.492Z" fill="#765536"/>
<path d="M375.799 376.484C375.799 383.907 369.782 389.924 362.359 389.924C354.935 389.924 348.919 383.907 348.919 376.484C348.919 369.061 354.935 363.043 362.359 363.043C369.782 363.043 375.799 369.061 375.799 376.484Z" fill="#F9B08A"/>
<path d="M431.904 366.001C431.215 364.181 428.6 360.653 428.6 360.653C428.6 360.653 427.624 359.419 427.246 359.096C419.823 359.096 415.314 364.721 415.314 372.144C415.314 379.567 421.331 385.584 428.754 385.584C430.724 385.584 430.046 385.733 431.732 384.971C432.411 383.195 436.407 375.228 431.904 366.001Z" fill="#F9B08A"/>
<path d="M334.718 334.46C336.508 319.501 343.987 312.023 345.695 309.956C345.695 309.392 331.146 308.728 330.616 308.476C325.263 305.925 319.912 303.375 314.559 300.824C313.752 300.44 312.726 300.58 312.255 301.429C306.44 311.911 300.514 321.649 300.043 331.597C299.572 341.545 298.979 350.027 305.722 367.084C306.282 367.804 308.626 374.097 309.346 373.772C312.771 362.067 320.588 361.163 323.604 360.52C330.538 359.737 336.842 363.043 336.842 363.043C336.842 363.043 332.927 349.419 334.718 334.46Z" fill="#1A1918"/>
<path d="M376.759 272.252C356.275 267.052 334.366 269.884 315.492 279.808C313.591 280.847 320.616 281.999 322.336 282.744C308.214 282.116 298.306 284.36 293.666 299.556C293.368 300.529 292.946 301.647 293.932 300.933C298.202 299.559 304.516 300.585 309.334 300.461C307.122 301.553 303.328 302.833 301.491 304.936C300.983 305.517 299.407 308.013 299.67 308.447C299.931 308.879 303.171 308.628 303.966 308.48C318.206 305.813 329.536 314.255 341.868 319.896C350.568 323.875 364.386 324.849 373.852 324.816C413.946 319.501 420.192 309.588 420.254 308.347C421.25 287.992 391.592 276.016 376.759 272.252Z" fill="#201E1D"/>
<path d="M395.435 291.207C383.258 279.689 362.722 274.325 346.731 280.419C346.348 280.564 346.494 281.105 346.9 281.032C364.932 277.796 380.374 280.252 395.284 291.403C395.398 291.488 395.536 291.303 395.435 291.207Z" fill="#3C3C3D"/>
<path d="M378.406 297.595C359.072 286.583 336.228 283.976 314.635 288.789C314.131 288.901 314.344 289.677 314.848 289.564C336.563 284.663 358.375 288.095 378.196 297.953C378.434 298.071 378.64 297.728 378.406 297.595Z" fill="#3C3C3D"/>
<path d="M374.834 300.635C369.446 297.791 363.227 295.952 357.104 295.915C356.638 295.912 356.502 296.679 356.991 296.757C363.123 297.74 368.766 299.003 374.567 301.267C374.932 301.411 375.176 300.816 374.834 300.635Z" fill="#3C3C3D"/>
<path d="M370.498 311.507C354.34 311.076 340.65 306.141 327.098 297.587C326.826 297.415 326.483 297.836 326.747 298.043C338.918 307.64 355.13 312.247 370.498 311.811C370.694 311.805 370.695 311.511 370.498 311.507Z" fill="#3C3C3D"/>
<path d="M411.167 504.655C411.167 504.655 451.639 526.229 453.302 529.827C454.963 533.425 435.835 594.268 435.835 594.268C435.835 594.268 453.27 605.91 448.14 620.16C435.195 618.881 418.93 608.022 417.939 602.995C416.948 597.967 426.158 550.76 424.284 546.497C422.412 542.236 384.236 522.223 384.236 522.223L411.167 504.655Z" fill="#1E2630"/>
<path d="M382.822 514.885C382.822 514.885 424.083 534.911 425.879 538.441C427.676 541.975 410.868 603.497 410.868 603.497C410.868 603.497 428.734 614.472 424.147 628.905C411.162 628.119 394.498 617.883 393.316 612.897C392.136 607.91 399.55 560.389 397.516 556.201C395.482 552.012 356.576 533.461 356.576 533.461L382.822 514.885Z" fill="#232D3D"/>
<path d="M400.936 431.684C400.936 431.684 400.898 452.061 430.047 513.12C413.24 515.128 368.252 536.623 368.252 536.623C368.252 536.623 361.571 543.383 344.512 535.309C327.455 527.235 350.672 426.192 350.672 426.192L400.936 431.684Z" fill="#F6CC3E"/>
<path d="M352.168 536.879C352.384 536.184 351.49 535.308 351.23 534.703C351.043 534.268 350.984 533.82 350.911 533.36C350.838 532.904 350.662 532.552 350.468 532.141C350.339 531.865 349.948 531.863 349.752 532.048C348.679 533.064 349.063 534.575 349.742 535.728C349.976 536.131 351.798 538.073 352.168 536.879Z" fill="#D0A424"/>
<path d="M360.03 536.847C359.844 536.024 359.23 535.308 358.835 534.573C358.447 533.851 358.159 533.016 357.44 532.553C357.075 532.319 356.643 532.565 356.514 532.931C356.179 533.869 356.743 534.884 357.239 535.653C357.738 536.429 358.384 537.291 359.303 537.575C359.752 537.712 360.124 537.269 360.03 536.847Z" fill="#D0A424"/>
<path d="M367.974 534.921C368.14 534.136 367.578 533.413 367.148 532.805C366.724 532.201 366.151 531.259 365.318 531.296C365.07 531.307 364.859 531.46 364.787 531.7C364.546 532.505 365.31 533.283 365.798 533.848C366.28 534.405 366.852 535.14 367.65 535.167C367.79 535.172 367.943 535.06 367.974 534.921Z" fill="#D0A424"/>
<path d="M373.939 531.688C374.44 531.268 374.263 530.347 374.023 529.827C373.739 529.212 373.163 528.531 372.443 528.521C372.176 528.517 371.898 528.764 371.92 529.044C371.964 529.601 372.342 530.053 372.608 530.532C372.832 530.931 373.064 531.54 373.5 531.744C373.659 531.819 373.806 531.8 373.939 531.688Z" fill="#D0A424"/>
<path d="M381.524 528.336C381.98 527.344 381.855 525.421 380.467 525.221C380.191 525.183 379.818 525.34 379.855 525.688C379.94 526.528 380.54 527.236 380.648 528.097C380.698 528.5 381.306 528.813 381.524 528.336Z" fill="#D0A424"/>
<path d="M387.864 526.603C388.543 526.113 388.266 525.085 388.03 524.413C387.743 523.599 387.336 522.916 386.514 522.585C386.302 522.499 386.067 522.713 386.071 522.921C386.087 523.645 386.391 524.243 386.616 524.919C386.795 525.455 386.868 526.34 387.444 526.603C387.572 526.661 387.738 526.695 387.864 526.603Z" fill="#D0A424"/>
<path d="M394.386 523.385C394.626 522.629 394.382 521.799 394.047 521.109C393.664 520.319 392.995 519.949 392.255 519.548C392.024 519.424 391.7 519.691 391.87 519.935C392.615 521.008 392.914 522.385 393.626 523.484C393.822 523.788 394.276 523.733 394.386 523.385Z" fill="#D0A424"/>
<path d="M401.23 521.927C401.715 521.12 401.234 519.945 400.822 519.2C400.37 518.377 399.531 517.227 398.584 516.992C398.186 516.895 397.719 517.271 397.874 517.704C398.175 518.544 398.96 519.244 399.438 520.008C399.846 520.659 400.199 521.612 400.88 522.017C401 522.089 401.159 522.043 401.23 521.927Z" fill="#D0A424"/>
<path d="M406.856 518.428C407.839 518.069 407.614 516.641 407.328 515.881C406.984 514.968 406.064 513.868 404.987 514.064C404.715 514.113 404.522 514.469 404.611 514.724C404.852 515.397 405.519 515.86 405.85 516.505C406.138 517.067 406.059 517.893 406.53 518.343C406.611 518.421 406.744 518.471 406.856 518.428Z" fill="#D0A424"/>
<path d="M413.394 515.865C414.506 514.883 413.448 512.264 412.023 512.224C411.766 512.216 411.508 512.459 411.526 512.72C411.564 513.323 411.983 513.851 412.262 514.372C412.522 514.856 412.656 515.456 413.032 515.865C413.131 515.971 413.295 515.953 413.394 515.865Z" fill="#D0A424"/>
<path d="M418.991 514.467C419.507 512.813 418.368 510.584 416.516 510.447C416.144 510.421 415.951 510.863 416.11 511.155C416.436 511.753 416.954 512.247 417.34 512.809C417.718 513.359 418.066 513.959 418.378 514.547C418.519 514.813 418.91 514.731 418.991 514.467Z" fill="#D0A424"/>
<path d="M426.264 512.879C426.167 511.821 425.782 511.141 425.079 510.344C424.444 509.624 423.574 508.705 422.587 508.528C422.178 508.453 421.754 508.871 422.011 509.276C422.496 510.048 423.37 510.588 424.002 511.241C424.323 511.573 424.608 511.936 424.927 512.271C425.234 512.592 425.586 512.805 425.94 513.065C426.068 513.157 426.279 513.035 426.264 512.879Z" fill="#D0A424"/>
<path d="M343.987 527.109C343.987 527.109 345.563 539.371 336.903 538.936C328.242 538.504 305.856 538.936 305.856 538.936C305.856 538.936 301.244 523.021 324.978 518.035" fill="#FCD69D"/>
<path d="M329.45 529.005C326.815 528.184 323.651 529.751 321.592 531.324C319.156 533.187 317.946 535.529 316.871 538.331C316.48 539.348 318.306 539.856 318.499 538.78C318.962 536.205 320.852 533.823 322.934 532.309C324.966 530.831 327.203 530.561 329.45 529.672C329.756 529.551 329.796 529.113 329.45 529.005Z" fill="#765536"/>
<path d="M348.7 425.132C348.7 425.132 340.596 427.847 335.338 452.291C330.079 476.735 325.516 503.983 320.88 513.315C316.246 522.648 332.966 531.407 343.987 528.484C355.011 525.564 357.898 430.444 357.898 430.444L348.7 425.132Z" fill="#C8A129"/>
<path d="M344.403 523.275C344.111 523.971 343.787 524.692 343.396 525.336C343.038 525.927 342.435 526.492 342.336 527.195C342.266 527.697 342.606 528.063 343.12 527.977C344.006 527.829 344.591 526.845 344.935 526.093C345.34 525.205 345.531 524.388 345.436 523.415C345.375 522.804 344.634 522.725 344.403 523.275Z" fill="#A17C20"/>
<path d="M339.16 524.128C338.738 524.496 338.63 525.255 338.335 525.744C337.971 526.349 337.512 526.751 337.05 527.268C336.486 527.899 337.198 528.919 337.976 528.468C338.687 528.056 339.267 527.232 339.587 526.485C339.835 525.903 340.188 524.763 339.768 524.205C339.612 523.997 339.364 523.949 339.16 524.128Z" fill="#A17C20"/>
<path d="M332.944 522.621C332.548 523.371 332.226 524.165 332.062 524.999C331.932 525.649 331.724 526.524 332.244 527.027C332.383 527.16 332.636 527.179 332.772 527.027C333.203 526.544 333.058 525.892 333.118 525.277C333.198 524.464 333.383 523.693 333.678 522.929C333.843 522.505 333.155 522.223 332.944 522.621Z" fill="#A17C20"/>
<path d="M327.174 520.927C326.895 521.511 326.78 522.241 326.695 522.88C326.604 523.548 326.558 524.172 326.858 524.791C326.99 525.065 327.382 525.02 327.527 524.791C327.878 524.235 327.904 523.603 327.882 522.96C327.862 522.325 327.838 521.588 327.63 520.985C327.566 520.803 327.272 520.719 327.174 520.927Z" fill="#A17C20"/>
<path d="M322.892 515.616C322.287 516.457 322.024 517.264 321.979 518.301C321.947 519.081 321.911 520.115 322.611 520.592C322.815 520.731 323.039 520.575 323.119 520.384C323.387 519.745 323.022 518.985 323.028 518.301C323.034 517.493 323.198 516.611 323.398 515.829C323.479 515.511 323.07 515.369 322.892 515.616Z" fill="#A17C20"/>
<path d="M207.351 407.033C206.239 406.715 205.136 407.449 204.152 407.905C202.878 408.496 201.448 409.023 200.331 409.877C199.371 410.609 199.856 412.512 201.236 412.028C202.598 411.549 203.835 410.68 205.054 409.92C206.027 409.315 207.316 408.779 207.679 407.612C207.755 407.368 207.588 407.101 207.351 407.033Z" fill="#F03F53"/>
<path d="M204.122 404.036C202.85 403.933 201.576 404.127 200.32 404.317C199.171 404.491 197.804 404.504 196.975 405.38C196.532 405.848 196.768 406.509 197.33 406.723C198.444 407.147 199.742 406.532 200.838 406.197C202.036 405.832 203.246 405.444 204.331 404.809C204.706 404.591 204.515 404.067 204.122 404.036Z" fill="#F03F53"/>
<path d="M202.55 399.556C201.326 399.457 200.09 399.657 198.88 399.835C197.683 400.011 196.49 400.047 195.552 400.861C194.998 401.344 195.295 402.34 195.986 402.504C197.188 402.788 198.3 402.239 199.432 401.84C200.571 401.437 201.75 401.031 202.774 400.381C203.159 400.136 202.982 399.591 202.55 399.556Z" fill="#F03F53"/>
<path d="M202.412 394.712C201.148 394.212 199.675 394.283 198.336 394.229C197.062 394.179 195.844 394.012 194.823 394.856C194.347 395.249 194.58 395.949 195.003 396.247C196.092 397.016 197.616 396.601 198.862 396.448C200.115 396.293 201.388 396.235 202.538 395.673C202.987 395.453 202.792 394.863 202.412 394.712Z" fill="#F03F53"/>
<path d="M202.468 390.684C201.39 390.004 199.964 390.043 198.73 389.891C197.363 389.723 195.99 389.344 194.704 389.931C194.044 390.233 194.119 391.257 194.704 391.58C195.918 392.251 197.388 391.949 198.73 391.884C199.974 391.823 201.343 391.951 202.468 391.353C202.734 391.212 202.704 390.832 202.468 390.684Z" fill="#F03F53"/>
<path d="M201.718 385.451C200.076 385.181 198.484 384.727 196.952 384.084C195.372 383.423 194.566 386.111 196.231 386.7C198.032 387.337 199.843 387.46 201.718 387.132C202.544 386.987 202.554 385.588 201.718 385.451Z" fill="#F03F53"/>
<path d="M201.916 381.913C200.328 380.12 196.662 378.175 194.303 379.189C193.407 379.575 193.596 380.879 194.303 381.316C195.324 381.951 196.635 381.779 197.795 381.993C199.003 382.216 200.158 382.608 201.35 382.884C201.928 383.019 202.3 382.347 201.916 381.913Z" fill="#F03F53"/>
<path d="M340.188 429.821C340.17 429.824 340.154 429.824 340.136 429.825L336.936 406.984C338.008 406.853 337.967 405.175 336.808 405.128C309.956 404.043 287.764 389.521 263.267 380.347C252.763 376.413 241.727 373.62 230.443 373.779C225.203 373.852 219.882 374.516 214.851 376.013C213.047 376.551 203.454 380.212 203.866 381.011C203.396 380.1 202.191 380.639 202.104 381.488C201.336 389.063 201.568 410.151 212.562 410.439C212.82 410.651 213.195 410.735 213.596 410.556C257.794 390.98 296.108 441.077 340.287 430.556C340.688 430.461 340.614 429.776 340.188 429.821Z" fill="#E53343"/>
<path d="M311.308 410.151C295.099 411.301 279.463 407.605 265.503 399.291C265.072 399.035 264.69 399.695 265.111 399.96C279.028 408.699 294.968 412.399 311.308 410.649C311.62 410.615 311.631 410.128 311.308 410.151Z" fill="#A9252D"/>
<path d="M308.29 405.04C303.699 405.575 299.418 404.859 294.994 403.652C294.7 403.573 294.488 404.023 294.782 404.159C299.04 406.137 303.784 406.34 308.352 405.503C308.61 405.456 308.554 405.011 308.29 405.04Z" fill="#A9252D"/>
<path d="M233.299 380.396C223.126 379.828 212.992 381.836 204.17 387.06C203.815 387.271 204.127 387.793 204.491 387.609C213.659 382.987 222.976 380.484 233.299 380.839C233.586 380.848 233.583 380.412 233.299 380.396Z" fill="#A9252D"/>
<path d="M411.34 404.991C411.199 404.571 410.792 404.177 410.314 404.209C404.687 404.601 399.312 407.199 393.43 407.471C386.459 407.792 379.495 406.999 372.634 405.829C361.206 403.881 349.999 401.004 338.439 399.915C338.072 399.644 337.547 399.599 337.147 399.995C337.1 400.041 337.054 400.089 337.006 400.136C336.716 400.423 336.663 400.768 336.754 401.076C334.81 410.06 333.627 425.723 341.824 431.795C341.923 432.189 342.222 432.539 342.738 432.575C365.39 430.156 399.887 442.584 408.582 433.736C409.423 433.708 409.748 432.909 409.556 432.295C413.772 423.743 414.371 414.069 411.34 404.991Z" fill="#F03F53"/>
<path d="M404.95 410.724C388.476 415.771 372.335 414.448 357.035 406.544C356.531 406.284 356.102 407.008 356.588 407.311C370.995 416.245 389.523 417.713 405.067 411.003C405.226 410.933 405.112 410.675 404.95 410.724Z" fill="#E63040"/>
<path d="M406.49 415.007C396.587 418.388 387.338 418.581 377.083 417.192C376.586 417.124 376.36 417.804 376.868 417.965C386.624 421.053 397.483 419.665 406.714 415.539C407.012 415.404 406.8 414.9 406.49 415.007Z" fill="#E63040"/>
</g>
<defs>
<clipPath id="clip0_127_3">
<rect width="666.667" height="666.667" fill="white"/>
</clipPath>
</defs>
</svg>
