<svg width="1000" height="1000" viewBox="0 0 1000 1000" fill="none" xmlns="http://www.w3.org/2000/svg">
<g clip-path="url(#clip0_147_1098)">
<g clip-path="url(#clip1_147_1098)">
<mask id="mask0_147_1098" style="mask-type:luminance" maskUnits="userSpaceOnUse" x="336" y="6" width="667" height="783">
<path d="M336.81 788.973H1002.39V6.32019H336.81V788.973Z" fill="white"/>
</mask>
<g mask="url(#mask0_147_1098)">
<path d="M614.045 271.173L538.795 217.107C529.21 210.227 526.191 197.307 531.73 186.893C537.343 176.32 549.973 171.64 561.117 175.973L676.762 221.027L614.045 271.173Z" fill="#F78E62"/>
<path d="M1044.09 541.507L792.486 308.72L626.856 188.013L574.484 354.373L691.267 396.893L994.427 734.987L1044.09 541.507Z" fill="#F78E62"/>
<path d="M706.742 245.533L704.747 221L762.68 213.413L758.952 198.28C732.774 202.653 714.87 200.08 702.626 194.933C680.005 185.427 676.762 167.067 676.762 167.067L409.845 73.0403L383.476 18.0002L349.283 115.067L552.818 186.76C552.818 186.76 532.874 248.373 622.117 279.813C622.117 279.813 691.753 321.933 666.294 399.2L753.97 430.094C753.97 430.094 814.594 294.093 706.742 245.533Z" fill="#113C4A"/>
<path d="M792.485 308.72L765.454 262.627L634.045 207.613C622.655 234.827 631.316 266.307 655.024 283.853L712.041 326.067C712.041 326.067 733.951 394.92 772.41 411.76L792.485 308.72Z" fill="#F78E62"/>
<path d="M1165.04 777.387L1080.53 769.293L985.547 760.213L922.334 688.72L737.031 479.187L844.062 352.893L1063.64 522.12L1165.37 520.133L1165.04 777.387Z" fill="#CCCCCC"/>
<path d="M682.392 228.44L673.88 248.773C673.88 248.773 635.618 238.067 647.904 213.413L682.392 228.44Z" fill="#F1754D"/>
<path d="M1080.53 769.293L985.547 760.213L922.334 688.72C947.441 666.56 983.454 658.293 1017.25 670.2C1059.45 685.067 1084.65 726.653 1080.53 769.293Z" fill="#A0563E"/>
</g>
</g>
</g>
<defs>
<clipPath id="clip0_147_1098">
<rect width="1000" height="1000" fill="white"/>
</clipPath>
<clipPath id="clip1_147_1098">
<rect width="6405.81" height="2560" fill="white" transform="translate(-438 -280)"/>
</clipPath>
</defs>
</svg>
