<svg width="336" height="204" viewBox="0 0 336 204" fill="none" xmlns="http://www.w3.org/2000/svg">
<g clip-path="url(#clip0_130_125)">
<path d="M95.4101 148.375C95.4101 148.375 182.218 171.452 189.859 168.506C197.5 165.561 237.486 140.03 237.486 140.03C237.486 140.03 253.334 63.4368 249.069 60.9808C244.804 58.5264 163.293 37.9056 149.473 41.8335C135.652 45.7613 95.9891 61.9634 95.4426 68.8372C94.8969 75.7103 85.9157 146.215 95.4101 148.375Z" fill="#56C8F1"/>
<path d="M249.069 60.9809C244.804 58.5265 163.293 37.9057 149.473 41.8335C136.528 45.5122 100.914 59.9591 96.0029 67.423C118.517 74.1619 134.487 73.411 151.653 75.0895C172.96 77.173 178.941 77.4238 178.941 77.4238C178.941 77.4238 246.674 68.2139 248.725 67.7972C248.916 67.7589 249.256 67.5789 249.714 67.2872C249.918 63.6903 249.754 61.3759 249.069 60.9809Z" fill="#95DCEC"/>
<path d="M180.603 87.7988C183.667 103.078 186.812 161.069 188.031 163.846C188.494 164.902 188.475 166.801 188.569 168.733C189.113 168.694 189.555 168.623 189.859 168.506C197.5 165.561 237.486 140.03 237.486 140.03C237.486 140.03 252.963 65.2279 249.208 61.1084C229.602 67.7989 231.678 68.4456 206.233 70.5058C175.353 73.006 177.538 72.5201 180.603 87.7988Z" fill="#7BD4E9"/>
<path d="M195.951 157.942C190.16 157.941 193.536 143.04 193.09 130.612C192.627 117.695 184.753 88.5256 184.907 83.2468C185.061 77.9689 195.406 76.4413 205.751 75.8854C216.095 75.3295 226.057 73.9878 239.564 70.6075C240.003 70.4975 240.401 70.445 240.761 70.445C245.324 70.445 243.716 78.8973 238.135 87.1363C232.114 96.0261 236.09 94.776 238.251 105.888C240.412 116.999 235.903 121.516 235.748 131.516C235.593 141.517 229.411 141.307 221.229 144.641C213.046 147.974 203.473 156.621 196.68 157.871C196.422 157.918 196.18 157.942 195.951 157.942Z" fill="#99DEEC"/>
<path d="M176.566 163.282C170.987 163.282 160.832 157.524 145.382 156.448C125.465 155.058 110.488 148.252 102.305 146.724C94.1225 145.197 96.9016 141.446 96.7469 122.833C96.5922 104.221 99.2175 88.2471 98.7544 83.1084C98.3857 79.0181 99.3491 74.1302 104.613 74.1302C105.962 74.1302 107.597 74.4519 109.561 75.1911C119.906 79.0797 116.509 89.4972 120.524 99.3597C124.538 109.221 141.368 104.36 158.351 107.415C175.334 110.471 177.187 121.306 178.942 126.862C180.696 132.417 184.135 156.169 180.276 161.586C179.41 162.801 178.18 163.283 176.566 163.282Z" fill="#80D6F1"/>
<path d="M119.617 73.5935C110.244 72.2051 111.221 71.515 105.374 70.4449C99.5258 69.3748 100.626 68.1247 102.537 68.2289C104.448 68.3331 112.438 71.0416 120.833 71.9792C129.228 72.9168 151.416 72.3159 161.825 74.6353C172.234 76.9546 176.126 75.417 181.105 72.7084C186.085 69.9999 204.926 69.0231 213.76 68.9581C222.594 68.8923 233.387 65.7287 237.324 64.2703C241.262 62.8118 241.088 65.1037 237.324 65.9887C233.562 66.8746 232.404 68.5806 220.187 70.0191C207.97 71.4583 193.264 71.9792 188.69 73.3852C184.116 74.7919 181.8 74.8961 181.51 77.7088C181.221 80.5215 184.073 88.2805 183.247 94.741C182.423 101.202 187.002 114.018 186.142 124.014C185.283 134.011 188.801 151.6 186.7 151.906C184.598 152.211 184.289 140.682 184.213 135.647C184.135 130.612 182.939 113.388 181.665 109.707C180.391 106.027 181.047 83.2818 176.068 81.0941C171.088 78.9064 161.709 77.448 157.772 76.7187C153.835 75.9895 134.381 75.7812 119.617 73.5935Z" fill="white"/>
<path d="M100.163 96.4078C102.363 88.4722 98.5421 87.553 97.6157 89.4281C96.6894 91.3033 94.4308 108.944 95.5888 115.889C96.7468 122.833 94.1224 137.904 95.6657 142.835C97.21 147.766 100.298 146.655 107.477 148.739C114.656 150.822 120.696 154.098 130.714 155.058C140.732 156.018 162.51 161.545 162.13 159.518C161.748 157.489 160.667 157.35 147.621 155.058C134.574 152.766 124.307 152.975 117.899 149.085C111.492 145.197 102.646 146.308 101.009 143.53C99.3712 140.751 97.3647 138.738 98.2911 129.917C99.2175 121.097 96.9395 108.04 100.163 96.4078Z" fill="white"/>
<path d="M239.216 115.749C239.911 111.201 238.675 109.707 238.058 111.861C237.44 114.013 235.047 120.333 234.97 124.604C234.893 128.875 234.198 136.029 233.387 137.244C232.577 138.459 225.436 143.078 221.306 144.016C217.176 144.953 211.347 148.704 209.225 150.301C207.101 151.898 207.796 153.704 211.309 151.481C214.821 149.26 217.215 147.141 225.861 144.189C234.506 141.238 235.935 138.946 236.167 137.001C236.398 135.057 238.251 132.348 238.096 128.285C237.942 124.223 239.216 115.749 239.216 115.749Z" fill="white"/>
<path d="M105.661 64.5303C112.761 58.2606 148.854 41.6118 155.223 42.6535C161.591 43.6953 233.965 55.7796 232.112 57.9672C230.259 60.1549 233.038 57.2964 207.563 53.5694C182.088 49.8416 160.202 44.4245 154.759 45.3621C149.317 46.2996 138.895 50.2125 131.716 53.5694C124.536 56.9255 99.2926 70.1557 105.661 64.5303Z" fill="white"/>
</g>
<defs>
<clipPath id="clip0_130_125">
<rect width="336" height="204" fill="white"/>
</clipPath>
</defs>
</svg>
