<svg aria-hidden="true" style="position: absolute; width: 0; height: 0; overflow: hidden;" version="1.1" xmlns="http://www.w3.org/2000/svg" xmlns:xlink="http://www.w3.org/1999/xlink">
<defs>
<symbol id="icon-brightness" viewBox="0 0 32 32">
<path d="M16 22.667c-3.68 0-6.667-2.987-6.667-6.667s2.987-6.667 6.667-6.667 6.667 2.987 6.667 6.667-2.987 6.667-6.667 6.667zM16 12c-2.2 0-4 1.8-4 4s1.8 4 4 4 4-1.8 4-4-1.8-4-4-4zM17.333 5.333v-4c0-0.733-0.6-1.333-1.333-1.333s-1.333 0.6-1.333 1.333v4c0 0.733 0.6 1.333 1.333 1.333s1.333-0.6 1.333-1.333zM17.333 30.667v-4c0-0.733-0.6-1.333-1.333-1.333s-1.333 0.6-1.333 1.333v4c0 0.733 0.6 1.333 1.333 1.333s1.333-0.6 1.333-1.333zM6.667 16c0-0.733-0.6-1.333-1.333-1.333h-4c-0.733 0-1.333 0.6-1.333 1.333s0.6 1.333 1.333 1.333h4c0.733 0 1.333-0.6 1.333-1.333zM32 16c0-0.733-0.6-1.333-1.333-1.333h-4c-0.733 0-1.333 0.6-1.333 1.333s0.6 1.333 1.333 1.333h4c0.733 0 1.333-0.6 1.333-1.333zM8.947 8.947c0.52-0.52 0.52-1.36 0-1.88l-2.667-2.667c-0.52-0.52-1.36-0.52-1.88 0s-0.52 1.36 0 1.88l2.667 2.667c0.267 0.267 0.6 0.387 0.947 0.387s0.68-0.133 0.947-0.387zM27.613 27.613c0.52-0.52 0.52-1.36 0-1.88l-2.667-2.667c-0.52-0.52-1.36-0.52-1.88 0s-0.52 1.36 0 1.88l2.667 2.667c0.267 0.267 0.6 0.387 0.947 0.387s0.68-0.133 0.947-0.387zM6.28 27.613l2.667-2.667c0.52-0.52 0.52-1.36 0-1.88s-1.36-0.52-1.88 0l-2.667 2.667c-0.52 0.52-0.52 1.36 0 1.88 0.267 0.267 0.6 0.387 0.947 0.387s0.68-0.133 0.947-0.387zM24.947 8.947l2.667-2.667c0.52-0.52 0.52-1.36 0-1.88s-1.36-0.52-1.88 0l-2.667 2.667c-0.52 0.52-0.52 1.36 0 1.88 0.267 0.267 0.6 0.387 0.947 0.387s0.68-0.133 0.947-0.387z"></path>
</symbol>
<symbol id="icon-moon" viewBox="0 0 32 32">
<path d="M18.667 32c-8.833-0.010-15.99-7.167-16-15.999v-0.001c-0.204-11.941 13.375-19.98 23.721-13.988l2.071 1.149-2.057 1.173c-8.933 4.917-8.28 18.493 1.067 22.541l2.161 0.975-1.956 1.341c-2.517 1.755-5.639 2.805-9.006 2.808h-0.001zM18.667 2.667c-7.36 0.008-13.325 5.973-13.333 13.333v0.001c-0.207 9.489 10.351 16.267 18.873 12.109-4.134-2.803-6.815-7.479-6.815-12.781 0-4.79 2.188-9.070 5.62-11.893l0.027-0.021c-1.294-0.474-2.787-0.748-4.345-0.748-0.009 0-0.019 0-0.028 0h0.001z"></path>
</symbol>
<symbol id="icon-search" viewBox="0 0 30 30">
<path d="M 13 3 C 7.4889971 3 3 7.4889971 3 13 C 3 18.511003 7.4889971 23 13 23 C 15.396508 23 17.597385 22.148986 19.322266 20.736328 L 25.292969 26.707031 A 1.0001 1.0001 0 1 0 26.707031 25.292969 L 20.736328 19.322266 C 22.148986 17.597385 23 15.396508 23 13 C 23 7.4889971 18.511003 3 13 3 z M 13 5 C 17.430123 5 21 8.5698774 21 13 C 21 17.430123 17.430123 21 13 21 C 8.5698774 21 5 17.430123 5 13 C 5 8.5698774 8.5698774 5 13 5 z"/>
</symbol>
<symbol id="icon-cross-small" viewBox="0 0 32 32">
<path d="M18.828 16l5.172-5.177c0.309-0.35 0.498-0.814 0.498-1.321 0-1.105-0.895-2-2-2-0.507 0-0.971 0.189-1.323 0.5l0.002-0.002-5.177 5.172-5.187-5.188c-0.362-0.362-0.862-0.586-1.415-0.586-1.105 0-2.001 0.896-2.001 2.001 0 0.552 0.224 1.053 0.586 1.415v0l5.188 5.187-5.172 5.176c-0.41 0.368-0.667 0.899-0.667 1.491 0 1.105 0.895 2 2 2 0.592 0 1.123-0.257 1.489-0.665l0.002-0.002 5.176-5.172 5.171 5.172c0.362 0.362 0.862 0.586 1.415 0.586 1.105 0 2.001-0.896 2.001-2.001 0-0.552-0.224-1.053-0.586-1.415v0z"></path>
</symbol>
<symbol id="icon-up-arrow" viewBox="0 0 24 24">
<path d="M12.99,24h-1.98c-2.21,0-4.01-1.78-4.01-3.97v-7.03h-2.06c-1.23,0-2.28-.71-2.75-1.85-.47-1.13-.22-2.38,.65-3.25L9.17,1.18c1.57-1.57,4.09-1.57,5.64-.02,0,0,6.37,6.77,6.37,6.77,.85,.84,1.1,2.09,.63,3.22-.47,1.13-1.52,1.84-2.74,1.85h-2.06v7.03c0,2.19-1.8,3.97-4.01,3.97Zm-.99-22c-.51,0-1.01,.19-1.4,.58l-6.33,6.72c-.45,.45-.29,.95-.24,1.09,.06,.14,.3,.61,.9,.61h3.05c.55,0,1,.45,1,1v8.03c0,1.09,.9,1.97,2.01,1.97h1.98c1.11,0,2.01-.89,2.01-1.97V12c0-.55,.45-1,1-1h3.06c.6,0,.84-.47,.9-.61,.06-.14,.22-.64-.21-1.07L13.39,2.57c-.38-.38-.88-.57-1.38-.57Z"/>
</symbol>
</defs>
</svg>
