<svg width="667" height="737" fill="none" xmlns="http://www.w3.org/2000/svg"><path d="M0 0h667v737H0z"/><g clip-path="url('#clip0_127_3')"><path d="M269.346 641.005s87.785-72.826 172.813-86.997c101.301-66.331 171.047-75.939 171.047-75.939L338.235 439.06 35.121 536.687l234.225 104.318Z" fill="#403225"/><path d="M269.346 641.005s87.785-72.826 172.813-86.997c101.301-66.331 171.047-75.939 171.047-75.939L338.235 439.06 35.121 536.687l234.225 104.318Z" stroke="#403225" stroke-width="1.575" stroke-miterlimit="10" stroke-linecap="round" stroke-linejoin="round"/><path d="M435.074 546.923s54.848-50.652 160.873-67.71c.787-6.036 0-11.809 0-11.809s-185.905-41.513-228.845-38.972c-42.938 2.543-104.712 19.991-130.319 42.908 112.653 49.345 198.291 75.583 198.291 75.583Z" fill="#EDE9E5"/><path d="M531.782 465.22c-45.584 6.467-88.674 25.707-123.88 55.376-.415.351.185.948.597.597 34.989-29.912 77.735-49.33 123.289-55.95.015-.002.008-.024-.006-.023ZM496.099 456.457c-40.623 5.687-81.171 24.094-114.213 48.047-.59.427-.032 1.419.58.992 16.802-11.708 34.402-21.953 53.226-30.077 19.564-8.444 39.763-13.935 60.426-18.894.045-.01.025-.074-.019-.068ZM448.94 450.559c-33.886 6.746-67.956 23.749-93.956 46.458-.486.424.211 1.078.696.695 13.879-10.915 28.151-20.845 43.959-28.803 15.828-7.968 32.327-13.449 49.351-18.169.117-.033.068-.204-.05-.181ZM425.546 441.456c-35.208 4.04-72.216 21.701-98.064 45.849-.582.544.269 1.356.862.862 14.12-11.751 28.639-22.238 45.286-30.17 16.677-7.948 33.949-12.59 51.934-16.404.078-.016.062-.146-.018-.137ZM392.199 435.233c-16.855.771-34.161 6.458-49.424 13.371-15.719 7.123-32.469 16.86-44.311 29.647-.21.228.099.513.332.332 13.97-10.922 27.152-21.335 43.39-28.836 16.18-7.478 32.678-11.006 50.022-14.444.04-.008.031-.072-.009-.07ZM362.512 432.257c-31.669 4.086-63.396 17.142-86.921 39.108-.493.46.225 1.143.729.728 25.216-20.713 53.674-34.996 86.232-39.537.168-.023.131-.321-.04-.299Z" fill="#B9ADA3"/><path d="M435.074 546.923s-68.759-1.219-167.959 78.205c-96.052-33.592-216.638-91.397-216.638-91.397s-.397-10.428-.397-19.088c29.478-24.322 111.714-64.968 194.99-41.728 112.848 31.493 190.004 74.008 190.004 74.008Z" fill="#fff"/><path d="M382.428 531.037c-44.905 5.775-88.313 23.236-122.848 52.783-.514.44.24 1.205.748.748 33.622-30.196 77.988-46.524 122.155-53.128.227-.033.175-.433-.055-.403ZM364.232 522.487c-40.165 2.112-82.594 18.662-112.741 45.362-.484.428.228 1.136.709.708 31.552-27.998 71.203-39.725 112.06-45.858.119-.019.092-.218-.028-.212ZM332.084 513.4c-36.597 5.7-72.618 23.468-99.088 49.375-.394.385.212.992.606.605 27.222-26.756 61.94-41.071 98.625-49.461.344-.079.191-.571-.143-.519ZM311.348 503.913c-39.402 6.158-77.097 24.534-103.208 55.158-.438.514.307 1.262.746.745 25.784-30.477 63.629-48.815 102.561-55.545.236-.04.135-.395-.099-.358ZM280.734 491.852c-36.842 7.851-74.06 24.972-101.528 51.103-.406.385.204.988.613.612 28.705-26.363 63.557-41.83 100.995-51.423.189-.049.109-.332-.08-.292ZM256.727 485.705c-38.463 5.144-77.597 21.206-106.221 47.891-.472.44.222 1.116.701.703 30.191-26.194 66.229-41.743 105.575-48.192.225-.036.174-.432-.055-.402ZM242.014 477.099c-39.852 3.305-82.879 16.918-113.451 43.67-.336.295.117.9.484.628 33.549-24.892 71.347-39.412 112.967-43.758.341-.036.35-.568 0-.54ZM210.412 471.555c-38.426 1.02-77.99 12.884-109.536 35.09-.626.44-.033 1.478.606 1.036 32.358-22.349 70.014-32.933 108.93-35.814.196-.016.202-.318 0-.312Z" fill="#B9ADA3"/><path d="M267.115 625.128v-26.637s86.472-72.039 167.959-51.568c-66.131.604-167.959 78.205-167.959 78.205Z" fill="#C2B6A8"/><path d="M267.115 598.491 50.08 514.643l.59 21.542s170.781 78.97 216.445 88.943c.261-18.633 0-26.637 0-26.637Z" fill="#E1D7CD"/><path d="M435.074 546.923s28.605-75.058 160.873-79.519c.261 6.823 0 11.809 0 11.809s-92.903 13.122-160.873 67.71Z" fill="#C2B6A8"/><path d="M407.912 547.187c-15.474-.43-31.724 1.888-46.181 7.56-.519.202-.328 1.008.236.853 15.255-4.185 30.1-7.153 45.945-8.081.212-.012.215-.326 0-.332ZM391.002 552.905c-20.944 1.88-43.046 8.472-59.823 21.552-.329.256.091.759.436.564 18.928-10.662 37.645-19.025 59.387-21.922.121-.015.126-.204 0-.194ZM306.611 580.713c-12.64 5.244-25.329 11.856-35.58 21.047-.369.332.119.98.537.695 11.479-7.808 22.616-15.312 35.374-20.958.438-.193.118-.969-.331-.784ZM309.039 588.033c-10.688 4.447-21.181 9.614-30.784 16.114-.335.226-.035.761.321.549 9.994-5.912 20-11.557 30.623-16.283.213-.096.059-.47-.16-.38ZM570.867 473.293c-26.241 1.498-54.143 10.27-77.28 22.591-.208.112-.024.4.183.312 12.785-5.519 25.466-10.644 38.881-14.447 12.641-3.584 25.393-5.592 38.287-7.938.29-.054.225-.535-.071-.518ZM530.738 489.887c-20.936 3.836-42.982 12.53-59.372 26.385-.311.265.094.785.437.567 18.736-12.022 37.151-21.592 58.956-26.871.053-.013.031-.091-.021-.081ZM253.376 598.271c-19.193-5.91-37.661-13.38-56.421-20.467-.352-.133-.589.437-.256.607 17.783 9.102 37.221 15.468 56.443 20.714.552.151.778-.686.234-.854ZM236.088 603.227c-12.72-5.578-25.437-11.339-38.302-16.568-.623-.254-1.055.784-.459 1.088 12.327 6.261 25.475 11.496 38.507 16.088.349.122.601-.456.254-.608ZM122.574 560.627c-10.89-5.364-21.73-10.903-32.897-15.676-.526-.224-.996.513-.461.789 10.804 5.567 21.995 10.389 33.079 15.364.32.144.603-.319.279-.477ZM150.9 563.293c-21.788-7.77-43.579-15.726-64.539-25.545-.096-.045-.18.097-.084.143 20.983 10 42.214 19.138 64.535 25.722.207.062.287-.249.088-.32ZM91.123 535.945c-10.341-3.682-20.353-8.858-31.139-11.15-.277-.059-.393.348-.117.426 10.643 3.09 20.686 7.54 31.124 11.206.303.105.433-.375.132-.482Z" fill="#A39487"/><path d="M426.53 358.317a69.452 69.452 0 0 0 1.478-14.218c0-36.414-28.096-65.931-62.754-65.931-34.659 0-62.754 29.517-62.754 65.931 0 10.516 3.003 20.122 7.89 28.582-.767 5.958 2.169 13.282 6.969 16.3 3.185 2.004 6.947 3.578 10.716 4.108a86.952 86.952 0 0 0 7.263 5.34c9.626 6.314 17.732 11.602 29.916 11.602 0 0 62.572 4.15 68.544-32.226 1.388-9.088-4.591-16.754-7.268-19.488Z" fill="#FCD69D"/><path d="M409.023 373.979c2.892-1.131 5.796-5.751 4.748-8.896-1.271-3.818-8.123-4.334-11.389-4.514-1.135-.062-1.142 1.734 0 1.772 2.481.083 9.574.252 10.025 3.731.361 2.789-2.467 5.297-3.697 7.5-.108.193.076.499.313.407ZM411.412 383.163c-5.034 1.908-9.881 3.498-15.354 3.185-5.854-.336-14.868-2.392-16.176-9.092-.151-.777-1.358-.581-1.359.184-.003 5.821 6.44 8.569 11.329 9.771 7.227 1.777 15.646.826 21.772-3.543.235-.167.103-.625-.212-.505ZM384.338 352.279c.908 4.04 1.817 9.166-3.36 10.84-4.432 1.433-7.595-2.91-9.711-6.059-.483-.72-1.652-.049-1.171.684 2.678 4.088 6.796 8.935 12.238 6.461 4.462-2.029 6.494-8.718 2.836-12.412-.362-.365-.939.012-.832.486ZM382.92 334.413c-7.089-3.854-15.761 1.218-19.465 7.41-.603 1.006.903 1.846 1.553.908 2.015-2.906 4.462-5.026 7.744-6.375 3.378-1.388 6.53-1.344 10.086-1.633.153-.014.238-.226.082-.31ZM421.891 349.424c-.081 1.52.536 2.952.424 4.496-.153 2.1-1.26 4.117-3.275 4.932-4.684 1.893-7.193-3.992-8.2-7.445-.178-.614-1.141-.352-.961.265 1.235 4.237 3.937 10.845 9.669 8.641 3.868-1.486 6.108-8.01 2.746-11.056a.24.24 0 0 0-.403.167ZM407.783 329.5c3.423.248 6.288.187 9.476 1.759 2.88 1.418 4.912 3.542 6.604 6.234.585.934 2.001.11 1.476-.862-3.129-5.804-11.017-11.316-17.636-7.426-.141.084-.071.284.08.295ZM316.915 373.516c5.052-6.752 12.152-3.936 17.227 1.259.737.756 1.933-.452 1.153-1.155-3.369-3.04-7.385-6.312-12.245-5.859-3.103.291-6.371 2.322-6.728 5.595-.04.351.429.379.593.16Z" fill="#765536"/><path d="M333.01 372.949c-1.982.576-3.06 2.894-2.624 4.843.338 1.513 2.538 4.344 4.317 3.212.329-.209.373-.627.119-.913-.424-.476-.88-.442-1.44-.718-.712-.349-1.335-1.013-1.586-1.774-.537-1.62.458-2.96 1.618-3.955.321-.276-.022-.805-.404-.695Z" fill="#765536"/><path d="M338.622 364.492c-8.154-7.241-24.127-4.977-28.171 5.697-5.861 15.468 9.708 23.563 22.645 23.487 1.23-.007 1.232-1.917 0-1.909-4.394.025-8.722-1.124-12.828-2.666-6.912-2.596-9.886-9.37-8.502-16.448 2.404-12.281 17.232-13.448 26.369-7.53.379.245.829-.327.487-.631Z" fill="#765536"/><path d="M375.799 376.484c0 7.423-6.017 13.44-13.44 13.44-7.424 0-13.44-6.017-13.44-13.44 0-7.423 6.016-13.441 13.44-13.441 7.423 0 13.44 6.018 13.44 13.441ZM431.904 366.001c-.689-1.82-3.304-5.348-3.304-5.348s-.976-1.234-1.354-1.557c-7.423 0-11.932 5.625-11.932 13.048s6.017 13.44 13.44 13.44c1.97 0 1.292.149 2.978-.613.679-1.776 4.675-9.743.172-18.97Z" fill="#F9B08A"/><path d="M334.718 334.46c1.79-14.959 9.269-22.437 10.977-24.504 0-.564-14.549-1.228-15.079-1.48l-16.057-7.652c-.807-.384-1.833-.244-2.304.605-5.815 10.482-11.741 20.22-12.212 30.168-.471 9.948-1.064 18.43 5.679 35.487.56.72 2.904 7.013 3.624 6.688 3.425-11.705 11.242-12.609 14.258-13.252 6.934-.783 13.238 2.523 13.238 2.523s-3.915-13.624-2.124-28.583Z" fill="#1A1918"/><path d="M376.759 272.252c-20.484-5.2-42.393-2.368-61.267 7.556-1.901 1.039 5.124 2.191 6.844 2.936-14.122-.628-24.03 1.616-28.67 16.812-.298.973-.72 2.091.266 1.377 4.27-1.374 10.584-.348 15.402-.472-2.212 1.092-6.006 2.372-7.843 4.475-.508.581-2.084 3.077-1.821 3.511.261.432 3.501.181 4.296.033 14.24-2.667 25.57 5.775 37.902 11.416 8.7 3.979 22.518 4.953 31.984 4.92 40.094-5.315 46.34-15.228 46.402-16.469.996-20.355-28.662-32.331-43.495-36.095Z" fill="#201E1D"/><path d="M395.435 291.207c-12.177-11.518-32.713-16.882-48.704-10.788a.318.318 0 0 0 .169.613c18.032-3.236 33.474-.78 48.384 10.371.114.085.252-.1.151-.196ZM378.406 297.595c-19.334-11.012-42.178-13.619-63.771-8.806-.504.112-.291.888.213.775 21.715-4.901 43.527-1.469 63.348 8.389.238.118.444-.225.21-.358ZM374.834 300.635c-5.388-2.844-11.607-4.683-17.73-4.72-.466-.003-.602.764-.113.842 6.132.983 11.775 2.246 17.576 4.51.365.144.609-.451.267-.632ZM370.498 311.507c-16.158-.431-29.848-5.366-43.4-13.92-.272-.172-.615.249-.351.456 12.171 9.597 28.383 14.204 43.751 13.768.196-.006.197-.3 0-.304Z" fill="#3C3C3D"/><path d="M411.167 504.655s40.472 21.574 42.135 25.172c1.661 3.598-17.467 64.441-17.467 64.441s17.435 11.642 12.305 25.892c-12.945-1.279-29.21-12.138-30.201-17.165-.991-5.028 8.219-52.235 6.345-56.498-1.872-4.261-40.048-24.274-40.048-24.274l26.931-17.568Z" fill="#1E2630"/><path d="M382.822 514.885s41.261 20.026 43.057 23.556c1.797 3.534-15.011 65.056-15.011 65.056s17.866 10.975 13.279 25.408c-12.985-.786-29.649-11.022-30.831-16.008-1.18-4.987 6.234-52.508 4.2-56.696-2.034-4.189-40.94-22.74-40.94-22.74l26.246-18.576Z" fill="#232D3D"/><path d="M400.936 431.684s-.038 20.377 29.111 81.436c-16.807 2.008-61.795 23.503-61.795 23.503s-6.681 6.76-23.74-1.314c-17.057-8.074 6.16-109.117 6.16-109.117l50.264 5.492Z" fill="#F6CC3E"/><path d="M352.168 536.879c.216-.695-.678-1.571-.938-2.176-.187-.435-.246-.883-.319-1.343-.073-.456-.249-.808-.443-1.219-.129-.276-.52-.278-.716-.093-1.073 1.016-.689 2.527-.01 3.68.234.403 2.056 2.345 2.426 1.151ZM360.03 536.847c-.186-.823-.8-1.539-1.195-2.274-.388-.722-.676-1.557-1.395-2.02-.365-.234-.797.012-.926.378-.335.938.229 1.953.725 2.722.499.776 1.145 1.638 2.064 1.922.449.137.821-.306.727-.728ZM367.974 534.921c.166-.785-.396-1.508-.826-2.116-.424-.604-.997-1.546-1.83-1.509a.568.568 0 0 0-.531.404c-.241.805.523 1.583 1.011 2.148.482.557 1.054 1.292 1.852 1.319a.34.34 0 0 0 .324-.246ZM373.939 531.688c.501-.42.324-1.341.084-1.861-.284-.615-.86-1.296-1.58-1.306-.267-.004-.545.243-.523.523.044.557.422 1.009.688 1.488.224.399.456 1.008.892 1.212a.381.381 0 0 0 .439-.056ZM381.524 528.336c.456-.992.331-2.915-1.057-3.115-.276-.038-.649.119-.612.467.085.84.685 1.548.793 2.409.05.403.658.716.876.239ZM387.864 526.603c.679-.49.402-1.518.166-2.19-.287-.814-.694-1.497-1.516-1.828-.212-.086-.447.128-.443.336.016.724.32 1.322.545 1.998.179.536.252 1.421.828 1.684.128.058.294.092.42 0ZM394.386 523.385c.24-.756-.004-1.586-.339-2.276-.383-.79-1.052-1.16-1.792-1.561-.231-.124-.555.143-.385.387.745 1.073 1.044 2.45 1.756 3.549.196.304.65.249.76-.099ZM401.23 521.927c.485-.807.004-1.982-.408-2.727-.452-.823-1.291-1.973-2.238-2.208-.398-.097-.865.279-.71.712.301.84 1.086 1.54 1.564 2.304.408.651.761 1.604 1.442 2.009a.26.26 0 0 0 .35-.09ZM406.856 518.428c.983-.359.758-1.787.472-2.547-.344-.913-1.264-2.013-2.341-1.817-.272.049-.465.405-.376.66.241.673.908 1.136 1.239 1.781.288.562.209 1.388.68 1.838.081.078.214.128.326.085ZM413.394 515.865c1.112-.982.054-3.601-1.371-3.641-.257-.008-.515.235-.497.496.038.603.457 1.131.736 1.652.26.484.394 1.084.77 1.493.099.106.263.088.362 0ZM418.991 514.467c.516-1.654-.623-3.883-2.475-4.02-.372-.026-.565.416-.406.708.326.598.844 1.092 1.23 1.654.378.55.726 1.15 1.038 1.738.141.266.532.184.613-.08ZM426.264 512.879c-.097-1.058-.482-1.738-1.185-2.535-.635-.72-1.505-1.639-2.492-1.816-.409-.075-.833.343-.576.748.485.772 1.359 1.312 1.991 1.965.321.332.606.695.925 1.03.307.321.659.534 1.013.794.128.092.339-.03.324-.186Z" fill="#D0A424"/><path d="M343.987 527.109s1.576 12.262-7.084 11.827c-8.661-.432-31.047 0-31.047 0s-4.612-15.915 19.122-20.901" fill="#FCD69D"/><path d="M329.45 529.005c-2.635-.821-5.799.746-7.858 2.319-2.436 1.863-3.646 4.205-4.721 7.007-.391 1.017 1.435 1.525 1.628.449.463-2.575 2.353-4.957 4.435-6.471 2.032-1.478 4.269-1.748 6.516-2.637.306-.121.346-.559 0-.667Z" fill="#765536"/><path d="M348.7 425.132s-8.104 2.715-13.362 27.159c-5.259 24.444-9.822 51.692-14.458 61.024-4.634 9.333 12.086 18.092 23.107 15.169 11.024-2.92 13.911-98.04 13.911-98.04l-9.198-5.312Z" fill="#C8A129"/><path d="M344.403 523.275c-.292.696-.616 1.417-1.007 2.061-.358.591-.961 1.156-1.06 1.859-.07.502.27.868.784.782.886-.148 1.471-1.132 1.815-1.884.405-.888.596-1.705.501-2.678-.061-.611-.802-.69-1.033-.14ZM339.16 524.128c-.422.368-.53 1.127-.825 1.616-.364.605-.823 1.007-1.285 1.524-.564.631.148 1.651.926 1.2.711-.412 1.291-1.236 1.611-1.983.248-.582.601-1.722.181-2.28-.156-.208-.404-.256-.608-.077ZM332.944 522.621c-.396.75-.718 1.544-.882 2.378-.13.65-.338 1.525.182 2.028.139.133.392.152.528 0 .431-.483.286-1.135.346-1.75a8.85 8.85 0 0 1 .56-2.348c.165-.424-.523-.706-.734-.308ZM327.174 520.927c-.279.584-.394 1.314-.479 1.953-.091.668-.137 1.292.163 1.911.132.274.524.229.669 0 .351-.556.377-1.188.355-1.831-.02-.635-.044-1.372-.252-1.975-.064-.182-.358-.266-.456-.058ZM322.892 515.616c-.605.841-.868 1.648-.913 2.685-.032.78-.068 1.814.632 2.291.204.139.428-.017.508-.208.268-.639-.097-1.399-.091-2.083.006-.808.17-1.69.37-2.472.081-.318-.328-.46-.506-.213Z" fill="#A17C20"/><path d="M207.351 407.033c-1.112-.318-2.215.416-3.199.872-1.274.591-2.704 1.118-3.821 1.972-.96.732-.475 2.635.905 2.151 1.362-.479 2.599-1.348 3.818-2.108.973-.605 2.262-1.141 2.625-2.308.076-.244-.091-.511-.328-.579ZM204.122 404.036c-1.272-.103-2.546.091-3.802.281-1.149.174-2.516.187-3.345 1.063-.443.468-.207 1.129.355 1.343 1.114.424 2.412-.191 3.508-.526 1.198-.365 2.408-.753 3.493-1.388.375-.218.184-.742-.209-.773ZM202.55 399.556c-1.224-.099-2.46.101-3.67.279-1.197.176-2.39.212-3.328 1.026-.554.483-.257 1.479.434 1.643 1.202.284 2.314-.265 3.446-.664 1.139-.403 2.318-.809 3.342-1.459.385-.245.208-.79-.224-.825ZM202.412 394.712c-1.264-.5-2.737-.429-4.076-.483-1.274-.05-2.492-.217-3.513.627-.476.393-.243 1.093.18 1.391 1.089.769 2.613.354 3.859.201 1.253-.155 2.526-.213 3.676-.775.449-.22.254-.81-.126-.961ZM202.468 390.684c-1.078-.68-2.504-.641-3.738-.793-1.367-.168-2.74-.547-4.026.04-.66.302-.585 1.326 0 1.649 1.214.671 2.684.369 4.026.304 1.244-.061 2.613.067 3.738-.531.266-.141.236-.521 0-.669ZM201.718 385.451a21.145 21.145 0 0 1-4.766-1.367c-1.58-.661-2.386 2.027-.721 2.616 1.801.637 3.612.76 5.487.432.826-.145.836-1.544 0-1.681ZM201.916 381.913c-1.588-1.793-5.254-3.738-7.613-2.724-.896.386-.707 1.69 0 2.127 1.021.635 2.332.463 3.492.677 1.208.223 2.363.615 3.555.891.578.135.95-.537.566-.971Z" fill="#F03F53"/><path d="M340.188 429.821c-.018.003-.034.003-.052.004l-3.2-22.841c1.072-.131 1.031-1.809-.128-1.856-26.852-1.085-49.044-15.607-73.541-24.781-10.504-3.934-21.54-6.727-32.824-6.568-5.24.073-10.561.737-15.592 2.234-1.804.538-11.397 4.199-10.985 4.998-.47-.911-1.675-.372-1.762.477-.768 7.575-.536 28.663 10.458 28.951.258.212.633.296 1.034.117 44.198-19.576 82.512 30.521 126.691 20 .401-.095.327-.78-.099-.735Z" fill="#E53343"/><path d="M311.308 410.151c-16.209 1.15-31.845-2.546-45.805-10.86-.431-.256-.813.404-.392.669 13.917 8.739 29.857 12.439 46.197 10.689.312-.034.323-.521 0-.498ZM308.29 405.04c-4.591.535-8.872-.181-13.296-1.388-.294-.079-.506.371-.212.507 4.258 1.978 9.002 2.181 13.57 1.344.258-.047.202-.492-.062-.463ZM233.299 380.396c-10.173-.568-20.307 1.44-29.129 6.664-.355.211-.043.733.321.549 9.168-4.622 18.485-7.125 28.808-6.77.287.009.284-.427 0-.443Z" fill="#A9252D"/><path d="M411.34 404.991c-.141-.42-.548-.814-1.026-.782-5.627.392-11.002 2.99-16.884 3.262-6.971.321-13.935-.472-20.796-1.642-11.428-1.948-22.635-4.825-34.195-5.914-.367-.271-.892-.316-1.292.08l-.141.141a.913.913 0 0 0-.252.94c-1.944 8.984-3.127 24.647 5.07 30.719.099.394.398.744.914.78 22.652-2.419 57.149 10.009 65.844 1.161.841-.028 1.166-.827.974-1.441 4.216-8.552 4.815-18.226 1.784-27.304Z" fill="#F03F53"/><path d="M404.95 410.724c-16.474 5.047-32.615 3.724-47.915-4.18-.504-.26-.933.464-.447.767 14.407 8.934 32.935 10.402 48.479 3.692.159-.07.045-.328-.117-.279Z" fill="#E63040"/><path d="M406.49 415.007c-9.903 3.381-19.152 3.574-29.407 2.185-.497-.068-.723.612-.215.773 9.756 3.088 20.615 1.7 29.846-2.426.298-.135.086-.639-.224-.532Z" fill="#E63040"/></g><defs><clipPath id="clip0_127_3"><path fill="#fff" d="M0 0h666.667v666.667H0z"/></clipPath></defs></svg>