<svg width="1000" height="1000" fill="none" xmlns="http://www.w3.org/2000/svg"><g clip-path="url('#clip0_147_1098')"><g clip-path="url('#clip1_147_1098')"><mask id="mask0_147_1098" style="mask-type:luminance" maskUnits="userSpaceOnUse" x="336" y="6" width="667" height="783"><path d="M336.81 788.973h665.58V6.32H336.81v782.653Z" fill="#fff"/></mask><g mask="url('#mask0_147_1098')"><path d="m614.045 271.173-75.25-54.066c-9.585-6.88-12.604-19.8-7.065-30.214 5.613-10.573 18.243-15.253 29.387-10.92l115.645 45.054-62.717 50.146Z" fill="#F78E62"/><path d="M1044.09 541.507 792.486 308.72l-165.63-120.707-52.372 166.36 116.783 42.52 303.16 338.094 49.663-193.48Z" fill="#F78E62"/><path d="M706.742 245.533 704.747 221l57.933-7.587-3.728-15.133c-26.178 4.373-44.082 1.8-56.326-3.347-22.621-9.506-25.864-27.866-25.864-27.866L409.845 73.04 383.476 18l-34.193 97.067 203.535 71.693s-19.944 61.613 69.299 93.053c0 0 69.636 42.12 44.177 119.387l87.676 30.894s60.624-136.001-47.228-184.561Z" fill="#113C4A"/><path d="m792.485 308.72-27.031-46.093-131.409-55.014c-11.39 27.214-2.729 58.694 20.979 76.24l57.017 42.214s21.91 68.853 60.369 85.693l20.075-103.04Z" fill="#F78E62"/><path d="m1165.04 777.387-84.51-8.094-94.983-9.08-63.213-71.493-185.303-209.533 107.031-126.294L1063.64 522.12l101.73-1.987-.33 257.254Z" fill="#CCC"/><path d="m682.392 228.44-8.512 20.333s-38.262-10.706-25.976-35.36l34.488 15.027Z" fill="#F1754D"/><path d="m1080.53 769.293-94.983-9.08-63.213-71.493c25.107-22.16 61.12-30.427 94.916-18.52 42.2 14.867 67.4 56.453 63.28 99.093Z" fill="#A0563E"/></g></g></g><defs><clipPath id="clip0_147_1098"><path fill="#fff" d="M0 0h1000v1000H0z"/></clipPath><clipPath id="clip1_147_1098"><path fill="#fff" transform="translate(-438 -280)" d="M0 0h6405.81v2560H0z"/></clipPath></defs></svg>