<svg width="463" height="421" viewBox="0 0 463 421" fill="none" xmlns="http://www.w3.org/2000/svg">
<g clip-path="url('#clip0_133_210')">
<g clip-path="url('#clip1_133_210')">
<path d="M225.511 409.564C186.484 406.848 108.714 380.755 109.71 281.171L120.664 299.096C120.664 299.096 104.731 262.251 121.66 201.505L128.63 222.814C128.63 222.814 125.643 189.057 142.572 164.41C142.572 164.41 144.564 182.584 162.489 171.63C180.414 160.676 186.389 119.846 158.505 117.855C158.505 117.855 184.397 105.905 193.36 128.809C202.322 151.713 226.222 93.9548 199.335 69.059C199.335 69.059 231.153 80.1506 237.176 108.394C237.176 108.394 250.837 65.0756 228.074 42.1715C228.074 42.1715 271.031 53.6773 278.507 133.788C278.507 133.788 287.964 122.834 285.972 108.394C285.972 108.394 316.972 153.705 313.423 193.538C309.872 233.371 341.739 221.421 334.768 196.526C334.768 196.526 352.703 243.33 335.77 291.13C335.77 291.13 350.701 285.246 353.689 266.778C353.689 266.778 353.263 418.459 225.511 409.564Z" fill="#EF3D36"></path>
<path d="M225.511 409.564C198.988 409.564 151.804 392.705 151.804 343.909C151.804 295.113 142.572 284.159 142.572 284.159C142.572 284.159 157.958 283.163 162.061 301.088C166.164 319.013 189.757 294.209 161.035 266.778C132.315 239.346 173.565 199.513 173.565 199.513C173.565 199.513 168.215 214.249 179.5 222.814C190.783 231.38 218.477 188.559 196.937 171.63C196.937 171.63 224.519 173.866 225.511 204.492C225.511 204.492 253.062 141.181 225.511 124.041C225.511 124.041 258.479 131.796 270.788 204.492C270.788 204.492 279.597 191.272 270.788 180.592C270.788 180.592 293.355 208.476 286.175 242.334C278.993 276.192 305.664 277.188 306.69 254.284C306.69 254.284 319.484 277.16 297.458 312.759C275.43 348.358 305.875 352.871 310.384 321.005C310.384 321.005 338.198 409.564 225.511 409.564Z" fill="#F68A2D"></path>
<path d="M228.238 404.696C228.238 404.696 157.749 378.709 183.17 329.089C208.592 279.466 192.322 248.504 192.322 248.504C192.322 248.504 228.238 259.167 224.77 305.406C224.77 305.406 245.569 252.4 206.282 220.822C206.282 220.822 264.06 245.68 276.771 312.759C289.482 379.839 228.238 404.696 228.238 404.696Z" fill="#F9EA26"></path>
<path d="M123.403 172.347C123.403 172.347 114.108 155.75 127.386 145.126C140.663 134.505 123.813 115.251 123.813 115.251C123.813 115.251 150.201 122.28 145.311 143.8C141.991 158.405 128.049 149.775 123.403 172.347Z" fill="#EF3D36"></path>
<path d="M186.684 98.864C186.684 98.864 165.441 92.1382 170.75 71.6021C176.062 51.064 169.898 42.1713 169.898 42.1713C169.898 42.1713 190.004 54.2965 186.684 71.6021C183.366 88.9057 186.684 98.864 186.684 98.864Z" fill="#EF3D36"></path>
<path d="M323.446 175.876C323.446 175.876 335.396 165.254 326.766 152.639C318.134 140.026 312.824 130.068 323.446 119.446C323.446 119.446 319.462 129.647 332.741 143.8C346.017 157.951 342.699 171.229 323.446 175.876Z" fill="#EF3D36"></path>
</g>
</g>
<defs>
<clipPath id="clip0_133_210">
<rect width="463" height="421" fill="white"></rect>
</clipPath>
<clipPath id="clip1_133_210">
<rect width="1066.67" height="1066.67" fill="white" transform="translate(-317 -413)"></rect>
</clipPath>
</defs>
</svg>
