<svg width="463" height="421" fill="none" xmlns="http://www.w3.org/2000/svg"><g clip-path="url('#clip0_133_210')"><g clip-path="url('#clip1_133_210')"><path d="M225.511 409.564c-39.027-2.716-116.797-28.809-115.801-128.393l10.954 17.925s-15.933-36.845.996-97.591l6.97 21.309s-2.987-33.757 13.942-58.404c0 0 1.992 18.174 19.917 7.22s23.9-51.784-3.984-53.775c0 0 25.892-11.95 34.855 10.954 8.962 22.904 32.862-34.854 5.975-59.75 0 0 31.818 11.092 37.841 39.335 0 0 13.661-43.318-9.102-66.222 0 0 42.957 11.505 50.433 91.616 0 0 9.457-10.954 7.465-25.394 0 0 31 45.311 27.451 85.144-3.551 39.833 28.316 27.883 21.345 2.988 0 0 17.935 46.804 1.002 94.604 0 0 14.931-5.884 17.919-24.352 0 0-.426 151.681-128.178 142.786Z" fill="#EF3D36"/><path d="M225.511 409.564c-26.523 0-73.707-16.859-73.707-65.655s-9.232-59.75-9.232-59.75 15.386-.996 19.489 16.929c4.103 17.925 27.696-6.879-1.026-34.31-28.72-27.432 12.53-67.265 12.53-67.265s-5.35 14.736 5.935 23.301c11.283 8.566 38.977-34.255 17.437-51.184 0 0 27.582 2.236 28.574 32.862 0 0 27.551-63.311 0-80.451 0 0 32.968 7.755 45.277 80.451 0 0 8.809-13.22 0-23.9 0 0 22.567 27.884 15.387 61.742-7.182 33.858 19.489 34.854 20.515 11.95 0 0 12.794 22.876-9.232 58.475-22.028 35.599 8.417 40.112 12.926 8.246 0 0 27.814 88.559-84.873 88.559Z" fill="#F68A2D"/><path d="M228.238 404.696s-70.489-25.987-45.068-75.607c25.422-49.623 9.152-80.585 9.152-80.585s35.916 10.663 32.448 56.902c0 0 20.799-53.006-18.488-84.584 0 0 57.778 24.858 70.489 91.937 12.711 67.08-48.533 91.937-48.533 91.937Z" fill="#F9EA26"/><path d="M123.403 172.347s-9.295-16.597 3.983-27.221c13.277-10.621-3.573-29.875-3.573-29.875s26.388 7.029 21.498 28.549c-3.32 14.605-17.262 5.975-21.908 28.547ZM186.684 98.864s-21.243-6.726-15.934-27.262c5.312-20.538-.852-29.43-.852-29.43s20.106 12.125 16.786 29.43c-3.318 17.304 0 27.262 0 27.262ZM323.446 175.876s11.95-10.622 3.32-23.237c-8.632-12.613-13.942-22.571-3.32-33.193 0 0-3.984 10.201 9.295 24.354 13.276 14.151 9.958 27.429-9.295 32.076Z" fill="#EF3D36"/></g></g><defs><clipPath id="clip0_133_210"><path fill="#fff" d="M0 0h463v421H0z"/></clipPath><clipPath id="clip1_133_210"><path fill="#fff" transform="translate(-317 -413)" d="M0 0h1066.67v1066.67H0z"/></clipPath></defs></svg>