<svg xmlns="http://www.w3.org/2000/svg" xmlns:xlink="http://www.w3.org/1999/xlink" viewBox="0 0 500 500" style="enable-background:new 0 0 500 500" xml:space="preserve"><path style="fill:none" d="M0 0h500v500H0z" id="BACKGROUND"/><g id="OBJECTS"><path style="fill:#e8dedc" d="M39.085 452.767c4.531 6.397 31.282 9.57 44.475 10.209a2050.333 2050.333 0 0 0 167.247 1.242c29.694-.99 99.393 8.569 183.912-4.905 6.798-1.084 45.752-13.397 15.436-17.751-55.561-7.979-135.688-8.835-256.317-9.931-6.231-.057-33.166 1.69-63.769 4.084-23.434 1.834-99.03 5.692-90.984 17.052z"/><path style="fill:#707070" d="M287.652 143.951V121.64h-66.2c-6.161 0-11.155 4.994-11.155 11.155s4.994 11.155 11.155 11.155h66.2z"/><path style="fill:#999" d="M228.922 121.582h42.066c-6.161 0-11.155 4.994-11.155 11.155s4.995 11.155 11.155 11.155h-42.067c-6.161 0-11.155-4.994-11.155-11.155.001-6.161 4.995-11.155 11.156-11.155z"/><path style="fill:#e6e9ec" d="M366.388 141.247v2.703H221.452a11.1 11.1 0 0 1-7.267-2.703h152.203z"/><defs><path id="SVGID_1_" d="M366.388 143.951V121.64h-85.72c-6.161 0-11.155 4.994-11.155 11.155s4.994 11.155 11.155 11.155h85.72z"/></defs><use xlink:href="#SVGID_1_" style="fill:#707070;overflow:visible"/><clipPath id="SVGID_00000097475643517682580750000015398391169631992462_"><use xlink:href="#SVGID_1_" style="overflow:visible"/></clipPath><path style="-webkit-clip-path:url(#SVGID_00000097475643517682580750000015398391169631992462_);clip-path:url(#SVGID_00000097475643517682580750000015398391169631992462_);fill:#8a8a8a" d="M366.388 143.951V121.64h-85.72c-6.161 0-11.155 4.994-11.155 11.155s4.994 11.155 11.155 11.155h85.72z"/><defs><path id="SVGID_00000176759786141840347700000006965784356821153688_" d="M366.413 124.13h-85.014a8.607 8.607 0 0 0 0 17.214h85.014V124.13z"/></defs><clipPath id="SVGID_00000118387952652916540860000004355362064720136332_"><use xlink:href="#SVGID_00000176759786141840347700000006965784356821153688_" style="overflow:visible"/></clipPath><path style="-webkit-clip-path:url(#SVGID_00000118387952652916540860000004355362064720136332_);clip-path:url(#SVGID_00000118387952652916540860000004355362064720136332_);fill:#f1e7db" d="M272.791 124.13h93.622v17.215h-93.622z"/><path style="-webkit-clip-path:url(#SVGID_00000118387952652916540860000004355362064720136332_);clip-path:url(#SVGID_00000118387952652916540860000004355362064720136332_);fill:#e6d9ca" d="M272.791 124.13h93.622v4.56h-93.622z"/><path style="-webkit-clip-path:url(#SVGID_00000118387952652916540860000004355362064720136332_);clip-path:url(#SVGID_00000118387952652916540860000004355362064720136332_);fill:#39354f" d="M273.193 143.131h-1.791v-20.787h1.977c3.506 6.465 3.582 14.687-.186 20.787z"/><path style="fill:#d9a524" d="M340.91 276.092H196.814a5.47 5.47 0 0 0-5.469 5.469v28.782a5.47 5.47 0 0 0 5.469 5.469H340.91v-39.72z"/><path style="fill:#ffe7d9" d="M340.91 279.89v-3.798H196.814a5.47 5.47 0 0 0-5.207 3.798H340.91z"/><path style="fill:#d58300" d="M414.064 276.095v5.146h-13.29v29.315h13.29v5.257h-75.879a5.47 5.47 0 0 1-5.469-5.469v-28.779a5.47 5.47 0 0 1 5.469-5.469h75.879z"/><path style="fill:#f1e7db" d="M337.81 281.241h72.114v29.315H337.81z"/><path style="fill:#e6d9ca" d="M337.81 281.241h72.114v9.367H337.81z"/><path style="fill:#39354f" d="M337.81 281.562c1.475.411 5.085 3.722 5.085 14.337 0 11.953-5.085 14.657-5.085 14.657v-28.994z"/><path style="fill:none" d="M409.924 310.556h-69.949a2.165 2.165 0 0 1-2.165-2.165v-24.984c0-1.196.969-2.165 2.165-2.165h69.949v29.314z"/><path style="fill:#d58300" d="M203.84 285.925h117.389v20.923H203.84z"/><path style="fill:#76b2d2" d="M196.664 171.812h126.984c1.233 0 2.232.999 2.232 2.232v20.903a2.232 2.232 0 0 1-2.232 2.232H196.664v-25.367z"/><path transform="rotate(-180 263.972 183.82)" style="fill:#95cceb" d="M210.611 177.002h106.722v13.638H210.611z"/><path style="fill:#679ab6" d="M145.999 171.813v1.97h30.979v21.37h-30.979v2.027h51.58a3.297 3.297 0 0 0 3.297-3.297v-18.771a3.297 3.297 0 0 0-3.297-3.297h-51.58z"/><path transform="rotate(-180 173.192 184.468)" style="fill:#f1e7db" d="M148.126 173.783h50.131v21.37h-50.131z"/><path transform="rotate(-180 173.192 188.684)" style="fill:#e6d9ca" d="M148.126 186.093h50.131v5.182h-50.131z"/><path style="fill:#3a3752" d="M198.257 173.948c-.861 1.216-2.293 2.399-2.293 9.57 0 7.567 1.57 10.872 1.951 11.635h.342v-21.205z"/><path style="fill:none" d="M148.126 195.153h49.018c.615 0 1.113-.498 1.113-1.113v-19.144c0-.615-.498-1.113-1.113-1.113h-49.018v21.37z"/><path style="fill:#ececec" d="M145.999 173.947h179.872a2.228 2.228 0 0 0-2.223-2.136H196.664v.002h-50.665v2.134z"/><path style="fill:#76b2d2" d="M305.487 89.214h-103.17a2.232 2.232 0 0 0-2.232 2.232v27.903c0 1.233.999 2.233 2.232 2.233h103.17V89.214z"/><path style="fill:#95cceb" d="M208.631 94.404h82.908v20.638h-82.908z"/><path style="fill:#679ab6" d="M356.152 89.215v1.97h-30.979v28.37h30.979v2.027h-51.58a3.297 3.297 0 0 1-3.297-3.297V92.513a3.297 3.297 0 0 1 3.297-3.297h51.58z"/><path style="fill:#f1e7db" d="M303.893 91.185h50.131v28.37h-50.131z"/><path style="fill:#e6d9ca" d="M303.893 91.185h50.131v5.182h-50.131z"/><path style="fill:#3a3752" d="M303.893 91.35c.861 1.216 3.293 7.399 3.293 14.57 0 7.567-2.57 12.872-2.951 13.635h-.342V91.35z"/><path style="fill:none" d="M354.024 119.555h-49.018a1.113 1.113 0 0 1-1.113-1.113V92.298c0-.615.498-1.113 1.113-1.113h49.018v28.37z"/><path style="fill:#ececec" d="M356.152 91.35H200.094a2.228 2.228 0 0 1 2.223-2.136h103.17v.002h50.665v2.134z"/><path style="fill:#7ab4bf" d="M323.385 387.837v-34.552H220.861c-9.541 0-17.276 7.735-17.276 17.276s7.735 17.276 17.276 17.276h102.524z"/><path style="fill:#b3d9e1" d="M227.784 353.285h74.029c-9.541 0-17.276 7.735-17.276 17.276s7.735 17.276 17.276 17.276h-74.029c-9.541 0-17.276-7.735-17.276-17.276s7.735-17.276 17.276-17.276z"/><path style="fill:#e6e9ec" d="M390.78 357.471v-4.186H228.283l89.503 4.186z"/><defs><path id="SVGID_00000032610729386832253810000005883008749310872238_" d="M390.78 387.837v-34.552h-78.21c-9.541 0-17.276 7.735-17.276 17.276s7.735 17.276 17.276 17.276h78.21z"/></defs><clipPath id="SVGID_00000016798098522986582040000009001042636325340553_"><use xlink:href="#SVGID_00000032610729386832253810000005883008749310872238_" style="overflow:visible"/></clipPath><path style="-webkit-clip-path:url(#SVGID_00000016798098522986582040000009001042636325340553_);clip-path:url(#SVGID_00000016798098522986582040000009001042636325340553_);fill:#6a9ca6" d="M390.78 387.837v-34.552h-78.21c-9.541 0-17.276 7.735-17.276 17.276s7.735 17.276 17.276 17.276h78.21z"/><defs><path id="SVGID_00000160880183200508917650000001108578088886500498_" d="M390.818 357.141H313.7c-7.362 0-13.33 5.968-13.33 13.33s5.968 13.33 13.33 13.33h77.118v-26.66z"/></defs><clipPath id="SVGID_00000116233654342816212420000007389746860304099493_"><use xlink:href="#SVGID_00000160880183200508917650000001108578088886500498_" style="overflow:visible"/></clipPath><path style="-webkit-clip-path:url(#SVGID_00000116233654342816212420000007389746860304099493_);clip-path:url(#SVGID_00000116233654342816212420000007389746860304099493_);fill:#f1e7db" d="M300.37 357.141h90.448v26.66H300.37z"/><path style="opacity:.76;-webkit-clip-path:url(#SVGID_00000116233654342816212420000007389746860304099493_);clip-path:url(#SVGID_00000116233654342816212420000007389746860304099493_);fill:#d6cabc" d="M300.37 355.378h90.448v7.328H300.37z"/><path style="-webkit-clip-path:url(#SVGID_00000116233654342816212420000007389746860304099493_);clip-path:url(#SVGID_00000116233654342816212420000007389746860304099493_);fill:#3a3752" d="M300.993 386.568h-2.774v-32.193h3.062c5.429 10.012 5.548 22.746-.288 32.193z"/><path style="fill:#675fa9" d="M299.621 448.811V412.25H190.917a7.865 7.865 0 0 0-7.865 7.865v20.83a7.865 7.865 0 0 0 7.865 7.865h108.704z"/><path style="fill:#4b4679" d="M205.061 412.25h9.645a8.882 8.882 0 0 0-8.882 8.882v18.796a8.882 8.882 0 0 0 8.882 8.882h-9.645c-5.485 0-9.931-4.446-9.931-9.931V422.18c.001-5.484 4.447-9.93 9.931-9.93zM270.748 412.25h9.645a8.882 8.882 0 0 0-8.882 8.882v18.796a8.882 8.882 0 0 0 8.882 8.882h-9.645c-5.485 0-9.931-4.446-9.931-9.931V422.18c0-5.484 4.446-9.93 9.931-9.93z"/><defs><path id="SVGID_00000013889639024462164270000013389263684085528979_" d="M421.234 448.811V412.25H296.323c-5.512 0-9.981 4.469-9.981 9.981v16.599c0 5.512 4.469 9.981 9.981 9.981h124.911z"/></defs><clipPath id="SVGID_00000044167832826298611300000001761361237906410390_"><use xlink:href="#SVGID_00000013889639024462164270000013389263684085528979_" style="overflow:visible"/></clipPath><path transform="rotate(90 353.788 430.53)" style="-webkit-clip-path:url(#SVGID_00000044167832826298611300000001761361237906410390_);clip-path:url(#SVGID_00000044167832826298611300000001761361237906410390_);fill:#8077c7" d="M335.508 363.084h36.561v134.892h-36.561z"/><defs><path id="SVGID_00000089558466706488376820000012263135738372944283_" d="M421.279 417.081H298.681a6.682 6.682 0 0 0-6.682 6.682v14.049a6.682 6.682 0 0 0 6.682 6.682h122.598v-27.413z"/></defs><clipPath id="SVGID_00000085209961475168510480000004539168498567850677_"><use xlink:href="#SVGID_00000089558466706488376820000012263135738372944283_" style="overflow:visible"/></clipPath><path style="-webkit-clip-path:url(#SVGID_00000085209961475168510480000004539168498567850677_);clip-path:url(#SVGID_00000085209961475168510480000004539168498567850677_);fill:#f1e7db" d="M291.998 417.081h129.28v27.414h-129.28z"/><path style="opacity:.76;-webkit-clip-path:url(#SVGID_00000085209961475168510480000004539168498567850677_);clip-path:url(#SVGID_00000085209961475168510480000004539168498567850677_);fill:#d6cabc" d="M291.998 416.518h129.28v8.836h-129.28z"/><path style="-webkit-clip-path:url(#SVGID_00000085209961475168510480000004539168498567850677_);clip-path:url(#SVGID_00000085209961475168510480000004539168498567850677_);fill:#3a3752" d="M290.989 417.082v27.414s6.527-3.53 6.527-15.989c-.001-11.347-6.527-11.425-6.527-11.425z"/><path style="fill:#e6e0ec" d="M190.917 412.25H421.233v3.83H184.175a7.85 7.85 0 0 1 6.742-3.83zM421.234 445.228v3.582H190.917a7.853 7.853 0 0 1-6.591-3.582h236.908z"/><path style="fill:#db902e" d="M278.118 143.951v27.888h-82.919a6 6 0 0 1-5.999-5.999v-15.89a5.999 5.999 0 0 1 5.999-5.999h82.919z"/><path style="fill:#e3b84c" d="M205.811 171.839h46.499a6.775 6.775 0 0 1-6.775-6.775v-14.338a6.775 6.775 0 0 1 6.775-6.775h-46.499a7.574 7.574 0 0 0-7.575 7.575v12.738a7.576 7.576 0 0 0 7.575 7.575z"/><defs><path id="SVGID_00000049909188786959758900000011533223503254448794_" d="M351.309 143.951v27.888h-75.707a7.613 7.613 0 0 1-7.613-7.613v-12.661a7.613 7.613 0 0 1 7.613-7.613h75.707z"/></defs><clipPath id="SVGID_00000029737392832811560760000016889044910344956289_"><use xlink:href="#SVGID_00000049909188786959758900000011533223503254448794_" style="overflow:visible"/></clipPath><path transform="rotate(-90 309.649 157.895)" style="-webkit-clip-path:url(#SVGID_00000029737392832811560760000016889044910344956289_);clip-path:url(#SVGID_00000029737392832811560760000016889044910344956289_);fill:#e3b84c" d="M295.705 116.235h27.888v83.32h-27.888z"/><defs><path id="SVGID_00000028290431474876770800000010218963211517351066_" d="M351.343 168.153H277.4a5.097 5.097 0 0 1-5.097-5.097V152.34a5.097 5.097 0 0 1 5.097-5.097h73.942v20.91z"/></defs><clipPath id="SVGID_00000039115247633314488510000008026801851049560767_"><use xlink:href="#SVGID_00000028290431474876770800000010218963211517351066_" style="overflow:visible"/></clipPath><path style="-webkit-clip-path:url(#SVGID_00000039115247633314488510000008026801851049560767_);clip-path:url(#SVGID_00000039115247633314488510000008026801851049560767_);fill:#f1e7db" d="M272.303 147.242h79.04v20.911h-79.04z"/><path style="opacity:.76;-webkit-clip-path:url(#SVGID_00000039115247633314488510000008026801851049560767_);clip-path:url(#SVGID_00000039115247633314488510000008026801851049560767_);fill:#d6cabc" d="M272.303 147.242h79.04v6.74h-79.04z"/><path style="-webkit-clip-path:url(#SVGID_00000039115247633314488510000008026801851049560767_);clip-path:url(#SVGID_00000039115247633314488510000008026801851049560767_);fill:#3a3752" d="M271.533 168.153v-20.911s5.867.001 4.979 12.197c-.63 8.631-4.979 8.714-4.979 8.714z"/><path style="fill:#64704d" d="M273.102 412.61v-24.772h73.505c6.841 0 12.386 5.546 12.386 12.386 0 6.841-5.546 12.386-12.386 12.386h-73.505z"/><path style="fill:#808f62" d="M339.134 387.837h-7.589c6.841 0 12.386 5.545 12.386 12.386 0 6.841-5.546 12.386-12.386 12.386h7.589c6.841 0 12.386-5.545 12.386-12.386 0-6.84-5.545-12.386-12.386-12.386zM298.979 387.837h-7.589c6.841 0 12.386 5.545 12.386 12.386 0 6.841-5.546 12.386-12.386 12.386h7.589c6.841 0 12.386-5.545 12.386-12.386 0-6.84-5.546-12.386-12.386-12.386z"/><path style="fill:#e6e9ec" d="M176.521 390.839v-3.002h164.766l-64.171 3.002z"/><defs><path id="SVGID_00000034083711717391285100000008402726736463963021_" d="M176.521 412.61v-24.772h104.335c6.841 0 12.386 5.546 12.386 12.386 0 6.841-5.546 12.386-12.386 12.386H176.521z"/></defs><clipPath id="SVGID_00000049205217799210204290000006885696043153968566_"><use xlink:href="#SVGID_00000034083711717391285100000008402726736463963021_" style="overflow:visible"/></clipPath><path style="-webkit-clip-path:url(#SVGID_00000049205217799210204290000006885696043153968566_);clip-path:url(#SVGID_00000049205217799210204290000006885696043153968566_);fill:#808f62" d="M176.521 412.61v-24.772h104.335c6.841 0 12.386 5.546 12.386 12.386 0 6.841-5.546 12.386-12.386 12.386H176.521z"/><defs><path id="SVGID_00000150817782727052087730000017432030436449999027_" d="M176.494 390.602h103.552a9.557 9.557 0 0 1 0 19.114H176.494v-19.114z"/></defs><clipPath id="SVGID_00000168827831108355065360000010268554001205585325_"><use xlink:href="#SVGID_00000150817782727052087730000017432030436449999027_" style="overflow:visible"/></clipPath><path transform="rotate(-180 233.048 400.159)" style="-webkit-clip-path:url(#SVGID_00000168827831108355065360000010268554001205585325_);clip-path:url(#SVGID_00000168827831108355065360000010268554001205585325_);fill:#f1e7db" d="M176.494 390.602h113.109v19.114H176.494z"/><path transform="rotate(-180 233.048 392.055)" style="-webkit-clip-path:url(#SVGID_00000168827831108355065360000010268554001205585325_);clip-path:url(#SVGID_00000168827831108355065360000010268554001205585325_);fill:#ece6e8" d="M176.494 389.943h113.109v4.226H176.494z"/><path style="-webkit-clip-path:url(#SVGID_00000168827831108355065360000010268554001205585325_);clip-path:url(#SVGID_00000168827831108355065360000010268554001205585325_);fill:#3a3752" d="M289.156 411.7h1.989v-23.081h-2.195c-3.893 7.178-3.978 16.308.206 23.081z"/><path transform="rotate(-180 323.921 334.534)" style="fill:#9f6a64" d="M242.926 315.782h161.99v37.504h-161.99z"/><path style="fill:#d8d3d9" d="M242.926 348.602h161.99v4.662c0 .012-.01.021-.021.021H242.926v-4.683z"/><path style="fill:#e6e9ec" d="M242.926 315.782h161.99v2.327a.015.015 0 0 1-.015.015H242.926v-2.342z"/><path style="fill:#c9a39f" d="M252.827 339.747V329.32a5.755 5.755 0 0 0 5.755-5.754H390.39a5.754 5.754 0 0 0 5.754 5.754v10.427a5.754 5.754 0 0 0-5.754 5.754H258.582a5.755 5.755 0 0 0-5.755-5.754z"/><path transform="rotate(-180 258.237 214.012)" style="fill:#cf423d" d="M168.484 197.179h179.505v33.665H168.484z"/><path style="fill:#ab3632" d="M193.175 197.41h26.366v33.434h-26.366zM298.64 197.41h26.366v33.434H298.64z"/><path style="fill:#d8d3d9" d="M347.989 197.179v2.641c0 .007-.01.012-.023.012H168.484v-2.653"/><path transform="rotate(-180 265.14 253.502)" style="fill:#f1e7db" d="M162.624 230.844h205.034v45.316H162.624z"/><path transform="rotate(-180 265.14 241.489)" style="fill:#e6d9ca" d="M162.624 235.581h205.034v11.815H162.624z"/><path transform="rotate(-180 265.14 273.825)" style="fill:#675fa9" d="M158.169 271.491h213.943v4.669H158.169z"/><path transform="rotate(-180 265.14 233.178)" style="fill:#675fa9" d="M158.169 230.844h213.943v4.669H158.169z"/><path transform="rotate(-180 265.14 232.26)" style="fill:#e6e0ec" d="M158.169 230.844h213.943v2.832H158.169z"/><path style="fill:#e66443" d="M307.757 89.723V64.121h-75.966c-7.07 0-12.801 5.731-12.801 12.801s5.731 12.801 12.801 12.801h75.966z"/><path style="fill:#e6e9ec" d="M383.532 86.621v3.102h-151.74a12.736 12.736 0 0 1-8.339-3.102h160.079zM383.532 67.223v-3.102H237.291l66.318 3.102z"/><defs><path id="SVGID_00000183927931009060351430000016460199527376124080_" d="M383.532 89.723V64.121h-83.787c-7.07 0-12.801 5.731-12.801 12.801s5.731 12.801 12.801 12.801h83.787z"/></defs><clipPath id="SVGID_00000070816466423580824920000007440743165185209241_"><use xlink:href="#SVGID_00000183927931009060351430000016460199527376124080_" style="overflow:visible"/></clipPath><path style="-webkit-clip-path:url(#SVGID_00000070816466423580824920000007440743165185209241_);clip-path:url(#SVGID_00000070816466423580824920000007440743165185209241_);fill:#bd5136" d="M383.532 89.723V64.121h-83.787c-7.07 0-12.801 5.731-12.801 12.801s5.731 12.801 12.801 12.801h83.787z"/><defs><path id="SVGID_00000128474719886557315200000013067916563851037827_" d="M383.559 66.978h-82.978c-5.455 0-9.877 4.422-9.877 9.877 0 5.455 4.422 9.877 9.877 9.877h82.978V66.978z"/></defs><clipPath id="SVGID_00000128476277187219764350000004932173772751213448_"><use xlink:href="#SVGID_00000128474719886557315200000013067916563851037827_" style="overflow:visible"/></clipPath><path style="-webkit-clip-path:url(#SVGID_00000128476277187219764350000004932173772751213448_);clip-path:url(#SVGID_00000128476277187219764350000004932173772751213448_);fill:#f1e7db" d="M290.704 66.978h92.855v19.754h-92.855z"/><path style="-webkit-clip-path:url(#SVGID_00000128476277187219764350000004932173772751213448_);clip-path:url(#SVGID_00000128476277187219764350000004932173772751213448_);fill:#e6d9ca" d="M290.704 66.978h92.855v3.635h-92.855z"/><path style="-webkit-clip-path:url(#SVGID_00000128476277187219764350000004932173772751213448_);clip-path:url(#SVGID_00000128476277187219764350000004932173772751213448_);fill:#39354f" d="M291.166 88.782h-2.055V64.928h2.269c4.022 7.419 4.11 16.854-.214 23.854z"/><path style="fill:#716e80" d="M126.206 449.085h-4.91L93.76 281.589h4.91zM173.08 449.085h-4.911l-27.536-167.496h4.911z"/><path style="fill:#716e80" d="M167.468 414.948h-51.784l-1.002-6.092h51.784zM160.011 369.592h-51.784l-1.001-6.092h51.784zM152.555 324.237h-51.784l-1.001-6.093h51.783zM146.045 284.635H94.261l-1.67-10.155h51.784z"/><path style="fill:#9d9ba7" d="M100.389 449.085h4.911l27.536-167.496h-4.911zM53.516 449.085h4.91l27.536-167.496h-4.91z"/><path style="fill:#9d9ba7" d="M59.128 414.948h51.784l1.001-6.092H60.129zM66.584 369.592h51.784l1.002-6.092H67.586zM74.04 324.237h51.784l1.002-6.093H75.042z"/><path style="fill:#716e80" d="M80.551 284.635h51.784l1.669-10.155H82.22z"/><linearGradient id="SVGID_00000017508006590608971480000001111192667868050849_" gradientUnits="userSpaceOnUse" x1="87.802" y1="297.814" x2="89.617" y2="275.31" gradientTransform="matrix(-1 0 0 1 202.888 0)"><stop offset="0" style="stop-color:#5b595d"/><stop offset="1" style="stop-color:#6b637d"/></linearGradient><path style="fill:url(#SVGID_00000017508006590608971480000001111192667868050849_)" d="M81.361 279.558h63.846v-8.196H81.361z"/><path style="fill:#73283a" d="M156.971 420.537c1.511 3.047 2.159 7.544.78 10.351-1.379 2.807-8.974 1.383-12.622-3.37-3.648-4.754-.951-7.917.465-9.593 1.417-1.677 8.504-3.183 11.377 2.612z"/><path style="fill:#eaad96" d="M164.623 398.977c-2.9-.922-5.658-2.16-8.383-3.474a171.783 171.783 0 0 0-2.729 4.825c-5.089 9.397-13.006 27.174-17.752 32.408-2.854 3.147-8.324 9.83-11.022 10.926-2.707 1.106-7.876 1.891-6.872 2.716 1.996 1.641 9.809.497 12.516.132 2.707-.365 5.995.93 7.886-.53 1.891-1.472-.423-3.304 1.637-6.749 4.606-7.703 17.401-19.467 21.956-24.795 3.533-4.133 7.262-9.784 9.823-13.891a41.925 41.925 0 0 1-7.06-1.568z"/><path style="fill:#a33953" d="M216.921 354.872c11.06-4.743 20.841 1.326 20.841 8.538 0 14.364-19.786 26.627-27.376 26.725-17.323.224-28.226 6.486-30.015 7.504s-22.62 33.249-22.62 33.249c.274.08-3.943.195-7.678-2.189-3.698-2.361-6.261-3.828-8.966-6.426 0 0 20.626-36.679 22.66-40.899 2.034-4.22 12.128-8.866 19.706-12.194 11.193-4.916 26.281-11.234 33.448-14.308z"/><path id="XMLID_54_" style="fill:#583834" d="M234.498 259.153c1.386.871-4.156 3.495-4.625 5.321-.468 1.826-1.631 5.482-3.161 11.019-1.767 6.395 10.7 9.309 2.865 19.68 0 0-9.256 5.854-12.64 5.668 0 0-6.776-7.309 1.765-17.387 2.534-2.99 0-16.076 4.607-21.435 3.489-4.058 7.909-4.927 11.189-2.866z"/><path style="fill:#eaad96" d="M221.241 297.952c-3.828 1.075-8.453 5.064-9.893 9.835-1.44 4.771-4.156 13.059-6.181 18.657 0 0-2.58-1.234-5.395-3.033a362.51 362.51 0 0 1-6.591-4.307c-.964 5.534-3.241 5.061-3.241 5.061s6.284 7.148 10.735 11.7c5.039 5.154 9.768 8.079 12.966.844 3.199-7.235 5.093-10.949 7.993-19.635 4.789-14.341-.393-19.122-.393-19.122z"/><path id="XMLID_63_" style="fill:#583834" d="M223.42 279.766c1.454 10.772-2.548 18.868-2.179 18.186 0 0 8.338-2.833 11.673-5.759 5.094-4.47 13.98 1.242 13.98 1.242s2.346-8.499.439-18.077c-1.907-9.578-2.682-12.343-7.644-14.093-4.961-1.75-11.02 1.482-11.02 1.482s-7.093 3.358-5.249 17.019z"/><path style="fill:#eaad96" d="M244.992 298.311s-4.424-.308-4.624-4.327c-.124-2.476 1.343-9.825 1.343-9.825l-11.807-1.614s.547 9.918-.953 11.552c-.898.977-4.774 2.319-4.774 2.319l-4.979 6.51 10.799 13.898 19.615-10.833-4.62-7.68z"/><path style="opacity:.5;fill:#b89692" d="M225.219 296.031c5.115-.187 10.231-1.249 15.16-2.924.145-2.992 1.332-8.947 1.332-8.947l-11.807-1.614s.547 9.918-.953 11.552c-.598.651-2.517 1.463-3.732 1.933z"/><path id="XMLID_55_" style="fill:#eaad96" d="M226.605 266.217c-2.846 3.482-2.507 5.422-2.347 10.392.138 4.272.008 6.342.65 8.221.648 1.897 2.859 5.558 5.871 7.175.603.323 2.105.518 3.285.247 3.986-.916 10.1-5.259 11.444-7.955.985-1.977 1.614-5.589 1.826-8.94.208-3.293.404-7.565.39-10.028-.05-8.696-15.91-5.484-21.119.888z"/><path style="fill:#73283a" d="M179.083 420.537c1.411 3.047 4.655 8.702 3.367 11.509-1.288 2.807-11.91 1.746-15.318-3.008-3.408-4.753-1.323-11.207 0-12.884 1.323-1.676 9.267-1.412 11.951 4.383z"/><path style="fill:#eaad96" d="M186.679 395.797c-2.423-1.027-4.844-2.047-7.176-3.189-1.544 2.74-2.998 5.43-4.157 7.72-4.754 9.397-13.855 27.174-18.289 32.408-2.666 3.147-7.159 8.085-9.68 9.18-2.529 1.107-8.293 2.259-7.036 4.461 1.264 2.202 9.163.497 11.692.132s5.852 2.042 7.618.582c1.767-1.472-.647-4.415 1.278-7.86 4.303-7.703 17.961-19.467 22.216-24.795 3.872-4.849 7.997-11.787 10.313-15.868a230.198 230.198 0 0 1-6.779-2.771z"/><path style="fill:#a33953" d="M246.193 351.217c-1.004 11.986 2.292 17.566 2.292 24.779 0 14.364-15.342 11.285-22.373 12.208-12.179 1.597-17.376 5.115-19.047 6.132-1.671 1.018-24.616 37.71-24.616 37.71s-5.418-1.28-8.437-3.964c-3.206-2.85-4.839-3.877-10.659-5.098 0 0 19.674-37.392 21.574-41.612 1.9-4.22 32.055-20.245 38.738-21.187 6.683-.942 22.528-8.968 22.528-8.968z"/><path style="fill:none;stroke:#73283a;stroke-width:.913px;stroke-miterlimit:10" d="M163.353 422.985c6.736-12.804 13.534-25.584 20.047-38.504 2.859-5.672 7.577-8.323 13.042-11.526 4.909-2.877 10.054-5.881 15.359-8.387"/><path style="fill:#bf5a73" d="M257.441 317.404c-.877 4.872-2.198 10.03-2.854 13.708-1.522 8.477-3.602 6.011-4.728 14.753-.695 5.394 2.485 16.136 3.056 20.089-7.202 4.872-17.413-1.856-21.855-3.687-9.842-4.058-17.705-2.651-21.363-4.321 2.304-2.547 6.83-17.143 6.164-22.481-.687-5.538-5.749-12.438-4.343-15.049 1.406-2.621 9.723-22.464 9.723-22.464l2.939-1.539s-3.929 10.769 4.688 13.071c13.5 3.606 20.413-11.532 20.413-11.532s3.82 1.732 8.069 3.218c0 0 1.222 9.882.091 16.234z"/><path id="XMLID_53_" style="fill:#583834" d="M236.02 269.353c2.643.306 5.176.262 4.832 6.139-.549 9.38.188 11.903-3.758 21.312-2.401 5.727 6.531 8.274 11.672 4.697 1.19-.828 3.619-1.523 4.762-1.428 5.529.463 3.57-6.66-.227-12.886-3.69-6.052-2.806-11.079-2.806-13.945 0-6.564-2.32-11.601-7.157-14.431-5.196-3.039-11.64-2.216-15.139 1.209-.869.851-2.254 1.787-2.337 3.167-.153 2.561.359 5.033 10.158 6.166z"/><path style="fill:#eaad96" d="M189.27 324.58c-3.285-3.197-3.279-4.39-3.942-7.083s.735-3.053.735-3.053 3.129 1.715 5.424 5.068c2.295 3.353 1.594 5.068 1.594 5.068h-3.811z"/><path style="fill:#faebd9" d="M195.772 304.19s-.121-1.803 1.796-3.739 22.711-5.757 22.711-5.757l1.274 5.758-21.095 6.396-4.686-2.658z"/><path style="fill:#4e86d2" d="m222.357 298.341 6.99 28.608s-17.77 4.303-22.529 6.508l-8.297-29.717 23.836-5.399z"/><path style="fill:#faebd9" d="m195.976 308.344-.204-4.153s-.383-3.186-2.268-4.522c-1.885-1.336-9.135-3.603-9.135-3.603l-1.806 3.358 13.413 8.92z"/><path style="fill:#4e86d2" d="M201.153 333.095s3.148 2.2 5.665.361l-8.297-29.717s-3.086 1.231-5.794-.369l8.426 29.725z"/><path style="fill:#4e86d2" d="m181.821 298.363 10.905 5.007 8.427 29.725-10.608-5.332z"/><path style="fill:#eaad96" d="M185.359 310.558c1.312-.063 2.929.878 3.504 1.979.575 1.102.019 1.202-.555 1.206-.574.003-1.13.104-1.13.104s1.149 1.099 2.364 1.482c1.215.383 2.001 1.045 1.58 1.925-.42.88-.64.719-1.45.463 0 0 1.191.79.804 1.864-.386 1.075-1.78.221-1.78.221s1.342.561 1.141 1.603c-.201 1.041-1.113.201-1.999.06-.886-.142-2.382-1.579-2.425-2.375l-.087-1.592s-.322-.746-.492-1.72l-.17-.974.259-1.253c.002-.001-1.082-2.92.436-2.993zM257.35 301.17c-5.096-1.429-6.414 5.677-6.93 12.956-.469 6.621-2.34 21.339-2.34 21.339s-11.205-7.383-16.388-12.016c-.496-.444-.942-.826-1.255-1.17-1.445-1.588-3.195-4.973-4.077-9.084-.042-.196.168-.914-.746-1.525-2.117-1.415-2.453-2.999-3.594-4.262-1.226-1.357-2.184-2.622-2.679-2.059-.494.563.115 1.397.635 2.2.52.803 1.99 3.183 2.421 3.956.431.773.305 1.007.045 1.054-.664.119-1.421-.399-2.581-.793s-4.479-2.288-5.005-1.632c-.526.657.122 1.261 2.192 2.312 1.181.599 3.251 2.524 3.251 2.524s-.626-.461-2.078-1.164c-1.452-.702-3.011-1.645-3.384-.779-.26.602 1.518 1.507 1.518 1.507s-.638.115-.28.882c.325.696 1.226.664 2.248 1.711.721.739 1.925 3.465 3.174 3.89 1.249.425 2.153 3.865 4.206 4.563 1.521.517 11.841 12.428 12.464 13.019 5.887 5.587 12.391 10.503 15.802 6.529 3.412-3.973 6.657-24.701 6.673-33.822.011-6.095-.84-9.448-3.292-10.136z"/><path style="fill:#73283a" d="M139.586 443.894c-1.423 1.215-5.948 1.427-9.28 1.688s-4.928-2.961-4.928-2.961c-5.974 2.077-9.216 2.372-10.991 3.36-2.421 1.347-.508 2.259 2.815 2.659 4.249.512 8.25.364 11.545-.044 1.436-.178 7.117.007 7.844.033 3.635.131 4.076-1.39 3.392-3.503l-.397-1.232z"/><path style="fill:#73283a" d="M160.459 443.19c-1.423 1.215-4.258 1.858-7.428 1.591-4.16-.35-5.653-2.864-5.653-2.864-5.974 2.077-7.782 2.185-9.556 3.173-2.421 1.347-.98 2.648 2.343 3.048 4.249.512 6.161.162 9.456-.246 1.436-.178 7.117.007 7.844.033 3.635.131 4.076-1.39 3.392-3.503l-.398-1.232z"/><path style="fill:#a6abb7" d="M383.765 394.906c-1.658.232-3.791 1.49-4.498 3.711-.707 2.221 2.515 4.333 3.474 7.16.959 2.827 3.48 6.907 6.913 7.916 3.433 1.01 5.666-1.02 4.912-4.66-.754-3.64-6.592-10.896-6.592-10.896l-4.209-3.231z"/><path style="fill:#3a3752" d="M371.722 289.74s10.219 11.504 18.35 21.171l-4.386 37.886s-.65-16.464-12.745-25.002c-12.095-8.538-29.434-32.601-29.434-32.601l28.215-1.454z"/><path style="fill:#eaad96" d="M369.836 256.562s9.519 5.285 11.442 5.868c1.924.583 4.192 1.323 6.74 0s8.184-7.21 9.257-10.91l-5.391-2.876-8.43 7.263-9.929-4.891-3.689 5.546z"/><path style="fill:#667db3" d="m353.706 238.139 10.877-4.341s3.234 1.689 5.967 6.797c2.733 5.109 7.638 10.47 7.638 10.47l-8.961 10.455s-6.254-6.374-9.285-11.778c-3.03-5.406-6.236-11.603-6.236-11.603z"/><path style="fill:#eaad96" d="M344.231 212.67s-.699 5.392-1.272 8.136c-.573 2.743-1.527 3.689-2.195 4.351-.668.662-8.208 5.771-8.208 5.771s16.451 30.66 21.196 14.692c1.498-5.042 7.626-13.368 7.626-13.368s-5.735-4.493-6.59-6.764c-.855-2.271-1.332-8.845-1.332-8.845l-9.225-3.973z"/><path style="opacity:.5;fill:#b89692" d="M350.745 227.978c.796.58 1.596 1.153 2.408 1.709 1.416.967 2.855 1.9 4.316 2.797.873.536 1.773 1.026 2.662 1.535.744-1.079 1.248-1.767 1.248-1.767s-5.735-4.493-6.59-6.764c-.855-2.271-1.332-8.845-1.332-8.845l-9.227-3.973s-.699 5.392-1.272 8.136l-.005.021a137.882 137.882 0 0 0 7.792 7.151z"/><path style="fill:#3a3752" d="M381.169 303.688c3.343-.724 9.942 6.745 13.35 15.837 2.441 6.513 1.396 15.531.336 28.017-.72 8.472-3.239 46.414-3.239 46.414h-9.864s-1.828-21.635-2.531-37.462c-1.032-23.228-1.307-27.001-1.307-27.001l-22.523-25.804c-.001-.001 20.626 1.115 25.778-.001z"/><path style="fill:#5c70a1" d="M351.267 294.128c8.254-.331 21.226-3.616 20.455-4.388-1.718-1.719-3.837-20.733-3.894-25.653-.16-13.86-3.245-30.29-3.245-30.29l-7.927-5.776s-.355 5.518-6.526 6.016c-13.502 1.089-12.982-6.257-12.982-6.257s-8.341 3.45-11.728 6.24c-4.567 3.763-4.881 8.416-2.201 26.616 1.106 7.511.942 16.627 1.779 23.527.676 5.578-.444 19.477 3.666 19.143 6.87-2.702 14.969-9.441 22.603-9.178z"/><path style="fill:#3a3752" d="m391.399 393.843-9.036-.235s.021.964-.256 1.529c-.461.941-1.216 1.948-.36 4.143 1.217 3.124 4.869 10.898 7.792 12.542 1.572.884 3.49.628 4.655-.82 1.035-1.285-.184-4.469-.898-7.749-1.003-4.609-1.897-9.41-1.897-9.41z"/><path style="fill:#faebd9" d="M392.006 248.603s.225-1.756-1.909-3.722c-2.133-1.966-20.754-3.762-20.754-3.762l-1.747 5.572 18.85 4.323 5.56-2.411z"/><path style="fill:#64704d" d="m366.763 244.598-6.345 26.888s17.973 2.272 23.389 4.612l7.123-27.573-24.167-3.927z"/><path style="fill:#faebd9" d="m391.575 252.651.431-4.048s-1.314-2.934-.091-4.943c1.224-2.009 7.471-7.247 7.471-7.247l3.659 2.095-11.47 14.143z"/><path style="fill:#64704d" d="M387.708 275.676s-1.973 1.406-3.901.422l7.123-27.573s3.039.429 4.647-.603l-7.869 27.754z"/><path style="fill:#64704d" d="m403.241 237.254-7.665 10.668-7.868 27.754 6.445-6.305z"/><path style="opacity:.13;fill:#a5bdd1" d="m384.13 259.923 1.756-7.99-15.758-2.332-1.741 8.062z"/><path style="fill:#eaad96" d="M372.852 254.762c-.2 0-.6.195-1.097.527.035-.087.071-.188.105-.311.288-1.037-1.96.357-3.422 1.709-1.461 1.352-4.831 3.264-4.831 3.264-1.103.011.866-4.798.37-5.509-.497-.711-.919.46-2.207 4.379-.601 1.827-2.527 3.753-4.526 5.118-.705.482-2.618.971-4.952 1.513-.311.067-13.762 2.66-15.526 3.336 0 0-1.525-8.673-3.228-14.065-4.764.539-7.534 2.321-12.308 2.792.384 7.737 2.701 13.799 4.191 18.934.846 2.913 3.23 5.279 7.136 4.17 2.153-.611 23.628-10.082 25.121-10.78 2.874-1.343 5.746-1.963 6.639-2.581 1.451-1.003 4.459-3.332 5.518-4.173.982-.78.504-1.672.429-1.799.048-.013.313-.397 1.041-1.363.569-.754.435-2.078.435-2.078.756-.84.804-1.257 1.112-1.771.644-1.073.312-1.312 0-1.312zM399.869 249.602c-.231-.032-.161.826-.347 1.002-1.368 1.291-3.666 2.301-2.952 2.664.297.152.723.424.723.424s-.34.742-.086.981.305.471.271.644c-.034.173-.529 1.286-.359 1.436.169.149-.084.894.054 1.13.138.235.402.098 1.079-.287.676-.385 1.441-1.7 1.873-2.752.9-2.2.15-5.186-.256-5.242z"/><path style="fill:#667db3" d="M336.464 263.17s-4.254-21.238-5.263-23.419c-4.235-9.155-8.675-5.726-11.977 5.674-1.038 3.586-1.63 16.287 1.11 23.074 3.971 1.428 10.867-2.775 16.13-5.329z"/><path style="fill:#3a3752" d="M371.6 309.702c-2.66-5.521-8.262-7.901-15.181-15.718 0 0-4.84.152-12.913 1.081-6.739.775-15.15 3.738-15.15 3.738-.862 4.151-.523 9.492 4.568 15.505 3.338 3.941 7.814 1.805 16.768 5.368 1.833 1.527 2.99 2.751 2.99 2.751s.163 6.088-3.274 21.21-5.133 31.816-5.133 31.816l9.211-1.561s8.359-16.283 11.598-23.089c8.346-17.538 8.979-24.417 9.855-29.398.797-4.516-.938-8.494-3.339-11.703z"/><path style="fill:none;stroke:#242430;stroke-width:.8561px;stroke-miterlimit:10" d="M365.086 350.802c8.346-17.538 8.979-24.417 9.855-29.398.794-4.516-1.466-11.807-12.89-21.797"/><path style="fill:#eaad96" d="M365.799 207.36c-.122 2.969-1.484 9.592-2.511 12.24-1.423 3.667-3.95 6.432-6.872 7.378-2.922.946-7.25-2.654-9.112-5.45-1.862-2.796-1.42-6.375-1.409-9.753.011-3.378 1.388-6.765 1.388-6.765s-.215-5.618 2.942-7.219c12.1-6.133 15.696 6.601 15.574 9.569z"/><path style="fill:#372b2c" d="M368.273 204.665c-3.492.131-8.365 2.002-12.451.584-2.699-.937-5.365-2.653-5.365-2.653-.578 2.107.666 2.454.435 4.29-.23 1.836-2.858 3.011-2.858 3.011s-.753 2.75-1.625 3.44-2.96 6.524-2.96 6.524-1.869-5.614-1.978-6.505c-.109-.892-2.634-2.863-3.635-5.821-1.001-2.958.821-14.529 8.02-13.849 0 0 7.771-5.284 16.971 2.184 3.533 2.867 5.446 8.795 5.446 8.795z"/><path style="fill:#eaad96" d="M347.896 210.585c.161-1.36.891-4.751-2.15-5.293-3.042-.542-2.85 4.185-1.93 5.361.921 1.175 1.996 3.616 1.996 3.616s1.842-1.645 2.084-3.684z"/><path style="fill:#3a3752" d="M353.95 373.147c-1.465-1.017-4.569-1.532-6.368-1.098-1.799.434-3.387-.237-3.387-.237s-1.992 3.469-1.663 4.669c.659 2.404 4.358 8.254 8.323 11.458 3.25 2.626 6.785 3.102 8.077 1.603 1.721-1.995-4.982-16.395-4.982-16.395z"/><path style="fill:#a6abb7" d="M357.224 391.158c-2.18.333-3.752.148-6.368-1.224-3.02-1.584-8.74-9.185-9.354-11.275-.224-.763.767-2.286 1.004-3.044.365-1.165 4.539 8.968 8.733 11.967 1.586 1.134 6.05 2.886 7.695 1.96-.001 0-.508 1.432-1.71 1.616z"/><path style="fill:#eaad96" d="M127.51 219.048c-2.351.02-3.255-2.395-5.664-2.576-.826 5.016-3.129 11.321-3.96 13.539-1.591 4.25-5.434 5.093-7.732 7.058-.771.662-1.731 1.434-2.595 2.24 3.374-.066 8.745.266 12.044-.523 3.098-.741 4.152-3.018 7.261-3.755-.217-.996-.573-2.247-.822-4.09-.431-3.197.286-7.409 1.468-11.893z"/><path style="fill:#614630" d="M126.819 233.783c-1.323 1.577-5.196 3.738-8.684 4.025-4.578.376-6.009-2.304-6.009-2.304-3.307 2.747-7.811 3.665-9.515 5.382-2.147 2.163-.582 3.051 3.097 2.882 4.704-.217 6.715-.944 10.217-1.986 1.526-.454 6.847-1.257 7.641-1.361 3.968-.518 5.047-2.278 3.921-4.448-.657-1.264-.668-2.19-.668-2.19z"/><path style="fill:#8f6d52" d="m200.149 135.997-22.77-4.366s-1.923 9.234-4.506 11.291c-1.867 1.487-15.632 6.465-20.778 7.95-4.539 1.31-14.908 4.876-17.453 7.243-1.882 1.752-4.33 4.678-6.098 12.943-1.946 9.097-8.941 53.966-8.941 53.966s1.739 3.25 6.362 2.467c0 0 5.088-14.194 14.056-32.58 3.36-6.887 6.638-19.743 6.638-19.743s13.506-2.043 26.798-2.766c12.043-.655 21.586.479 25.401-1.9 12.56-7.834 1.291-27.234 1.291-34.505z"/><path style="fill:#eaad96" d="M154.182 239.021c-3.475-7.813-1.209-24.731-1.502-33.935l-10.816.124c1.769 11.519 4.664 29.34 4.229 35.206-.335 4.526-.431 9.981-1.13 12.923-.693 2.957-2.196 7.716.572 8.062 2.773.339 6.482-7.741 7.828-10.209 1.346-2.467 5.658-3.806 5.537-6.325-.13-2.526-2.953-1.879-4.718-5.846z"/><path style="fill:#614630" d="M155.349 240.921c.132 2.055-1.178 6.292-3.504 8.907-3.053 3.433-7.06 2.323-7.06 2.323-.497 4.27-1.999 8.203-2.047 10.621-.06 3.048 1.685 2.609 4.23-.053 3.253-3.404 4.207-5.319 6.021-8.49.791-1.382 4.086-5.636 4.589-6.26 2.513-3.115 2.078-5.132-.233-5.924-1.348-.462-1.996-1.124-1.996-1.124z"/><path style="fill:#eaad96" d="M170.605 99.451c-2.06 8.906-3.551 15.476-3.551 15.476-1.941-.744-16.74-3.597-17.083-3.671l-.597-.14a167.916 167.916 0 0 0-2.358 6.321c5.704 2.581 17.486 7.851 19.355 8.382 4.297 1.22 7.955-1.467 8.885-4.671 1.64-5.649 3.096-13.561 4.741-20.27l-9.392-1.427z"/><path style="fill:#8f6d52" d="m200.15 142.008-14.977-9.591-12.3 13.244s-27.945 9.374-30.489 11.742c-2.72 2.531-6.031 4.613-5.186 19.149.742 12.766 7.426 54.416 7.426 54.416 1.497 1.431 8.112 3.104 8.221 1.035 1.108-21.025 2.204-29.116 2.454-43.12.167-9.377.339-15.046.339-15.046s38.158-.774 43.676-8.253c6.1-8.271.836-16.305.836-23.576z"/><path style="fill:none;stroke:#785c45;stroke-width:1.0604px;stroke-miterlimit:10" d="M172.873 145.661s-27.945 9.374-30.489 11.742c-2.72 2.531-6.031 4.613-5.186 19.149.36 6.198 2.121 19.203 3.837 30.946"/><path style="fill:#372b2c" d="M183.829 90.245c-.976 3.317-9.68-.799-14.79-6.993-5.11-6.194-8.813-16.75-3.713-24.208 5.1-7.459 11.921 6.986 14.243 14.668 2.322 7.682 4.26 16.533 4.26 16.533z"/><path style="fill:#64704d" d="M174.757 109.201c.935.188 1.865.336 2.795.481.023-.197.054-.412.074-.6.682-6.59 6.28-25.128.552-21.871-3.802 2.161-6.793 5.053-9.186 16.645a33.204 33.204 0 0 0-.558 3.959c1.853.874 5.104 1.141 6.323 1.386z"/><path style="fill:#eaad96" d="M180.504 87.006c.65-1.458 2.007-1.712.152-4.825l8.415-3.365s1.824 3.615 4.48 6.253c2.655 2.638-3.43 23.442-8.735 25.134-5.305 1.692-8.216-4.853-8.216-4.853s.228-4.99.167-6.36c-.171-3.808 3.737-11.984 3.737-11.984z"/><path style="fill:#64704d" d="M195.056 85.312s-3.861 1.604-7.206 5.372c-3.346 3.767-8.013 8.433-9.283 7.942-1.27-.491 1.264-10.516 2.548-12.628l-2.937 1.213s-2.656 9.083-4.342 12.029c-1.686 2.947-4.26 7.026-4.002 10.88.257 3.853 2.96 9.255 2.702 12.57-.257 3.315-.869 17.928-.869 17.928s5.086 1.687 13.73 1.567c9.382-.131 12.649-.681 18.51-4.653-1.622-4.385-2.853-4.362-3.188-15.636-.18-6.04.901-11.606 2.188-18.235 1.287-6.63 2.912-10.355.467-13.67-2.446-3.317-8.318-4.679-8.318-4.679z"/><path style="fill:#eaad96" d="M188.09 74.827c-2.848-4.624-2.777-7.268-2.752-7.619l.003-.044-1.408-9.483s-3.223-4.303-8.744-2.32-7.758 3.729-8.527 6.107c-.648 2.002-.236 4.499.059 5.618.295 1.119 1.173 2.023.852 3.233-.321 1.211-2.025 3.66-2.057 4.311-.033.651 1.995 1.254 2.304 1.596.309.342 2.111 3.375 2.987 4.925.876 1.55 4.067-.019 6.732-.37 2.346-.31 5.871 4.303 6.79 7.01l11.885-1.765c.001 0-5.059-6.224-8.124-11.199z"/><path style="fill:#372b2c" d="M184.33 87.791c-.053-7.981 1.124-15.717-3.464-18.876-1.24-.854-5.456-1.442-7.024-1.75-8.517-1.674-8.517-8.12-8.517-8.12s5.124-6.408 12.35-8.059c7.226-1.652 14.266 3.606 18.082 14.59 2.893 8.326 12.384 14.211 15.54 19.738 6.386 11.182-2.564 25.17-10.171 23.535-8.746-1.88.22-11.921-2.424-19.124-.448-1.219-6.36 1.792-9.456 2.816-3.249 1.074-4.904-2.946-4.916-4.75z"/><path style="fill:#faebd9" d="M134.119 102.487s-.946-7.604 2.507-10.714l3.956 1.297 5.758 19.866-5.653 3.895-6.568-14.344z"/><path style="fill:#faebd9" d="M137.845 104.837s-3.608-2.722-1.017-6.004c2.035-2.579 21.412-4.199 21.412-4.199l11.571 31.074-4.953 2.392-10.367-.58-16.646-22.683z"/><path style="fill:#675fa9" d="m155.721 99.451 10.331 29.598s-9.088 1.877-17.717 3.153l-10.197-29.54 17.583-3.211z"/><path style="fill:#675fa9" d="M144.19 131.803s1.088 1.053 4.145.399l-10.197-29.54s-2.131.648-4.02-.176l10.072 29.317z"/><path style="opacity:.13;fill:#a5bdd1" d="m147.259 128.101-7.015-21.375 13.77-2.88 6.797 21.769z"/><path style="fill:#eaad96" d="M151.258 110.791c.22 0 .66.215 1.207.58a3.015 3.015 0 0 1-.115-.342c-.317-1.141 2.157.393 3.765 1.88 1.608 1.487 4.553 3.145 4.553 3.145 1.213.012-1.254-2.771-.707-3.553.547-.783 2.32.864 3.491 2.755 1.113 1.799 2.78 4.129 4.98 5.631.776.53 2.881 1.068 5.448 1.664.343.073 15.142 2.927 17.083 3.671 0 0 2.366-11.074 4.425-19.98l9.393 1.426c-1.646 6.709-3.976 19.125-5.616 24.774-.93 3.205-4.588 5.892-8.885 4.671-2.369-.673-20.684-8.968-22.327-9.736-3.162-1.478-6.322-2.16-7.305-2.839-1.597-1.104-4.906-3.667-6.071-4.591-1.081-.858-.555-1.84-.472-1.979-.053-.014-.344-.437-1.145-1.499-.626-.83-.479-2.286-.479-2.286-.831-.924-.884-1.383-1.223-1.949-.709-1.18-.344-1.443 0-1.443z"/><path style="fill:#675fa9" d="M135.336 104.034s-1.463-8.672 2.022-12.087l-.732-.175s-3.712 2.854-2.507 10.714l1.217 1.548z"/><path style="fill:#64704d" d="M205.554 111.024c.631-5.887.557-11.213.275-14.13-.831-8.613-11.38-9.239-13.198-3.103-1.021 3.445-.678 9.382.329 18.175 4.074-.926 8.329-1.159 12.594-.942z"/></g></svg>