<svg xmlns="http://www.w3.org/2000/svg" xmlns:xlink="http://www.w3.org/1999/xlink" viewBox="0 0 650 500" style="enable-background:new 0 0 650 500" xml:space="preserve"><g id="OBJECTS"><path style="fill:none" d="M0 0h650v500H0z"/><ellipse style="fill:#e0e0e0" cx="325" cy="418.025" rx="276.803" ry="30.367"/><path style="fill:#264360" d="M525.184 190.903V421.66a79.253 79.253 0 0 0 44.919 0V190.903h-44.919z"/><defs><path id="SVGID_60_" d="M570.102 198.029a79.253 79.253 0 0 1-44.919 0v-28.34h44.919v28.34z"/></defs><clipPath id="SVGID_00000005245765701647277440000017145270302263182763_"><use xlink:href="#SVGID_60_" style="overflow:visible"/></clipPath><path style="-webkit-clip-path:url(#SVGID_00000005245765701647277440000017145270302263182763_);clip-path:url(#SVGID_00000005245765701647277440000017145270302263182763_);fill:#ebebeb" d="M570.102 198.029a79.253 79.253 0 0 1-44.919 0v-28.34h44.919v28.34z"/><g style="-webkit-clip-path:url(#SVGID_00000005245765701647277440000017145270302263182763_);clip-path:url(#SVGID_00000005245765701647277440000017145270302263182763_)"><path style="fill:none;stroke:#d6d6d6;stroke-width:.5px;stroke-miterlimit:10" d="M530.175 167.725v37.257M534.057 167.777v37.257M537.938 167.828v37.257M541.82 167.88v37.257M545.701 167.931v37.257M549.583 167.983v37.256M553.464 168.034v37.257M557.346 168.085v37.257M561.227 168.137v37.257M565.108 168.188v37.257"/></g><path style="fill:#d6d6d6" d="M570.106 196.459v3.559a79.266 79.266 0 0 1-44.928 0v-3.559a79.266 79.266 0 0 0 44.928 0z"/><path style="fill:#508cc9" d="M525.184 168.435v32.842h2.734v-32.842c0-.669-.612-1.211-1.367-1.211s-1.367.542-1.367 1.211zM567.368 168.435v32.842h2.734v-32.842c0-.669-.612-1.211-1.367-1.211s-1.367.542-1.367 1.211z"/><path style="fill:#1c334d" d="M570.106 209.476v9.767a79.266 79.266 0 0 1-44.928 0v-9.767a79.266 79.266 0 0 0 44.928 0zM570.106 276.33v9.767a79.266 79.266 0 0 1-44.928 0v-9.767a79.266 79.266 0 0 0 44.928 0zM566.214 224.726v47.172a65.542 65.542 0 0 1-37.145 0v-47.172a65.542 65.542 0 0 0 37.145 0z"/><path style="fill:none;stroke:#1c334d;stroke-width:.75px;stroke-miterlimit:10" d="M566.214 301.611v21.212a65.542 65.542 0 0 1-37.145 0v-21.212a65.542 65.542 0 0 0 37.145 0z"/><path style="fill:none;stroke:#264360;stroke-width:.75px;stroke-miterlimit:10" d="M547.646 269.743c-4.629 0-9.233-.528-13.734-1.573v-37.269a70.443 70.443 0 0 0 27.462 0v37.269a60.644 60.644 0 0 1-13.728 1.573z"/><path style="fill:#1c334d" d="M570.106 335.759v9.767a79.266 79.266 0 0 1-44.928 0v-9.767a79.266 79.266 0 0 0 44.928 0z"/><path style="fill:#1c334d" d="M570.106 326.54v5.737a79.266 79.266 0 0 1-44.928 0v-5.737a79.266 79.266 0 0 0 44.928 0zM570.106 289.907v5.737a79.266 79.266 0 0 1-44.928 0v-5.737a79.266 79.266 0 0 0 44.928 0zM570.106 402.613v9.767a79.266 79.266 0 0 1-44.928 0v-9.767a79.266 79.266 0 0 0 44.928 0zM566.214 351.009v47.172a65.542 65.542 0 0 1-37.145 0v-47.172a65.542 65.542 0 0 0 37.145 0z"/><path style="fill:none;stroke:#264360;stroke-width:.75px;stroke-miterlimit:10" d="M547.646 396.026c-4.629 0-9.233-.528-13.734-1.573v-37.269a70.443 70.443 0 0 0 27.462 0v37.269a60.644 60.644 0 0 1-13.728 1.573z"/><path style="fill:#508cc9" d="M570.106 197.924v3.559a79.266 79.266 0 0 1-44.928 0v-3.559a79.266 79.266 0 0 0 44.928 0z"/><defs><path id="SVGID_62_" d="M570.106 201.481v220.173a79.266 79.266 0 0 1-44.928 0V201.481a79.266 79.266 0 0 0 44.928 0z"/></defs><clipPath id="SVGID_00000013173761001602900490000010990264178816791467_"><use xlink:href="#SVGID_62_" style="overflow:visible"/></clipPath><linearGradient id="SVGID_00000018220377196837697270000008877472706279698846_" gradientUnits="userSpaceOnUse" x1="269.297" y1="312.922" x2="277.074" y2="312.922" gradientTransform="translate(255.884)"><stop offset="0" style="stop-color:#000b17;stop-opacity:.5"/><stop offset=".996" style="stop-color:#000;stop-opacity:0"/></linearGradient><path style="-webkit-clip-path:url(#SVGID_00000013173761001602900490000010990264178816791467_);clip-path:url(#SVGID_00000013173761001602900490000010990264178816791467_);fill:url(#SVGID_00000018220377196837697270000008877472706279698846_)" d="M525.181 201.831h7.777v222.182h-7.777z"/><path style="fill:#e3544b" d="M487.389 153.923v267.739a66.683 66.683 0 0 0 37.795 0V153.923h-37.795z"/><defs><path id="SVGID_65_" d="M525.184 159.918a66.68 66.68 0 0 1-37.794 0v-23.845h37.795v23.845z"/></defs><clipPath id="SVGID_00000183967249557770200130000014445311200231124641_"><use xlink:href="#SVGID_65_" style="overflow:visible"/></clipPath><path style="-webkit-clip-path:url(#SVGID_00000183967249557770200130000014445311200231124641_);clip-path:url(#SVGID_00000183967249557770200130000014445311200231124641_);fill:#ebebeb" d="M525.184 159.918a66.68 66.68 0 0 1-37.794 0v-23.845h37.795v23.845z"/><g style="-webkit-clip-path:url(#SVGID_00000183967249557770200130000014445311200231124641_);clip-path:url(#SVGID_00000183967249557770200130000014445311200231124641_)"><path style="fill:none;stroke:#d6d6d6;stroke-width:.5px;stroke-miterlimit:10" d="M491.928 134.349v30.396M495.518 134.396v30.396M499.107 134.443v30.396M502.697 134.49v30.397M506.286 134.538v30.396M509.876 134.585v30.396M513.465 134.632v30.396M517.055 134.679v30.397M520.644 134.726v30.397"/></g><path style="fill:#d6d6d6" d="M525.178 158.181v2.922a66.69 66.69 0 0 1-37.787 0v-2.922a66.69 66.69 0 0 0 37.787 0z"/><path style="fill:#ff766e" d="M487.389 134.877v26.731h2.366v-26.731c0-.558-.53-1.011-1.183-1.011-.653.001-1.183.453-1.183 1.011zM522.817 134.877v26.731h2.366v-26.731c0-.558-.53-1.011-1.183-1.011-.653.001-1.183.453-1.183 1.011z"/><path style="fill:#a63d38" d="M525.178 168.662v12.877a66.69 66.69 0 0 1-37.787 0v-12.877a66.69 66.69 0 0 0 37.787 0z"/><path style="fill:#ff766e" d="M525.178 159.317v2.922a66.69 66.69 0 0 1-37.787 0v-2.922a66.69 66.69 0 0 0 37.787 0z"/><path style="fill:#a63d38" d="M525.178 243.167v12.877a66.69 66.69 0 0 1-37.787 0v-12.877a66.69 66.69 0 0 0 37.787 0zM525.178 329.016v12.877a66.69 66.69 0 0 1-37.787 0v-12.877a66.69 66.69 0 0 0 37.787 0zM525.178 400.491v12.877a66.69 66.69 0 0 1-37.787 0v-12.877a66.673 66.673 0 0 0 37.787 0zM519.345 196.095v25.891l-5.299 6.383a46.116 46.116 0 0 1-15.522 0l-5.299-6.383v-25.891l7.415-6.423c3.749.462 7.541.462 11.29 0l7.415 6.423z"/><path style="fill:#e3544b" d="M506.285 225.396c-1.95 0-3.911-.136-5.846-.404l-3.584-4.317v-22.922l4.969-4.304a50.034 50.034 0 0 0 8.921 0l4.969 4.304v22.922l-3.584 4.317a42.694 42.694 0 0 1-5.845.404z"/><path style="fill:#a63d38" d="M506.285 221.765a38.95 38.95 0 0 1-3.975-.204l-1.824-2.196v-19.952l2.573-2.229a53.681 53.681 0 0 0 6.45 0l2.573 2.229v19.952l-1.824 2.196a38.896 38.896 0 0 1-3.973.204zM519.345 365.734v25.891l-5.299 6.384a46.116 46.116 0 0 1-15.522 0l-5.299-6.384v-25.891l7.415-6.423c3.749.463 7.541.463 11.29 0 2.987 2.589 4.427 3.836 7.415 6.423z"/><path style="fill:#e3544b" d="M506.285 395.036c-1.95 0-3.911-.136-5.846-.404l-3.584-4.318v-22.921l4.969-4.304a50.063 50.063 0 0 0 8.921 0l4.969 4.302v22.922l-3.583 4.316a42.252 42.252 0 0 1-5.846.407z"/><path style="fill:#a63d38" d="M506.285 391.405a38.95 38.95 0 0 1-3.975-.204l-1.824-2.197v-19.952l2.574-2.229a53.665 53.665 0 0 0 6.448 0l2.573 2.229v19.952l-1.823 2.197a38.867 38.867 0 0 1-3.973.204zM519.345 271.005v47.268l-5.299 6.383a46.116 46.116 0 0 1-15.522 0l-5.299-6.383v-47.268l7.415-6.423c3.749.463 7.541.463 11.29 0l7.415 6.423z"/><path style="fill:none;stroke:#e3544b;stroke-width:.75px;stroke-miterlimit:10" d="M506.285 321.684c-1.95 0-3.911-.136-5.846-.404l-3.584-4.318v-44.299l4.969-4.304a49.663 49.663 0 0 0 8.921 0l4.969 4.304v44.299l-3.584 4.318a42.694 42.694 0 0 1-5.845.404z"/><path style="fill:#a63d38" d="M525.178 231.603v5.072a66.69 66.69 0 0 1-37.787 0v-5.072a66.673 66.673 0 0 0 37.787 0zM525.178 347.637v5.072a66.69 66.69 0 0 1-37.787 0v-5.072a66.69 66.69 0 0 0 37.787 0z"/><defs><path id="SVGID_67_" d="M525.178 162.242v259.424a66.69 66.69 0 0 1-37.787 0V162.242a66.69 66.69 0 0 0 37.787 0z"/></defs><clipPath id="SVGID_00000118357677132728860270000000503642589402699420_"><use xlink:href="#SVGID_67_" style="overflow:visible"/></clipPath><linearGradient id="SVGID_00000096046011070054061190000001360190665184273816_" gradientUnits="userSpaceOnUse" x1="280.835" y1="293.142" x2="288.612" y2="293.142" gradientTransform="translate(206.556)"><stop offset="0" style="stop-color:#000b17;stop-opacity:.5"/><stop offset=".996" style="stop-color:#000;stop-opacity:0"/></linearGradient><path style="-webkit-clip-path:url(#SVGID_00000118357677132728860270000000503642589402699420_);clip-path:url(#SVGID_00000118357677132728860270000000503642589402699420_);fill:url(#SVGID_00000096046011070054061190000001360190665184273816_)" d="M487.391 162.148h7.777v261.987h-7.777z"/><linearGradient id="SVGID_00000023271566920617426700000012264507983012811394_" gradientUnits="userSpaceOnUse" x1="83.147" y1="293.08" x2="90.923" y2="293.08" gradientTransform="matrix(-1 0 0 1 608.316 0)"><stop offset="0" style="stop-color:#000b17;stop-opacity:.5"/><stop offset=".996" style="stop-color:#000;stop-opacity:0"/></linearGradient><path style="-webkit-clip-path:url(#SVGID_00000118357677132728860270000000503642589402699420_);clip-path:url(#SVGID_00000118357677132728860270000000503642589402699420_);fill:url(#SVGID_00000023271566920617426700000012264507983012811394_)" d="M517.393 424.013h7.777V162.148h-7.777z"/><path style="fill:#73b2ba" d="M434.922 152.129V421.662a92.569 92.569 0 0 0 52.467 0V152.129h-52.467z"/><defs><path id="SVGID_71_" d="M487.389 160.452a92.569 92.569 0 0 1-52.467 0V127.35h52.467v33.102z"/></defs><clipPath id="SVGID_00000155862458092868151710000008986441354963854492_"><use xlink:href="#SVGID_71_" style="overflow:visible"/></clipPath><path style="-webkit-clip-path:url(#SVGID_00000155862458092868151710000008986441354963854492_);clip-path:url(#SVGID_00000155862458092868151710000008986441354963854492_);fill:#ebebeb" d="M487.389 160.452a92.569 92.569 0 0 1-52.467 0V127.35h52.467v33.102z"/><g style="-webkit-clip-path:url(#SVGID_00000155862458092868151710000008986441354963854492_);clip-path:url(#SVGID_00000155862458092868151710000008986441354963854492_)"><path style="fill:none;stroke:#d6d6d6;stroke-width:.5px;stroke-miterlimit:10" d="M441.274 125.828v40.185M445.25 125.878v40.185M449.227 125.928v40.185M453.204 125.978v40.185M457.18 126.027v40.186M461.157 126.077v40.186M465.134 126.127v40.186M469.11 126.177v40.186M473.087 126.227v40.186M477.064 126.277v40.185M481.041 126.327v40.185"/></g><path style="fill:#d6d6d6" d="M487.391 158.185v4.132a92.59 92.59 0 0 1-52.468 0v-4.132a92.362 92.362 0 0 0 52.468 0z"/><path style="fill:#86cfd9" d="M434.922 125.834v37.454h3.129v-37.454c0-.747-.701-1.353-1.565-1.353-.864.001-1.564.606-1.564 1.353zM484.26 125.834v37.454h3.129v-37.454c0-.747-.701-1.353-1.565-1.353-.864.001-1.564.606-1.564 1.353z"/><path style="fill:#52959e" d="M487.391 170.471v8.255a92.59 92.59 0 0 1-52.468 0v-8.255a92.38 92.38 0 0 0 52.468 0z"/><path style="fill:#86cfd9" d="M487.391 159.801v4.132a92.59 92.59 0 0 1-52.468 0v-4.132a92.38 92.38 0 0 0 52.468 0z"/><path style="fill:#52959e" d="M487.391 199.16v8.255a92.59 92.59 0 0 1-52.468 0v-8.255a92.38 92.38 0 0 0 52.468 0zM487.391 229.923v4.127a92.59 92.59 0 0 1-52.468 0v-4.127a92.362 92.362 0 0 0 52.468 0zM487.391 240.868v102.214a92.59 92.59 0 0 1-52.468 0V240.868a92.38 92.38 0 0 0 52.468 0zM487.391 349.843v4.127a92.59 92.59 0 0 1-52.468 0v-4.127a92.38 92.38 0 0 0 52.468 0z"/><path style="fill:none;stroke:#52959e;stroke-linecap:round;stroke-linejoin:round;stroke-miterlimit:10" d="M443.64 188.29c.701-.971.496-2.449-.377-3.27-.873-.821-2.276-.963-3.35-.431-1.073.533-1.793 1.665-1.937 2.854-.249 2.057 1.316 4.169 3.357 4.529 1.564.276 3.151-.375 4.486-1.238 1.334-.862 2.525-1.947 3.924-2.699 2.453-1.319 5.582-1.476 8.004-.1 2.421 1.376 3.916 4.367 3.25 7.072-.666 2.704-3.652 4.707-6.35 4.013-1.238-.318-2.362-1.184-2.83-2.373-.468-1.189-.185-2.681.796-3.5.981-.82 2.619-.778 3.454.19"/><path style="fill:none;stroke:#52959e;stroke-linecap:round;stroke-linejoin:round;stroke-miterlimit:10" d="M478.671 188.29c-.701-.971-.496-2.449.377-3.27.873-.821 2.276-.963 3.35-.431 1.073.533 1.793 1.665 1.937 2.854.249 2.057-1.316 4.169-3.357 4.529-1.564.276-3.151-.375-4.486-1.238-1.334-.862-2.525-1.947-3.924-2.699-2.453-1.319-5.582-1.476-8.004-.1-2.421 1.376-3.916 4.367-3.25 7.072.666 2.704 3.652 4.707 6.35 4.013 1.238-.318 2.362-1.184 2.83-2.373.468-1.189.185-2.681-.796-3.5-.981-.82-2.619-.778-3.454.19"/><path style="fill:#52959e" d="M487.391 375.492v8.255a92.59 92.59 0 0 1-52.468 0v-8.255a92.362 92.362 0 0 0 52.468 0zM487.391 404.181v8.254a92.59 92.59 0 0 1-52.468 0v-8.254a92.362 92.362 0 0 0 52.468 0z"/><path style="fill:none;stroke:#52959e;stroke-linecap:round;stroke-linejoin:round;stroke-miterlimit:10" d="M443.64 393.312c.701-.971.496-2.449-.377-3.27-.873-.821-2.276-.963-3.35-.431-1.073.533-1.793 1.665-1.937 2.854-.249 2.057 1.316 4.169 3.357 4.529 1.564.276 3.151-.375 4.486-1.237 1.334-.862 2.525-1.947 3.924-2.699 2.453-1.319 5.582-1.476 8.004-.1 2.421 1.376 3.916 4.367 3.25 7.072-.666 2.704-3.652 4.707-6.35 4.013-1.238-.318-2.362-1.184-2.83-2.374-.468-1.189-.185-2.68.796-3.5.981-.82 2.619-.778 3.454.19"/><path style="fill:none;stroke:#52959e;stroke-linecap:round;stroke-linejoin:round;stroke-miterlimit:10" d="M478.671 393.312c-.701-.971-.496-2.449.377-3.27.873-.821 2.276-.963 3.35-.431 1.073.533 1.793 1.665 1.937 2.854.249 2.057-1.316 4.169-3.357 4.529-1.564.276-3.151-.375-4.486-1.237-1.334-.862-2.525-1.947-3.924-2.699-2.453-1.319-5.582-1.476-8.004-.1-2.421 1.376-3.916 4.367-3.25 7.072.666 2.704 3.652 4.707 6.35 4.013 1.238-.318 2.362-1.184 2.83-2.374.468-1.189.185-2.68-.796-3.5-.981-.82-2.619-.778-3.454.19"/><ellipse style="fill:#52959e" cx="461.155" cy="222.226" rx="3.376" ry="3.956"/><path style="fill:#52959e" d="M472.849 224.177c-1.342 0-2.429-1.275-2.429-2.847s1.088-2.847 2.429-2.847c1.342 0 2.429 1.275 2.429 2.847.001 1.572-1.087 2.847-2.429 2.847z"/><ellipse style="fill:#52959e" cx="481.466" cy="218.907" rx="1.622" ry="1.901"/><path style="fill:#52959e" d="M449.465 224.177c1.342 0 2.429-1.275 2.429-2.847s-1.088-2.847-2.429-2.847c-1.342 0-2.429 1.275-2.429 2.847s1.087 2.847 2.429 2.847z"/><ellipse style="fill:#52959e" cx="440.848" cy="218.907" rx="1.622" ry="1.901"/><ellipse style="fill:#52959e" cx="461.155" cy="369.753" rx="3.376" ry="3.956"/><ellipse style="fill:#52959e" cx="472.849" cy="368.857" rx="2.429" ry="2.847"/><path style="fill:#52959e" d="M481.466 368.335c-.896 0-1.622-.851-1.622-1.901s.726-1.901 1.622-1.901c.896 0 1.622.851 1.622 1.901s-.726 1.901-1.622 1.901z"/><ellipse style="fill:#52959e" cx="449.465" cy="368.857" rx="2.429" ry="2.847"/><path style="fill:#52959e" d="M440.848 368.335c.896 0 1.622-.851 1.622-1.901s-.726-1.901-1.622-1.901-1.622.851-1.622 1.901.726 1.901 1.622 1.901z"/><path style="fill:#73b2ba" d="M439.226 239.368h3.244v108.273h-3.244zM479.845 239.368h3.244v108.273h-3.244z"/><defs><path id="SVGID_73_" d="M487.391 163.937v257.73a92.59 92.59 0 0 1-52.468 0v-257.73a92.59 92.59 0 0 0 52.468 0z"/></defs><clipPath id="SVGID_00000023998813960173131000000011711651055112760198_"><use xlink:href="#SVGID_73_" style="overflow:visible"/></clipPath><linearGradient id="SVGID_00000000218084195170671890000012426659303194989184_" gradientUnits="userSpaceOnUse" x1="263.511" y1="293.916" x2="271.288" y2="293.916" gradientTransform="translate(171.411)"><stop offset="0" style="stop-color:#000b17;stop-opacity:.5"/><stop offset=".996" style="stop-color:#000;stop-opacity:0"/></linearGradient><path style="-webkit-clip-path:url(#SVGID_00000023998813960173131000000011711651055112760198_);clip-path:url(#SVGID_00000023998813960173131000000011711651055112760198_);fill:url(#SVGID_00000000218084195170671890000012426659303194989184_)" d="M434.922 164.126h7.777v259.579h-7.777z"/><linearGradient id="SVGID_00000092439158517001522120000010826086320525301401_" gradientUnits="userSpaceOnUse" x1="93.306" y1="294.036" x2="101.083" y2="294.036" gradientTransform="matrix(-1 0 0 1 580.713 0)"><stop offset="0" style="stop-color:#000b17;stop-opacity:.5"/><stop offset=".996" style="stop-color:#000;stop-opacity:0"/></linearGradient><path style="-webkit-clip-path:url(#SVGID_00000023998813960173131000000011711651055112760198_);clip-path:url(#SVGID_00000023998813960173131000000011711651055112760198_);fill:url(#SVGID_00000092439158517001522120000010826086320525301401_)" d="M479.63 424.135h7.778V163.936h-7.778z"/><path style="fill:#ff8787" d="M401.912 127.848v293.813a58.25 58.25 0 0 0 33.01 0V127.848h-33.01z"/><defs><path id="SVGID_77_" d="M434.922 133.085a58.25 58.25 0 0 1-33.01 0v-20.826h33.01v20.826z"/></defs><clipPath id="SVGID_00000173883835193473271700000013524165487175526311_"><use xlink:href="#SVGID_77_" style="overflow:visible"/></clipPath><path style="-webkit-clip-path:url(#SVGID_00000173883835193473271700000013524165487175526311_);clip-path:url(#SVGID_00000173883835193473271700000013524165487175526311_);fill:#ebebeb" d="M434.922 133.085a58.25 58.25 0 0 1-33.01 0v-20.826h33.01v20.826z"/><g style="-webkit-clip-path:url(#SVGID_00000173883835193473271700000013524165487175526311_);clip-path:url(#SVGID_00000173883835193473271700000013524165487175526311_)"><path style="fill:none;stroke:#d6d6d6;stroke-width:.5px;stroke-miterlimit:10" d="M406.339 111.068v24.66M409.359 111.106v24.661M412.378 111.144v24.661M415.398 111.183v24.66M418.417 111.221v24.661M421.436 111.259v24.661M424.456 111.298v24.66M427.475 111.336v24.661M430.495 111.374v24.661"/></g><path style="fill:#d6d6d6" d="M434.923 131.636v2.199a58.236 58.236 0 0 1-33.006 0v-2.199a58.236 58.236 0 0 0 33.006 0z"/><path style="fill:#ffb5b5" d="M401.912 111.15v23.351h2.042V111.15c0-.481-.457-.87-1.021-.87-.564 0-1.021.389-1.021.87zM432.88 111.15v23.351h2.042V111.15c0-.481-.457-.87-1.021-.87-.564 0-1.021.389-1.021.87z"/><path style="fill:#e67070" d="M434.923 140.392v7.093a58.236 58.236 0 0 1-33.006 0v-7.093a58.236 58.236 0 0 0 33.006 0z"/><path style="fill:#ffb5b5" d="M434.923 132.742v2.199a58.236 58.236 0 0 1-33.006 0v-2.199a58.236 58.236 0 0 0 33.006 0z"/><path style="fill:#e67070" d="M434.923 152.718v3.546a58.236 58.236 0 0 1-33.006 0v-3.546a58.218 58.218 0 0 0 33.006 0zM434.923 408.307v7.093a58.236 58.236 0 0 1-33.006 0v-7.093a58.236 58.236 0 0 0 33.006 0zM434.923 399.712v3.546a58.236 58.236 0 0 1-33.006 0v-3.546a58.236 58.236 0 0 0 33.006 0zM418.42 218.395l-9.362-13.463 9.362-13.464 9.362 13.464zM418.42 237.902l-5.543-7.972 5.543-7.971 5.543 7.971zM418.42 187.404l-5.543-7.972 5.543-7.971 5.543 7.971zM418.42 268.831l-9.362-13.463 9.362-13.463 9.362 13.463zM418.42 288.338l-5.543-7.972 5.543-7.971 5.543 7.971zM418.42 319.267l-9.362-13.463 9.362-13.463 9.362 13.463zM418.42 338.774l-5.543-7.971 5.543-7.972 5.543 7.972zM418.42 369.704l-9.362-13.463 9.362-13.464 9.362 13.464z"/><path style="fill:none;stroke:#e67070;stroke-width:.75px;stroke-linecap:round;stroke-linejoin:round;stroke-miterlimit:10" d="m421.329 239.903 6.936-9.973-6.783-9.753 10.602-15.245-10.776-15.496 6.957-10.004-9.846-14.156-9.845 14.156 6.957 10.004-10.774 15.496 10.6 15.245-6.783 9.753 6.936 9.973-10.753 15.465 10.6 15.245-6.783 9.753 6.936 9.974-10.753 15.465 10.6 15.244-6.783 9.753 6.936 9.974-10.753 15.465 10.6 15.244-6.783 9.754 9.845 14.157 9.846-14.157-6.783-9.753 10.602-15.245-10.755-15.465 6.936-9.974-6.783-9.753 10.602-15.244-10.755-15.465 6.936-9.974-6.783-9.753 10.602-15.245z"/><path style="fill:#e67070" d="m418.42 389.211-5.543-7.972 5.543-7.971 5.543 7.971z"/><defs><path id="SVGID_79_" d="M434.923 134.937v286.729a58.236 58.236 0 0 1-33.006 0V134.937a58.236 58.236 0 0 0 33.006 0z"/></defs><clipPath id="SVGID_00000000932808632656583130000009132158616363221422_"><use xlink:href="#SVGID_79_" style="overflow:visible"/></clipPath><linearGradient id="SVGID_00000080184246177787170300000015597125867392415656_" gradientUnits="userSpaceOnUse" x1="253.691" y1="279.554" x2="261.467" y2="279.554" gradientTransform="translate(148.23)"><stop offset="0" style="stop-color:#000b17;stop-opacity:.5"/><stop offset=".996" style="stop-color:#000;stop-opacity:0"/></linearGradient><path style="-webkit-clip-path:url(#SVGID_00000000932808632656583130000009132158616363221422_);clip-path:url(#SVGID_00000000932808632656583130000009132158616363221422_);fill:url(#SVGID_00000080184246177787170300000015597125867392415656_)" d="M401.921 135.06h7.777v288.989h-7.777z"/><linearGradient id="SVGID_00000098915444207593682040000001366196602326522556_" gradientUnits="userSpaceOnUse" x1="90.977" y1="279.322" x2="98.754" y2="279.322" gradientTransform="matrix(-1 0 0 1 525.9 0)"><stop offset="0" style="stop-color:#000b17;stop-opacity:.5"/><stop offset=".996" style="stop-color:#000;stop-opacity:0"/></linearGradient><path style="-webkit-clip-path:url(#SVGID_00000000932808632656583130000009132158616363221422_);clip-path:url(#SVGID_00000000932808632656583130000009132158616363221422_);fill:url(#SVGID_00000098915444207593682040000001366196602326522556_)" d="M427.146 423.706h7.777V134.938h-7.777z"/><path style="fill:#ffc45f" d="M342.226 109.557v312.104a105.31 105.31 0 0 0 59.686 0V109.557h-59.686z"/><defs><path id="SVGID_83_" d="M401.912 119.025a105.31 105.31 0 0 1-59.686 0V81.369h59.686v37.656z"/></defs><clipPath id="SVGID_00000073682757399492085890000007794655311114280856_"><use xlink:href="#SVGID_83_" style="overflow:visible"/></clipPath><path style="-webkit-clip-path:url(#SVGID_00000073682757399492085890000007794655311114280856_);clip-path:url(#SVGID_00000073682757399492085890000007794655311114280856_);fill:#ebebeb" d="M401.912 119.025a105.31 105.31 0 0 1-59.686 0V81.369h59.686v37.656z"/><g style="-webkit-clip-path:url(#SVGID_00000073682757399492085890000007794655311114280856_);clip-path:url(#SVGID_00000073682757399492085890000007794655311114280856_)"><path style="fill:none;stroke:#d6d6d6;stroke-width:.75px;stroke-miterlimit:10" d="M348.165 80.056v42.755M353.477 80.115v42.755M358.789 80.174v42.755M364.101 80.233v42.755M369.413 80.293v42.754M374.725 80.352v42.754M380.037 80.411v42.754M385.349 80.47v42.754M390.661 80.529v42.755M395.973 80.588v42.754"/></g><path style="fill:#d6d6d6" d="M401.917 114.161v3.643a105.46 105.46 0 0 1-59.694 0v-3.643a105.46 105.46 0 0 0 59.694 0z"/><path style="fill:#ffdda3" d="M342.226 80.158v38.573h3.082V80.158a1.541 1.541 0 0 0-3.082 0zM398.83 79.84v38.892h3.082V79.84c0-.675-.69-1.223-1.541-1.223s-1.541.547-1.541 1.223z"/><path style="fill:none;stroke:#db9952;stroke-width:2px;stroke-linecap:round;stroke-linejoin:round;stroke-miterlimit:10" d="M387.36 182.034c2.706.8 4.08 4.316 2.897 6.878-1.182 2.562-4.427 3.836-7.145 3.078s-4.759-3.275-5.302-6.044c-.543-2.769.287-5.7 1.895-8.019 1.979-2.855 5.002-4.805 7.315-7.397 3.271-3.666 5.19-9.133 3.388-13.917-3.054-8.107-14.096-8.893-17.572-.618-.817 1.946-1.047 4.184-.369 6.183.678 1.999 2.333 3.703 4.388 4.186 2.055.483 4.428-.418 5.438-2.271 1.011-1.853.352-4.504-1.521-5.477"/><path style="fill:none;stroke:#db9952;stroke-width:2px;stroke-linecap:round;stroke-linejoin:round;stroke-miterlimit:10" d="M356.779 182.034c-2.706.8-4.08 4.316-2.897 6.878 1.182 2.562 4.427 3.836 7.145 3.078s4.759-3.275 5.302-6.044c.543-2.769-.287-5.7-1.895-8.019-1.979-2.855-5.002-4.805-7.315-7.397-3.271-3.666-5.19-9.133-3.388-13.917 3.055-8.107 14.096-8.893 17.572-.618.817 1.946 1.047 4.184.369 6.183-.678 1.999-2.333 3.703-4.388 4.186-2.055.483-4.428-.418-5.438-2.271s-.352-4.504 1.521-5.477M356.779 364.006c-2.706-.8-4.08-4.316-2.897-6.878 1.182-2.562 4.427-3.836 7.145-3.078s4.759 3.275 5.302 6.043c.543 2.769-.287 5.7-1.895 8.019-1.979 2.855-5.002 4.805-7.315 7.397-3.271 3.666-5.19 9.133-3.388 13.917 3.055 8.108 14.096 8.893 17.572.618.817-1.946 1.047-4.184.369-6.183-.678-1.999-2.333-3.703-4.388-4.185-2.055-.483-4.428.418-5.438 2.271-1.011 1.853-.352 4.504 1.521 5.477"/><path style="fill:none;stroke:#db9952;stroke-width:2px;stroke-linecap:round;stroke-linejoin:round;stroke-miterlimit:10" d="M387.36 364.006c2.706-.8 4.08-4.316 2.897-6.878-1.182-2.562-4.427-3.836-7.145-3.078s-4.759 3.275-5.302 6.043c-.543 2.769.287 5.7 1.895 8.019 1.979 2.855 5.002 4.805 7.315 7.397 3.271 3.666 5.19 9.133 3.388 13.917-3.054 8.108-14.096 8.893-17.572.618-.817-1.946-1.047-4.184-.369-6.183.678-1.999 2.333-3.703 4.388-4.185 2.055-.483 4.428.418 5.438 2.271 1.011 1.853.352 4.504-1.521 5.477"/><path style="fill:#db9952" d="M401.917 125.5v14.058a105.46 105.46 0 0 1-59.694 0V125.5a105.46 105.46 0 0 0 59.694 0zM401.917 197.509v14.058a105.46 105.46 0 0 1-59.694 0v-14.058a105.46 105.46 0 0 0 59.694 0zM401.917 399.655v14.058a105.46 105.46 0 0 1-59.694 0v-14.058a105.46 105.46 0 0 0 59.694 0zM401.917 327.669v14.058a105.46 105.46 0 0 1-59.694 0v-14.058a105.442 105.442 0 0 0 59.694 0z"/><path style="fill:none;stroke:#db9952;stroke-width:2px;stroke-linecap:round;stroke-linejoin:round;stroke-miterlimit:10" d="M347.344 219.586v102.125a86.62 86.62 0 0 0 49.03 0V219.586a86.62 86.62 0 0 1-49.03 0z"/><path style="fill:none;stroke:#db9952;stroke-linecap:round;stroke-linejoin:round;stroke-miterlimit:10" d="M371.859 321.622a82.957 82.957 0 0 1-20.884-2.67v-94.643a90.257 90.257 0 0 0 41.768 0v94.643a82.95 82.95 0 0 1-20.884 2.67z"/><path style="fill:#ffc45f" d="M342.223 130.1a105.066 105.066 0 0 0 21.786 3.994v4.854a105.066 105.066 0 0 1-21.786-3.994V130.1zM401.917 130.1v4.854a105.066 105.066 0 0 1-21.786 3.994v-4.854a105 105 0 0 0 21.786-3.994zM342.223 404.416a105.066 105.066 0 0 0 21.786 3.994v4.853a105.066 105.066 0 0 1-21.786-3.994v-4.853zM401.917 404.416v4.854a105.066 105.066 0 0 1-21.786 3.994v-4.853a105.068 105.068 0 0 0 21.786-3.995zM342.223 332.431a105.066 105.066 0 0 0 21.786 3.994v4.853a105.066 105.066 0 0 1-21.786-3.994v-4.853zM401.917 332.431v4.853a105.066 105.066 0 0 1-21.786 3.994v-4.853a105.066 105.066 0 0 0 21.786-3.994zM342.223 202.27a105.066 105.066 0 0 0 21.786 3.994v4.854a105.066 105.066 0 0 1-21.786-3.994v-4.854zM401.917 202.27v4.854a105.066 105.066 0 0 1-21.786 3.994v-4.854a105 105 0 0 0 21.786-3.994z"/><path style="fill:#ffdda3" d="M401.917 115.933v3.643a105.46 105.46 0 0 1-59.694 0v-3.643a105.46 105.46 0 0 0 59.694 0z"/><defs><path id="SVGID_85_" d="M401.917 119.578v302.089a105.46 105.46 0 0 1-59.694 0V119.578a105.46 105.46 0 0 0 59.694 0z"/></defs><clipPath id="SVGID_00000172409936462885576220000016359991101053380777_"><use xlink:href="#SVGID_85_" style="overflow:visible"/></clipPath><linearGradient id="SVGID_00000114047064015443182220000001685279121865542786_" gradientUnits="userSpaceOnUse" x1="238.357" y1="271.853" x2="246.134" y2="271.853" gradientTransform="translate(103.87)"><stop offset="0" style="stop-color:#000b17;stop-opacity:.5"/><stop offset=".996" style="stop-color:#000;stop-opacity:0"/></linearGradient><path style="-webkit-clip-path:url(#SVGID_00000172409936462885576220000016359991101053380777_);clip-path:url(#SVGID_00000172409936462885576220000016359991101053380777_);fill:url(#SVGID_00000114047064015443182220000001685279121865542786_)" d="M342.226 119.695h7.777v304.318h-7.777z"/><linearGradient id="SVGID_00000088850646080496341140000017455754594690538657_" gradientUnits="userSpaceOnUse" x1="97.015" y1="271.813" x2="104.792" y2="271.813" gradientTransform="matrix(-1 0 0 1 498.932 0)"><stop offset="0" style="stop-color:#000b17;stop-opacity:.5"/><stop offset=".996" style="stop-color:#000;stop-opacity:0"/></linearGradient><path style="-webkit-clip-path:url(#SVGID_00000172409936462885576220000016359991101053380777_);clip-path:url(#SVGID_00000172409936462885576220000016359991101053380777_);fill:url(#SVGID_00000088850646080496341140000017455754594690538657_)" d="M394.14 424.049h7.777V119.578h-7.777z"/><path style="fill:#e3544b" d="M265.906 90.718v330.944a134.66 134.66 0 0 0 76.32 0V90.718h-76.32z"/><path style="fill:#ebebeb" d="M342.226 102.825a134.66 134.66 0 0 1-76.32 0V54.674h76.32v48.151z"/><defs><path id="SVGID_1_" d="M342.226 102.825a134.66 134.66 0 0 1-76.32 0V54.674h76.32v48.151z"/></defs><clipPath id="SVGID_00000101079269581034008190000001395283322815429008_"><use xlink:href="#SVGID_1_" style="overflow:visible"/></clipPath><g style="-webkit-clip-path:url(#SVGID_00000101079269581034008190000001395283322815429008_);clip-path:url(#SVGID_00000101079269581034008190000001395283322815429008_)"><path style="fill:none;stroke:#d6d6d6;stroke-width:.75px;stroke-miterlimit:10" d="M274.252 50.775v50.888M280.209 50.838v50.888M286.166 50.901v50.888M292.122 50.964v50.889M298.079 51.028v50.888M304.036 51.091v50.888M309.993 51.154v50.889M315.95 51.217v50.889M321.906 51.281v50.888M327.863 51.344v50.888M333.82 51.407v50.888"/></g><path style="fill:#d6d6d6" d="M342.226 96.1v5.212a134.65 134.65 0 0 1-76.312 0V96.1a134.65 134.65 0 0 0 76.312 0z"/><path style="fill:#ff766e" d="M265.906 53.578v47.884h3.941V53.578a1.971 1.971 0 0 0-3.941 0zM338.285 53.578v47.018h3.941V53.578a1.971 1.971 0 0 0-3.941 0z"/><path style="fill:#a63d38" d="M342.223 119.674v13.762a134.65 134.65 0 0 1-76.312 0v-13.762a134.668 134.668 0 0 0 76.312 0z"/><path style="fill:#a63d38" d="M342.223 139.382v13.762a134.65 134.65 0 0 1-76.312 0v-13.762a134.65 134.65 0 0 0 76.312 0zM342.223 372.403v13.762a134.65 134.65 0 0 1-76.312 0v-13.762a134.65 134.65 0 0 0 76.312 0z"/><path style="fill:#a63d38" d="M342.223 392.112v13.762a134.65 134.65 0 0 1-76.312 0v-13.762a134.65 134.65 0 0 0 76.312 0zM342.223 216.019v91.665a134.65 134.65 0 0 1-76.312 0v-91.665a134.65 134.65 0 0 0 76.312 0z"/><path style="fill:#a63d38" d="M342.223 204.396v6.881a134.65 134.65 0 0 1-76.312 0v-6.881a134.65 134.65 0 0 0 76.312 0zM342.223 313.204v6.881a134.65 134.65 0 0 1-76.312 0v-6.881a134.65 134.65 0 0 0 76.312 0z"/><path style="fill:#d75249" d="m271.538 268.047 32.498-28.509 32.499 28.509-32.499 28.509z"/><path style="fill:#a63d38" d="m288.056 268.047 15.98-14.018 15.981 14.018-15.981 14.019z"/><path style="fill:none;stroke:#a63d38;stroke-linecap:round;stroke-linejoin:round;stroke-miterlimit:10" d="m272.06 184.357 31.976-28.05 31.976 28.05-31.976 28.052z"/><path style="fill:#a63d38" d="m283.072 184.358 20.964-18.391L325 184.358l-20.964 18.39z"/><path style="fill:#d75249" d="m294.084 184.357 9.952-8.73 9.952 8.73-9.952 8.731z"/><path style="fill:none;stroke:#a63d38;stroke-linecap:round;stroke-linejoin:round;stroke-miterlimit:10" d="m272.06 352.049 31.976-28.05 31.976 28.05-31.976 28.052z"/><path style="fill:#a63d38" d="m283.072 352.049 20.964-18.39L325 352.049l-20.964 18.391z"/><path style="fill:#d75249" d="m294.084 352.049 9.952-8.73 9.952 8.73-9.952 8.731z"/><path style="fill:#ff766e" d="M342.223 98.652v5.212a134.65 134.65 0 0 1-76.312 0v-5.212a134.65 134.65 0 0 0 76.312 0z"/><defs><path id="SVGID_90_" d="M342.223 103.868v317.799a134.65 134.65 0 0 1-76.312 0V103.868a134.668 134.668 0 0 0 76.312 0z"/></defs><clipPath id="SVGID_00000023253256133162559420000011827774280380139145_"><use xlink:href="#SVGID_90_" style="overflow:visible"/></clipPath><linearGradient id="SVGID_00000046329605838092628270000015638343865000614036_" gradientUnits="userSpaceOnUse" x1="210.863" y1="263.9" x2="224.477" y2="263.9" gradientTransform="translate(55.044)"><stop offset="0" style="stop-color:#000b17;stop-opacity:.5"/><stop offset=".996" style="stop-color:#000;stop-opacity:0"/></linearGradient><path style="-webkit-clip-path:url(#SVGID_00000023253256133162559420000011827774280380139145_);clip-path:url(#SVGID_00000023253256133162559420000011827774280380139145_);fill:url(#SVGID_00000046329605838092628270000015638343865000614036_)" d="M265.906 104.018h13.615v319.765h-13.615z"/><linearGradient id="SVGID_00000172430787331516168110000005868394947201772160_" gradientUnits="userSpaceOnUse" x1="111.942" y1="263.94" x2="123.989" y2="263.94" gradientTransform="matrix(-1 0 0 1 454.165 0)"><stop offset="0" style="stop-color:#000b17;stop-opacity:.5"/><stop offset=".996" style="stop-color:#000;stop-opacity:0"/></linearGradient><path style="-webkit-clip-path:url(#SVGID_00000023253256133162559420000011827774280380139145_);clip-path:url(#SVGID_00000023253256133162559420000011827774280380139145_);fill:url(#SVGID_00000172430787331516168110000005868394947201772160_)" d="M330.176 424.013h12.047V103.867h-12.047z"/><path style="fill:#73b2ba" d="M231.099 111.883v309.811a61.408 61.408 0 0 0 34.807 0V111.883h-34.807z"/><defs><path id="SVGID_94_" d="M265.906 117.404a61.408 61.408 0 0 1-34.807 0v-21.96h34.807v21.96z"/></defs><clipPath id="SVGID_00000071552202409315117070000018092646083212252822_"><use xlink:href="#SVGID_94_" style="overflow:visible"/></clipPath><path style="-webkit-clip-path:url(#SVGID_00000071552202409315117070000018092646083212252822_);clip-path:url(#SVGID_00000071552202409315117070000018092646083212252822_);fill:#ebebeb" d="M265.906 117.404a61.408 61.408 0 0 1-34.807 0v-21.96h34.807v21.96z"/><g style="-webkit-clip-path:url(#SVGID_00000071552202409315117070000018092646083212252822_);clip-path:url(#SVGID_00000071552202409315117070000018092646083212252822_)"><path style="fill:none;stroke:#d6d6d6;stroke-width:.5px;stroke-miterlimit:10" d="M235.417 93.327v28.582M238.689 93.371v28.583M241.96 93.416v28.582M245.231 93.46v28.583M248.503 93.505v28.582M251.774 93.549v28.582M255.045 93.593v28.583M258.317 93.638v28.582M261.588 93.682v28.583"/></g><path style="fill:#d6d6d6" d="M265.911 116.151v2.912a61.485 61.485 0 0 1-34.809 0v-2.912a61.275 61.275 0 0 0 34.809 0z"/><path style="fill:#86cfd9" d="M231.099 94.324v25.35h2.229v-25.35c0-.55-.499-.997-1.115-.997-.615 0-1.114.446-1.114.997zM263.677 94.324v25.35h2.229v-25.35c0-.55-.499-.997-1.115-.997-.615 0-1.114.446-1.114.997z"/><path style="fill:#52959e" d="M265.911 122.831v4.865a61.485 61.485 0 0 1-34.809 0v-4.865a61.293 61.293 0 0 0 34.809 0z"/><path style="fill:#86cfd9" d="M265.911 117.404v2.912a61.485 61.485 0 0 1-34.809 0v-2.912a61.275 61.275 0 0 0 34.809 0z"/><path style="fill:#52959e" d="M265.911 199.058v4.865a61.485 61.485 0 0 1-34.809 0v-4.865a61.275 61.275 0 0 0 34.809 0zM262.265 141.308v47.077c-2.445.459-4.189 2.596-4.219 5.084a48.622 48.622 0 0 1-19.079.001c-.03-2.487-1.773-4.625-4.218-5.083V141.31c3.114.451 5.964-1.964 5.904-5.111a48.446 48.446 0 0 0 15.708-.001c-.06 3.145 2.789 5.561 5.904 5.11z"/><path style="fill:none;stroke:#73b2ba;stroke-width:.75px;stroke-miterlimit:10" d="M248.503 190.783c-2.175 0-4.356-.159-6.51-.474a8.904 8.904 0 0 0-3.615-4.346v-41.457a8.87 8.87 0 0 0 3.425-2.161 8.723 8.723 0 0 0 1.541-2.132 52.217 52.217 0 0 0 10.324 0 8.718 8.718 0 0 0 1.541 2.131 8.873 8.873 0 0 0 3.424 2.161v41.457a8.914 8.914 0 0 0-3.614 4.347c-2.157.315-4.34.474-6.516.474z"/><path style="fill:#52959e" d="M265.911 333.199v4.865a61.485 61.485 0 0 1-34.809 0v-4.865a61.275 61.275 0 0 0 34.809 0zM265.911 409.426v4.866a61.485 61.485 0 0 1-34.809 0v-4.866a61.275 61.275 0 0 0 34.809 0zM262.265 351.676v47.077c-2.445.459-4.189 2.596-4.219 5.084a48.622 48.622 0 0 1-19.079.001c-.03-2.488-1.773-4.625-4.218-5.084v-47.077c3.114.451 5.964-1.964 5.904-5.111a48.446 48.446 0 0 0 15.708-.001c-.06 3.147 2.789 5.562 5.904 5.111z"/><path style="fill:none;stroke:#73b2ba;stroke-width:.75px;stroke-miterlimit:10" d="M248.505 401.152c-2.175 0-4.357-.16-6.512-.475a8.918 8.918 0 0 0-3.614-4.345v-41.458a8.859 8.859 0 0 0 3.424-2.161 8.746 8.746 0 0 0 1.542-2.132 52.157 52.157 0 0 0 10.324 0c.396.773.913 1.49 1.541 2.13a8.876 8.876 0 0 0 3.424 2.162v41.458a8.911 8.911 0 0 0-3.614 4.346c-2.158.315-4.34.474-6.515.475z"/><path style="fill:#52959e" d="M265.911 226.244v4.866a61.485 61.485 0 0 1-34.809 0v-4.866a61.275 61.275 0 0 0 34.809 0zM265.907 208.918v13.242a61.485 61.485 0 0 1-34.809 0v-13.242a61.275 61.275 0 0 0 34.809 0zM265.907 313.89v13.242a61.485 61.485 0 0 1-34.809 0V313.89a61.275 61.275 0 0 0 34.809 0zM265.911 302.471v4.866a61.485 61.485 0 0 1-34.809 0v-4.866a61.275 61.275 0 0 0 34.809 0zM262.265 244.721v47.077c-2.445.459-4.189 2.596-4.219 5.084a48.622 48.622 0 0 1-19.079.001c-.03-2.488-1.773-4.625-4.218-5.083v-47.077c3.114.451 5.964-1.964 5.904-5.11a48.446 48.446 0 0 0 15.708-.001c-.06 3.145 2.789 5.56 5.904 5.109z"/><path style="fill:none;stroke:#73b2ba;stroke-width:.75px;stroke-miterlimit:10" d="M248.5 294.196c-2.174 0-4.353-.158-6.506-.474a8.908 8.908 0 0 0-3.615-4.346v-41.458a8.87 8.87 0 0 0 3.425-2.161 8.723 8.723 0 0 0 1.541-2.132 52.041 52.041 0 0 0 10.324 0 8.718 8.718 0 0 0 1.541 2.131 8.9 8.9 0 0 0 3.424 2.162v41.456a8.916 8.916 0 0 0-3.614 4.346 44.932 44.932 0 0 1-6.52.476z"/><defs><path id="SVGID_96_" d="M265.911 120.316V421.69a61.275 61.275 0 0 1-34.809 0V120.316a61.485 61.485 0 0 0 34.809 0z"/></defs><clipPath id="SVGID_00000121276639106317911510000006153832532730771120_"><use xlink:href="#SVGID_96_" style="overflow:visible"/></clipPath><linearGradient id="SVGID_00000113311669874247888930000013462783747382233754_" gradientUnits="userSpaceOnUse" x1="231.099" y1="272.286" x2="238.876" y2="272.286"><stop offset="0" style="stop-color:#000b17;stop-opacity:.5"/><stop offset=".996" style="stop-color:#000;stop-opacity:0"/></linearGradient><path style="-webkit-clip-path:url(#SVGID_00000121276639106317911510000006153832532730771120_);clip-path:url(#SVGID_00000121276639106317911510000006153832532730771120_);fill:url(#SVGID_00000113311669874247888930000013462783747382233754_)" d="M231.099 120.36h7.777v303.852h-7.777z"/><linearGradient id="SVGID_00000108280334805817441020000004023916040326356666_" gradientUnits="userSpaceOnUse" x1="118.012" y1="272.099" x2="125.789" y2="272.099" gradientTransform="matrix(-1 0 0 1 383.909 0)"><stop offset="0" style="stop-color:#000b17;stop-opacity:.5"/><stop offset=".996" style="stop-color:#000;stop-opacity:0"/></linearGradient><path style="-webkit-clip-path:url(#SVGID_00000121276639106317911510000006153832532730771120_);clip-path:url(#SVGID_00000121276639106317911510000006153832532730771120_);fill:url(#SVGID_00000108280334805817441020000004023916040326356666_)" d="M258.119 423.783h7.777V120.414h-7.777z"/><path style="fill:#264360" d="M169.095 103.162v318.529a109.395 109.395 0 0 0 62.005 0V103.162h-62.005z"/><defs><path id="SVGID_100_" d="M231.099 112.998a109.395 109.395 0 0 1-62.005 0v-39.12h62.005v39.12z"/></defs><clipPath id="SVGID_00000044136254725280588300000007270343332267156133_"><use xlink:href="#SVGID_100_" style="overflow:visible"/></clipPath><path style="-webkit-clip-path:url(#SVGID_00000044136254725280588300000007270343332267156133_);clip-path:url(#SVGID_00000044136254725280588300000007270343332267156133_);fill:#ebebeb" d="M231.099 112.998a109.395 109.395 0 0 1-62.005 0v-39.12h62.005v39.12z"/><g style="-webkit-clip-path:url(#SVGID_00000044136254725280588300000007270343332267156133_);clip-path:url(#SVGID_00000044136254725280588300000007270343332267156133_)"><path style="fill:none;stroke:#d6d6d6;stroke-width:.75px;stroke-miterlimit:10" d="M176.757 72.034v48.238M182.049 72.1v48.238M187.341 72.167v48.238M192.633 72.234v48.237M197.925 72.3v48.238M203.217 72.367v48.238M208.509 72.433v48.238M213.801 72.5v48.238M219.093 72.567v48.237M224.385 72.633v48.238"/></g><path style="fill:#d6d6d6" d="M231.104 111.544v4.844a109.416 109.416 0 0 1-62.006 0v-4.844a109.416 109.416 0 0 0 62.006 0z"/><path style="fill:#508cc9" d="M169.095 71.859v43.836l3.991 2.449V71.859c0-.852-.893-1.542-1.995-1.542-1.103 0-1.996.69-1.996 1.542zM227.113 71.859v46.285l3.991-1.325v-44.96c0-.852-.893-1.542-1.995-1.542s-1.996.69-1.996 1.542z"/><path style="fill:#1c334d" d="M169.095 266.891v154.8a109.395 109.395 0 0 0 62.005 0v-154.8h-62.005zM231.104 142.686v33.171a109.416 109.416 0 0 1-62.006 0v-33.171a109.416 109.416 0 0 0 62.006 0zM231.104 200.956v10.36a109.416 109.416 0 0 1-62.006 0v-10.36a109.416 109.416 0 0 0 62.006 0z"/><path style="fill:#264360" d="M231.104 322.281v10.36a109.416 109.416 0 0 1-62.006 0v-10.36a109.416 109.416 0 0 0 62.006 0zM231.104 356.903v33.171a109.416 109.416 0 0 1-62.006 0v-33.171a109.416 109.416 0 0 0 62.006 0zM231.104 235.258v33.171a109.416 109.416 0 0 1-62.006 0v-33.171a109.398 109.398 0 0 0 62.006 0z"/><path style="fill:#1c334d" d="M203.418 191.8a3.317 3.317 0 1 1-6.634 0 3.317 3.317 0 0 1 6.634 0z"/><circle style="fill:#1c334d" cx="211.774" cy="191.171" r="3.317"/><path style="fill:#1c334d" d="M227.039 189.413a3.317 3.317 0 1 1-6.634 0 3.317 3.317 0 0 1 6.634 0z"/><circle style="fill:#1c334d" cx="188.419" cy="191.171" r="3.317"/><path style="fill:#1c334d" d="M173.154 189.413a3.317 3.317 0 1 0 6.634 0 3.317 3.317 0 0 0-6.634 0zM203.418 137.286a3.317 3.317 0 1 1-6.634 0 3.317 3.317 0 0 1 6.634 0z"/><circle style="fill:#1c334d" cx="211.774" cy="136.658" r="3.317"/><path style="fill:#1c334d" d="M227.039 134.9a3.317 3.317 0 1 1-6.634 0 3.317 3.317 0 0 1 6.634 0z"/><circle style="fill:#1c334d" cx="188.419" cy="136.658" r="3.317"/><path style="fill:#1c334d" d="M173.154 134.9a3.317 3.317 0 1 0 6.634 0 3.317 3.317 0 0 0-6.634 0z"/><path style="fill:#264360" d="M203.418 349.873a3.317 3.317 0 1 1-6.634 0 3.317 3.317 0 0 1 6.634 0zM215.092 349.244a3.317 3.317 0 1 1-6.634 0 3.317 3.317 0 0 1 6.634 0z"/><circle style="fill:#264360" cx="223.722" cy="347.486" r="3.317"/><path style="fill:#264360" d="M185.102 349.244a3.317 3.317 0 1 0 6.634 0 3.317 3.317 0 0 0-6.634 0z"/><circle style="fill:#264360" cx="176.471" cy="347.486" r="3.317"/><path style="fill:#264360" d="M203.418 408.078a3.317 3.317 0 1 1-6.634 0 3.317 3.317 0 0 1 6.634 0z"/><circle style="fill:#264360" cx="211.774" cy="407.449" r="3.317"/><path style="fill:#264360" d="M227.039 405.691a3.317 3.317 0 1 1-6.634 0 3.317 3.317 0 0 1 6.634 0z"/><circle style="fill:#264360" cx="188.419" cy="407.449" r="3.317"/><path style="fill:#264360" d="M173.154 405.691a3.317 3.317 0 1 0 6.634 0 3.317 3.317 0 0 0-6.634 0z"/><path style="fill:#1c334d" d="M231.104 369.253v8.471a109.416 109.416 0 0 1-62.006 0v-8.471a109.416 109.416 0 0 0 62.006 0z"/><path style="fill:#264360" d="M231.104 155.036v8.471a109.416 109.416 0 0 1-62.006 0v-8.471a109.416 109.416 0 0 0 62.006 0z"/><path style="fill:#508cc9" d="M231.104 112.993v4.844a109.416 109.416 0 0 1-62.006 0v-4.844a109.416 109.416 0 0 0 62.006 0z"/><path style="fill:none;stroke:#264360;stroke-width:2px;stroke-linecap:round;stroke-linejoin:round;stroke-miterlimit:10" d="M225.011 269.811v37.463a87.911 87.911 0 0 1-49.82 0v-37.71"/><path style="fill:none;stroke:#1c334d;stroke-width:2px;stroke-linecap:round;stroke-linejoin:round;stroke-miterlimit:10" d="M175.192 269.564v-43.247a87.911 87.911 0 0 0 49.82 0v43.494"/><defs><path id="SVGID_102_" d="M231.102 117.835V421.69a109.416 109.416 0 0 1-62.006 0V117.835a109.416 109.416 0 0 0 62.006 0z"/></defs><clipPath id="SVGID_00000123425347922383799980000017879576436756123071_"><use xlink:href="#SVGID_102_" style="overflow:visible"/></clipPath><linearGradient id="SVGID_00000060026543124429084460000002652474412671348158_" gradientUnits="userSpaceOnUse" x1="103.943" y1="271.036" x2="111.72" y2="271.036" gradientTransform="matrix(-1 0 0 1 335.042 0)"><stop offset="0" style="stop-color:#000b17;stop-opacity:.5"/><stop offset=".996" style="stop-color:#000;stop-opacity:0"/></linearGradient><path style="-webkit-clip-path:url(#SVGID_00000123425347922383799980000017879576436756123071_);clip-path:url(#SVGID_00000123425347922383799980000017879576436756123071_);fill:url(#SVGID_00000060026543124429084460000002652474412671348158_)" d="M223.322 424.212h7.777V117.86h-7.777z"/><linearGradient id="SVGID_00000011746336145890208490000016051276552803185552_" gradientUnits="userSpaceOnUse" x1="224.349" y1="271.239" x2="232.125" y2="271.239" gradientTransform="translate(-55.251)"><stop offset="0" style="stop-color:#000b17;stop-opacity:.5"/><stop offset=".996" style="stop-color:#000;stop-opacity:0"/></linearGradient><path style="-webkit-clip-path:url(#SVGID_00000123425347922383799980000017879576436756123071_);clip-path:url(#SVGID_00000123425347922383799980000017879576436756123071_);fill:url(#SVGID_00000011746336145890208490000016051276552803185552_)" d="M169.097 117.86h7.777v306.758h-7.777z"/><path style="fill:#ffc45f" d="M128.929 136.38v285.325a71.068 71.068 0 0 0 40.277 0V136.38h-40.277z"/><defs><path id="SVGID_106_" d="M169.206 142.769a71.068 71.068 0 0 1-40.277 0v-25.411h40.277v25.411z"/></defs><clipPath id="SVGID_00000033329017229228204440000000890187418086745260_"><use xlink:href="#SVGID_106_" style="overflow:visible"/></clipPath><path style="-webkit-clip-path:url(#SVGID_00000033329017229228204440000000890187418086745260_);clip-path:url(#SVGID_00000033329017229228204440000000890187418086745260_);fill:#ebebeb" d="M169.206 142.769a71.068 71.068 0 0 1-40.277 0v-25.411h40.277v25.411z"/><g style="-webkit-clip-path:url(#SVGID_00000033329017229228204440000000890187418086745260_);clip-path:url(#SVGID_00000033329017229228204440000000890187418086745260_)"><path style="fill:none;stroke:#d6d6d6;stroke-width:.5px;stroke-miterlimit:10" d="M134.316 115.23v33.09M138.004 115.282v33.089M141.693 115.333v33.09M145.381 115.384v33.09M149.07 115.436v33.09M152.758 115.487v33.09M156.447 115.539v33.089M160.135 115.59v33.09M163.824 115.641v33.09"/></g><path style="fill:#d6d6d6" d="M169.21 141.446v3.092a71.061 71.061 0 0 1-40.28 0v-3.092a71.061 71.061 0 0 0 40.28 0z"/><path style="fill:#ffdda3" d="M128.929 116.466v29.216h2.792v-29.216c0-.683-.625-1.236-1.396-1.236-.771 0-1.396.554-1.396 1.236zM166.414 116.466v29.216h2.792v-29.216c0-.683-.625-1.236-1.396-1.236-.771 0-1.396.554-1.396 1.236z"/><path style="fill:#db9952" d="M169.21 151.458v8.472a71.061 71.061 0 0 1-40.28 0v-8.472a71.061 71.061 0 0 0 40.28 0zM169.21 405.016v8.472a71.061 71.061 0 0 1-40.28 0v-8.472a71.061 71.061 0 0 0 40.28 0zM169.21 167.321v37.436c-3.716-7.359-11.341-12.394-20.14-12.394-8.811 0-16.424 5.035-20.14 12.394v-37.436a71.061 71.061 0 0 0 40.28 0z"/><path style="fill:none;stroke:#ffc45f;stroke-miterlimit:10" d="M165.579 194.564c-4.573-3.718-10.353-5.833-16.509-5.833-6.156 0-11.936 2.115-16.509 5.833v-22.546a74.644 74.644 0 0 0 33.018 0v22.546z"/><path style="fill:#db9952" d="M169.21 360.75v36.613a71.061 71.061 0 0 1-40.28 0V360.75c3.68 7.395 11.317 12.478 20.14 12.478s16.46-5.083 20.14-12.478z"/><path style="fill:none;stroke:#ffc45f;stroke-miterlimit:10" d="M149.069 396.645a67.367 67.367 0 0 1-16.509-2.052v-23.581c4.565 3.729 10.342 5.848 16.509 5.848 6.166 0 11.944-2.12 16.509-5.848v23.581a67.355 67.355 0 0 1-16.509 2.052z"/><path style="fill:#db9952" d="M149.067 363.562c-7.909 0-14.32-6.411-14.32-14.32V215.521c0-7.909 6.411-14.32 14.32-14.32 7.909 0 14.32 6.411 14.32 14.32v133.721c0 7.909-6.411 14.32-14.32 14.32z"/><path style="fill:none;stroke:#ffc45f;stroke-miterlimit:10" d="M149.067 359.931c-5.894 0-10.689-4.795-10.689-10.689V215.521c0-5.894 4.795-10.689 10.689-10.689s10.689 4.795 10.689 10.689v133.721c0 5.893-4.795 10.689-10.689 10.689z"/><path style="fill:#ffdda3" d="M169.21 142.769v3.092a71.061 71.061 0 0 1-40.28 0v-3.092a71.061 71.061 0 0 0 40.28 0z"/><defs><path id="SVGID_108_" d="M169.205 145.866v275.836a71.061 71.061 0 0 1-40.28 0V145.866a71.061 71.061 0 0 0 40.28 0z"/></defs><clipPath id="SVGID_00000106121222686567031830000007786452831185506694_"><use xlink:href="#SVGID_108_" style="overflow:visible"/></clipPath><linearGradient id="SVGID_00000069387084803510296920000003863257593465315742_" gradientUnits="userSpaceOnUse" x1="116.299" y1="285.195" x2="124.076" y2="285.195" gradientTransform="matrix(-1 0 0 1 285.393 0)"><stop offset="0" style="stop-color:#000b17;stop-opacity:.5"/><stop offset=".996" style="stop-color:#000;stop-opacity:0"/></linearGradient><path style="-webkit-clip-path:url(#SVGID_00000106121222686567031830000007786452831185506694_);clip-path:url(#SVGID_00000106121222686567031830000007786452831185506694_);fill:url(#SVGID_00000069387084803510296920000003863257593465315742_)" d="M161.317 424.618h7.777V145.772h-7.777z"/><linearGradient id="SVGID_00000175290014293415874420000017899806677956447640_" gradientUnits="userSpaceOnUse" x1="208.589" y1="285.195" x2="216.366" y2="285.195" gradientTransform="translate(-79.66)"><stop offset="0" style="stop-color:#000b17;stop-opacity:.5"/><stop offset=".996" style="stop-color:#000;stop-opacity:0"/></linearGradient><path style="-webkit-clip-path:url(#SVGID_00000106121222686567031830000007786452831185506694_);clip-path:url(#SVGID_00000106121222686567031830000007786452831185506694_);fill:url(#SVGID_00000175290014293415874420000017899806677956447640_)" d="M128.93 145.772h7.777v278.846h-7.777z"/><path style="fill:#ff8787" d="M79.709 168.84V421.693a86.838 86.838 0 0 0 49.22 0V168.84h-49.22z"/><defs><path id="SVGID_112_" d="M128.929 176.648a86.838 86.838 0 0 1-49.22 0v-31.054h49.22v31.054z"/></defs><clipPath id="SVGID_00000131339070915081079640000006847329993258438323_"><use xlink:href="#SVGID_112_" style="overflow:visible"/></clipPath><path style="-webkit-clip-path:url(#SVGID_00000131339070915081079640000006847329993258438323_);clip-path:url(#SVGID_00000131339070915081079640000006847329993258438323_);fill:#ebebeb" d="M128.929 176.648a86.838 86.838 0 0 1-49.22 0v-31.054h49.22v31.054z"/><g style="-webkit-clip-path:url(#SVGID_00000131339070915081079640000006847329993258438323_);clip-path:url(#SVGID_00000131339070915081079640000006847329993258438323_)"><path style="fill:none;stroke:#d6d6d6;stroke-width:.5px;stroke-miterlimit:10" d="M86.497 142.903v40.322M90.549 142.958v40.322M94.602 143.014v40.322M98.654 143.07v40.321M102.706 143.125v40.322M106.759 143.181v40.322M110.811 143.237v40.322M114.863 143.292v40.322M118.916 143.348v40.322M122.968 143.404v40.322"/></g><path style="fill:#d6d6d6" d="M128.925 175.22v3.643a86.845 86.845 0 0 1-49.212 0v-3.643a86.863 86.863 0 0 0 49.212 0z"/><path style="fill:#ffb5b5" d="M79.709 144.189v35.493h3.226v-35.493c0-.784-.722-1.42-1.613-1.42s-1.613.636-1.613 1.42zM125.703 144.189v35.493h3.226v-35.493c0-.784-.722-1.42-1.613-1.42s-1.613.636-1.613 1.42z"/><path style="fill:#ffb5b5" d="M128.925 176.607v3.643a86.845 86.845 0 0 1-49.212 0v-3.643a86.845 86.845 0 0 0 49.212 0z"/><path style="fill:#e67070" d="M128.925 189.987v14.583a86.845 86.845 0 0 1-49.212 0v-14.583a86.845 86.845 0 0 0 49.212 0zM128.925 210.656v179.249a86.845 86.845 0 0 1-49.212 0V210.656a86.863 86.863 0 0 0 49.212 0zM128.925 396.563v14.583a86.845 86.845 0 0 1-49.212 0v-14.583a86.845 86.845 0 0 0 49.212 0z"/><path style="fill:#ff8787" d="M123.61 219.976v162.458a68.087 68.087 0 0 1-38.582 0V219.976a68.105 68.105 0 0 0 38.582 0z"/><path style="fill:#e67070" d="M123.612 235.202v10.603a67.96 67.96 0 0 1-38.586 0v-10.603a68.189 68.189 0 0 0 38.586 0zM123.612 356.862v10.603a67.96 67.96 0 0 1-38.586 0v-10.603a68.171 68.171 0 0 0 38.586 0z"/><path style="fill:none;stroke:#e67070;stroke-miterlimit:10" d="m80.753 304.49 23.566-28.137 23.566 28.137-23.566 28.137z"/><path style="fill:#e67070" d="M104.319 325.087 87.068 304.49l17.251-20.597 17.251 20.597z"/><path style="fill:#ff8787" d="m93.383 304.49 10.936-13.057 10.935 13.057-10.935 13.057z"/><path style="fill:none;stroke:#e67070;stroke-miterlimit:10" d="m87.044 340.922 17.275-20.624 17.275 20.624-17.275 20.625z"/><path style="fill:#e67070" d="m104.319 354.007-10.96-13.085 10.96-13.085 10.959 13.085z"/><path style="fill:#ff8787" d="m98.096 340.922 6.223-7.43 6.223 7.43-6.223 7.431z"/><path style="fill:none;stroke:#e67070;stroke-miterlimit:10" d="m87.044 268.058 17.275-20.625 17.275 20.625-17.275 20.624z"/><path style="fill:#e67070" d="m104.319 281.143-10.96-13.085 10.96-13.085 10.959 13.085z"/><path style="fill:#ff8787" d="m98.096 268.058 6.223-7.431 6.223 7.431-6.223 7.43z"/><defs><path id="SVGID_114_" d="M128.925 180.252V421.69a86.845 86.845 0 0 1-49.212 0V180.252a86.845 86.845 0 0 0 49.212 0z"/></defs><clipPath id="SVGID_00000085221266406163553450000012981333859306467718_"><use xlink:href="#SVGID_114_" style="overflow:visible"/></clipPath><linearGradient id="SVGID_00000162316155078037974200000016486988701779860109_" gradientUnits="userSpaceOnUse" x1="110.566" y1="302.413" x2="118.343" y2="302.413" gradientTransform="matrix(-1 0 0 1 239.495 0)"><stop offset="0" style="stop-color:#000b17;stop-opacity:.5"/><stop offset=".996" style="stop-color:#000;stop-opacity:0"/></linearGradient><path style="-webkit-clip-path:url(#SVGID_00000085221266406163553450000012981333859306467718_);clip-path:url(#SVGID_00000085221266406163553450000012981333859306467718_);fill:url(#SVGID_00000162316155078037974200000016486988701779860109_)" d="M121.153 424.618h7.777v-244.41h-7.777z"/></g></svg>