<svg width="336" height="204" fill="none" xmlns="http://www.w3.org/2000/svg"><g clip-path="url('#clip0_130_125')"><path d="M95.41 148.375s86.808 23.077 94.449 20.131c7.641-2.945 47.627-28.476 47.627-28.476s15.848-76.593 11.583-79.05c-4.265-2.454-85.776-23.074-99.596-19.146-13.821 3.927-53.484 20.13-54.03 27.003-.546 6.873-9.527 77.378-.033 79.538Z" fill="#56C8F1"/><path d="M249.069 60.98c-4.265-2.453-85.776-23.074-99.596-19.146-12.945 3.678-48.559 18.125-53.47 25.589 22.514 6.739 38.484 5.988 55.65 7.666 21.307 2.084 27.288 2.335 27.288 2.335s67.733-9.21 69.784-9.627c.191-.038.531-.218.989-.51.204-3.597.04-5.911-.645-6.306Z" fill="#95DCEC"/><path d="M180.603 87.799c3.064 15.279 6.209 73.27 7.428 76.047.463 1.056.444 2.955.538 4.887.544-.039.986-.11 1.29-.227 7.641-2.945 47.627-28.476 47.627-28.476s15.477-74.802 11.722-78.922c-19.606 6.69-17.53 7.338-42.975 9.398-30.88 2.5-28.695 2.014-25.63 17.293Z" fill="#7BD4E9"/><path d="M195.951 157.942c-5.791-.001-2.415-14.902-2.861-27.33-.463-12.917-8.337-42.086-8.183-47.365.154-5.278 10.499-6.806 20.844-7.362 10.344-.556 20.306-1.897 33.813-5.278.439-.11.837-.162 1.197-.162 4.563 0 2.955 8.452-2.626 16.691-6.021 8.89-2.045 7.64.116 18.752 2.161 11.111-2.348 15.628-2.503 25.628-.155 10.001-6.337 9.791-14.519 13.125-8.183 3.333-17.756 11.98-24.549 13.23a4.07 4.07 0 0 1-.729.071Z" fill="#99DEEC"/><path d="M176.566 163.282c-5.579 0-15.734-5.758-31.184-6.834-19.917-1.39-34.894-8.196-43.077-9.724-8.183-1.527-5.403-5.278-5.558-23.891-.155-18.612 2.47-34.586 2.007-39.725-.368-4.09.595-8.978 5.859-8.978 1.349 0 2.984.322 4.948 1.061 10.345 3.889 6.948 14.306 10.963 24.169 4.014 9.861 20.844 5 37.827 8.055 16.983 3.056 18.836 13.891 20.591 19.447 1.754 5.555 5.193 29.307 1.334 34.724-.866 1.215-2.096 1.697-3.71 1.696Z" fill="#80D6F1"/><path d="M119.617 73.594c-9.373-1.389-8.396-2.079-14.243-3.15-5.848-1.07-4.748-2.32-2.837-2.215 1.911.104 9.901 2.813 18.296 3.75 8.395.938 30.583.337 40.992 2.656 10.409 2.32 14.301.782 19.28-1.927 4.98-2.708 23.821-3.685 32.655-3.75 8.834-.066 19.627-3.23 23.564-4.688 3.938-1.458 3.764.834 0 1.719-3.762.886-4.92 2.592-17.137 4.03-12.217 1.44-26.923 1.96-31.497 3.366-4.574 1.407-6.89 1.511-7.18 4.324-.289 2.813 2.563 10.572 1.737 17.032-.824 6.461 3.755 19.277 2.895 29.273-.859 9.997 2.659 27.586.558 27.892-2.102.305-2.411-11.224-2.487-16.259-.078-5.035-1.274-22.259-2.548-25.94-1.274-3.68-.618-26.425-5.597-28.613-4.98-2.188-14.359-3.646-18.296-4.375-3.937-.73-23.391-.938-38.155-3.125ZM100.163 96.408c2.2-7.936-1.62-8.855-2.547-6.98s-3.185 19.516-2.027 26.461c1.158 6.944-1.467 22.015.077 26.946 1.544 4.931 4.632 3.82 11.811 5.904 7.179 2.083 13.219 5.359 23.237 6.319 10.018.96 31.796 6.487 31.416 4.46-.382-2.029-1.463-2.168-14.509-4.46-13.047-2.292-23.314-2.083-29.722-5.973-6.407-3.888-15.253-2.777-16.89-5.555-1.638-2.779-3.644-4.792-2.718-13.613.927-8.82-1.352-21.877 1.872-33.51ZM239.216 115.749c.695-4.548-.541-6.042-1.158-3.888-.618 2.152-3.011 8.472-3.088 12.743-.077 4.271-.772 11.425-1.583 12.64-.81 1.215-7.951 5.834-12.081 6.772-4.13.937-9.959 4.688-12.081 6.285-2.124 1.597-1.429 3.403 2.084 1.18 3.512-2.221 5.906-4.34 14.552-7.292 8.645-2.951 10.074-5.243 10.306-7.188.231-1.944 2.084-4.653 1.929-8.716-.154-4.062 1.12-12.536 1.12-12.536ZM105.661 64.53c7.1-6.27 43.193-22.918 49.562-21.877 6.368 1.042 78.742 13.127 76.889 15.314-1.853 2.188.926-.67-24.549-4.398-25.475-3.727-47.361-9.145-52.804-8.207-5.442.938-15.864 4.85-23.043 8.207-7.18 3.356-32.423 16.587-26.055 10.961Z" fill="#fff"/></g><defs><clipPath id="clip0_130_125"><path fill="#fff" d="M0 0h336v204H0z"/></clipPath></defs></svg>