<svg width="1117" height="1000" fill="none" xmlns="http://www.w3.org/2000/svg"><g clip-path="url('#clip0_135_301')"><path d="M0 0h1117v1000H0z"/><path d="M316.869 450.5a35.894 35.894 0 0 0 3.611 5.787c5.275 6.894 13.297 12.274 23.013 14.662 12.827 3.128 25.486.24 34.111-6.689 4.944-4.003 8.571-9.339 10.113-15.627.496-2.094.766-4.177.782-6.245.028-.336.012-.684.018-1.028-.005-.46-.033-.921-.086-1.363l-.012-.136a25.695 25.695 0 0 0-.547-3.83 12.986 12.986 0 0 0-.379-1.546 10.584 10.584 0 0 0-.241-.892c-.857-2.873-2.161-5.641-3.847-8.236a33.097 33.097 0 0 0-1.22-1.781l-.022-.001a35.044 35.044 0 0 0-3.483-4.083 30.786 30.786 0 0 0-1.984-1.861c-2.257-2.006-4.837-3.783-7.643-5.308a43.591 43.591 0 0 0-10.133-3.886l-.135-.033c-.588-.141-1.144-.279-1.733-.38a3.634 3.634 0 0 0-.671-.125c-19.361-3.616-37.773 6.264-41.824 22.842-1.649 6.743-.67 13.615 2.312 19.759Z" fill="#B34D22"/><path d="M253.616 444.481c-.052 2.992 3.848 8.071 3.848 8.071l6.536-1.535 10.563-2.506-13.075 8.972c7.817 5.513 16.592 4.301 26.329-3.28 0 0 .124.01.328 0 1.307.088 6.395.39 12.359.766 6.96.41 15.144.952 19.988 1.312 2.467.182 4.111.32 4.227.411l40.358 1.7 13.295.564 10.056-17.469.089-.12 4.058-7.06 2.661-4.626 3.057-5.286 3.178-5.51 3.486-6.077 1.756-3.052c-.748-.811-1.482-1.644-2.24-2.456-.665-.704-1.276-1.399-1.942-2.075l-.23-.25a52.442 52.442 0 0 0-1.757-1.856c-.315-.31-.613-.647-.949-.959-1.071-1.02-2.202-1.995-3.398-2.843a18.132 18.132 0 0 0-1.602-1.14l-.036-.004c-.172-.121-.31-.206-.482-.322a33.488 33.488 0 0 0-5.492-2.868 2.876 2.876 0 0 0-.449-.168 35.13 35.13 0 0 0-9.764-2.379c-.121-.037-.221-.045-.357-.057l-.023-.003a37.023 37.023 0 0 0-8.743.293c-.838.134-1.701.264-2.594.398-.759.117-1.462.24-2.252.352l-.023-.002c-23.581 3.747-62.169 10.43-81.559 17.166-1.59.562-3.065 1.105-4.372 1.669-1.552.637-3.596 1.371-5.841 2.161-.525.188-1.087.394-1.649.608-6.388 2.347-13.752 5.358-15.979 9.428-1.561 2.882-1.245 14.366-1.364 20.032Z" fill="#B34D22"/><path d="M709.64 582.481c.52 21.098 4.933 35.552 13.56 46.675 1.32 1.715 2.773 3.351 4.28 4.925a73.344 73.344 0 0 0 4.44 4.118c12.6 10.653 30.733 18.32 54.827 27.725 2.506.995 5.08 1.989 7.72 3.019 4.866 1.881 9.933 1.898 15.093.274 4.293-1.336 8.64-3.833 12.933-7.321 9.4-7.613 18.627-20.064 26.694-35.888 2.84-5.493 5.493-11.415 8-17.665 8.733-21.868 7.626-41.964-1.04-58.247a60.926 60.926 0 0 0-6.96-10.408c-15.107-18.252-41.427-29.729-74.454-30.405-10.213-.199-19.333.974-27.28 3.602-25.4 8.296-38.786 31.079-37.813 69.596Z" fill="#BE713B"/><path d="M618.12 338.799c1.253 11.164 1.973 22.073 2.16 32.737v.767c.027 1.242.027 2.484.04 3.733v.976c0 1.371-.013 2.735-.027 4.093v.376a428.935 428.935 0 0 1-.106 4.25c-.014.52-.027 1.041-.054 1.562-.026.9-.066 1.794-.093 2.692-.04.598-.067 1.184-.093 1.778-.04.876-.094 1.742-.134 2.616-.04.541-.066 1.085-.106 1.617-.094 1.387-.2 2.768-.294 4.144-1.693 21.053-5.72 41.045-12.173 59.94a221.125 221.125 0 0 1-27.973 55.284 385.576 385.576 0 0 1-3.88-2.596c-.334-.233-.694-.479-1.04-.728-1-.687-1.987-1.392-2.974-2.099a209.456 209.456 0 0 1-8.573-6.453 7.82 7.82 0 0 1-.387-.309 168.93 168.93 0 0 1-3.693-2.995l-.053-.047c-18.494-15.386-34.28-33.622-47.448-54.628a260.525 260.525 0 0 1-12.426-22.182c-8.725-17.479-15.928-36.543-21.653-57.167 10.459-5.997 21.116-11.249 32.016-15.591 11.697-4.67 23.671-8.301 36.017-10.69 15.534-3.02 31.254-4.007 47.187-3.387 8.52.331 17.107 1.119 25.76 2.307Z" fill="#FCE895"/><path d="M613.053 344.765c1.147 10.216 1.814 20.202 1.974 29.962 0 .232.013.464.013.701.013 1.14.027 2.276.027 3.415v.9c0 1.25 0 2.501-.027 3.745v.344c-.027 1.297-.053 2.593-.093 3.884l-.04 1.435c-.027.822-.067 1.642-.094 2.462l-.08 1.628c-.04.798-.093 1.596-.133 2.395-.027.491-.053.989-.093 1.48-.08 1.265-.174 2.533-.28 3.788-1.534 19.269-5.227 37.569-11.134 54.859a202.552 202.552 0 0 1-25.586 50.597c-1.2-.78-2.374-1.573-3.547-2.38-.32-.213-.64-.44-.96-.66-.92-.631-1.827-1.276-2.733-1.923-.267-.196-.547-.389-.814-.585a196.408 196.408 0 0 1-7.026-5.323l-.347-.28a181.705 181.705 0 0 1-3.387-2.745l-.053-.04c-22.627-18.831-40.827-42.328-54.787-70.296-7.985-15.996-14.581-33.443-19.822-52.32 9.57-5.487 19.324-10.295 29.304-14.271 10.705-4.276 21.665-7.594 32.958-9.782 21.814-4.238 44.08-4.107 66.76-.99Z" fill="#242626"/><path d="m602.933 456.259.16-.496a211.285 211.285 0 0 0 6.453-23.146 470.78 470.78 0 0 0 3.321 8.266 233.52 233.52 0 0 1-4.147 14.693l-5.787.683Zm.294-112.656-.027-.003c.013-.011.013-.021.027-.032v.035Zm-.2-.02a237.296 237.296 0 0 0-8.307-.666c-.72-2.192-1.52-4.332-2.36-6.425 2.387.093 4.773.221 7.173.384.067.099.12.211.187.333.947 1.747 2.84 5.686 3.307 6.374Z" fill="#A69962"/><path d="M598.76 456.748c-1.52-.303-3.053-.595-4.56-.892-8.307-1.641-18-3.04-25.893-7.252-3.227-1.721-6.627-3.612-9.667-5.836 5.587-2.404 10.987-5.573 16.093-9.503 10.694 1.568 21.214 3.831 23.68 5.686-2.293-2.54-5.12-4.934-8.373-7.186 3.187-.465 6.173-.966 8.973-1.494a175.846 175.846 0 0 0 8.92-1.908 394.868 394.868 0 0 0 1.614 4.254 211.512 211.512 0 0 1-6.454 23.146l-.16.496-4.173.489Zm.987-93.751c-1.08-6.47-2.734-12.969-4.8-19.39-.08-.231-.16-.46-.227-.69 2.76.172 5.533.395 8.307.666.04.057.066.092.08.101.026-.027.066-.055.093-.084l.027.003c-.28 3.558-.974 7.152-1.734 10.736-.653 3.084-1.453 6.029-1.746 8.658Z" fill="#181919"/><path d="m546.146 419.021.694 2.971 2.36 9.989c4.8-.066 9.52.163 14.24.391 8.293.403 16.573.807 25.173-.403 3.72-.522 7.187-1.092 10.4-1.698 39.267-7.38 41.774-20.059 41.774-20.059 2.866-4.732-3.454-11.58-10.76-16.785-3.174-2.262-6.534-4.214-9.4-5.543-1.547-.716-2.934-1.256-4.094-1.567-8.866-2.377-15.44 6.446-22.52 10.791-15.093 9.275-30.28 17.907-47.867 21.913Z" fill="#DFF7F3"/><path d="m546.84 421.992 2.36 9.989c4.8-.066 9.52.163 14.24.391 8.293.403 16.573.807 25.173-.403 3.72-.522 7.187-1.092 10.4-1.698 39.267-7.38 41.774-20.059 41.774-20.059 2.866-4.732-3.454-11.58-10.76-16.785-3.174-2.262-6.534-4.214-9.4-5.543 1.52 6.784.279 13.94-6.281 19.584-15.133 13.031-48.626 18.672-67.506 14.524Z" fill="#A5BFBB"/><path d="M571.533 417.211c-2.347 0-4.573-.222-6.6-.739 6.893-3.568 15.36-5.999 22.267-9.372 4.146-2.033 8.013-4.449 11.84-6.845a204.567 204.567 0 0 0 2.76 10.021c-1.827.939-3.56 1.656-4.934 2.057-7.64 2.234-17.213 4.878-25.333 4.878Z" fill="#EAFAF7"/><path d="M599.013 430.271a72.736 72.736 0 0 0 7.667-5.315c.413 1.14.827 2.272 1.253 3.407a175.846 175.846 0 0 1-8.92 1.908Z" fill="#617673"/><path d="M530.16 422.715c1.36-2.076 3.773-4.67 5.467-6.463 4.48-4.74 10.386-.059 15.573 1.264 0 0 1.107 21.024-11.08 20.327-1.84-.106-6.933.378-8.44-.862-1.36-1.122-1.44-5.561-1.8-7.204-.693-3.098-1.413-4.48.28-7.062Z" fill="#8D9E9B"/><path d="M530.427 413.571c2.88.798 5.653 2.372 8.266 5.041 7.787 7.969 5.787 17.036 7.467 26.428 3.053-.421 5.987-.511 9.067-1.248 1.293-11.993-3.854-24.989-13.067-32.449l-11.733 2.228ZM573.187 404.501c2.88.798 5.653 2.371 8.266 5.04 7.787 7.97 5.787 17.038 7.467 26.431 3.053-.423 5.987-.515 9.067-1.252 1.293-11.992-3.854-24.989-13.067-32.447l-11.733 2.228Z" fill="#592F18"/><path d="M728.253 850.128c-1.213 11.516-.626 21.361 2.187 27.231l36.613-34.543c2.8-2.7 1.214-5.261-1.453-8.103a34.832 34.832 0 0 1-1.76-2.134l-35.587 17.549Z" fill="#070706"/><path d="M811.413 745.615c.16 1.025.333 2.02.6 3.002 1.52 5.804 5.067 10.54 9.547 13.16.187.102.36.211.547.303 2.92 1.587 6.213 2.296 9.586 1.841l.187-.026c9.56-1.383 16.053-11.635 14.547-22.982-.56-4.27-2.214-8.082-4.534-11.114-2.613-3.438-6.093-5.86-9.933-6.846l-.014-.006a14.972 14.972 0 0 0-5.813-.347 14.62 14.62 0 0 0-3.666.975 16.132 16.132 0 0 0-4.267 2.569c-4.653 3.908-7.413 10.503-6.933 17.721.013.574.066 1.168.146 1.75ZM728.253 850.128l25.587-12.619 10-4.93c-2.813-3.717-5.707-9.064-7.747-14.662a47.233 47.233 0 0 1-1.413-4.262c-.187-.603-.333-1.207-.493-1.805-.734-3.01-1.147-5.938-1.107-8.553l-12.92 1.236-.027.062c-.386.881-.733 1.781-1.093 2.676l-.027.062c-4.426 11.23-7.733 23.306-9.586 34.432a125.058 125.058 0 0 0-1.174 8.363Z" fill="#A03A17"/><path d="M748.48 816.247c.947.263 1.907.508 2.893.73 1.547.356 3.147.655 4.72.94 3.04.51 6.04.883 8.467 1.151 2.907.295 5.573-1.621 6.12-4.479 3.32-17.308 33.987-35.518 61.2-50.694 2.24-1.28 4.493-2.508 6.68-3.73l-4.12-5.361-2.48-3.219-2.6-3.38-8.373-10.864c-1.52 2.868-3.694 5.735-6.374 8.594v.002a54.584 54.584 0 0 1-2.6 2.68c-20.746 20.039-63.253 39.78-71.853 55.916l-.027.062c-.48.902-.853 1.797-1.093 2.676l-.027.062a7.561 7.561 0 0 0-.333 1.777c-.347 3.259 4.12 5.561 9.8 7.137Z" fill="#A03A17"/><path d="M710.747 606.813c3.08 9.067 5.293 15.971 4.893 16.302.173.504.36 1.012.533 1.474.507 1.419 1 2.804 1.494 4.158 3.48 9.406 7.066 17.976 10.746 25.806 8.8 18.79 18.214 33.372 28.4 45.372 16.027 18.876 33.947 31.418 54.454 43.94 1.106.699 2.24 1.387 3.346 2.072v-.002c1.294.776 2.574 1.538 3.867 2.304 4.293.562 7.893.55 10.88-.034 1.52-.294 2.893-.75 4.093-1.4a12.135 12.135 0 0 0 3.44-2.554c2.88-3.083 4.4-7.848 5-14.452-3.44-2.222-6.773-4.487-9.933-6.838l-.013-.014c-16.96-12.467-29.52-26.851-31.054-44.031-.28-3.012-.2-6.135.24-9.316.614-4.532 2-9.237 4.24-14.12-4.093-7.873-8.346-14.997-12.786-21.193-.48-.678-.96-1.339-1.454-1.99-9.56-12.741-20-21.21-31.64-23.908-4.813-1.126-17.52-10.572-30.293-20.629a783.997 783.997 0 0 1-8.267-6.589c-12.946-10.374-24.133-19.638-24.8-19.12-.786.569 8.6 26.862 14.614 44.762Z" fill="#A03A17"/><path d="M748.48 816.247c.933 6.787 3.346 14.072 5.36 21.262l10-4.93c-2.814-3.718-5.693-9.065-7.747-14.662 3.04.508 6.04.883 8.467 1.151 2.907.293 5.573-1.621 6.12-4.479 3.32-17.308 33.986-35.518 61.2-50.694 9.56-1.383 16.053-11.635 14.547-22.982-.56-4.27-2.214-8.082-4.534-11.114-2.613-3.438-6.093-5.86-9.933-6.846l-.014-.006c-16.96-12.467-29.519-26.851-31.053-44.031-.28-3.012-.2-6.135.24-9.316.614-4.532 2-9.237 4.24-14.12-4.093-7.873-8.346-14.997-12.786-21.193-.48-.678-.96-1.339-1.454-1.99-.626 12.303-2.507 25.038-1.92 36.888.667 13.463 5.973 26.07 13.2 36.839 5.507 8.173 12.574 12.384 20.054 17.551a115.53 115.53 0 0 1 5.533 4.028c4.787 3.722 8.293 10.298 8.893 16.648.347 3.821-.347 7.562-2.453 10.553a12.683 12.683 0 0 1-1.573 1.839c-2.48 2.382-6.947 3.906-10.761 5.437-1.453.584-2.8 1.172-3.933 1.811-5.2 2.949-10.093 6.992-15.346 10.45-10.387 6.816-20.707 11.021-28.854 20.695-3.4 4.04-5.586 10.143-9.253 13.592-3.133 2.949-6.68 2.675-10.533 3.221-1.92.272-3.921.748-5.974 1.927.053.819.147 1.634.267 2.471Z" fill="#7F2811"/><path d="m383.305 853.368-52.213 5.715c1.163-5.599 4.475-11.864 9.575-18.297l46.806 5.594c.216 3.755-.317 6.591-4.168 6.988Z" fill="#070706"/><path d="M389.328 830.064c-2.023 4.979-2.336 9.957-1.889 15.641.016.229.016.454.033.678l-18.01-2.154-28.795-3.437c6.497-8.184 15.893-16.635 27.445-24.312a164.675 164.675 0 0 1 11.453-6.941l9.712 7.438 5.52 4.216c-2.536 3.058-4.293 5.964-5.469 8.871Z" fill="#A03A17"/><path d="M460.016 748.705a371.22 371.22 0 0 0-13.524 11.803 382.495 382.495 0 0 0-7.6 7.183c-19.939 19.414-37.632 41.507-37.98 56.418-.075 3.056-2.511 5.516-5.577 5.715-1.78.107-3.836.2-6.007.24-4.791.091-10.161-.057-14.469-.854-4.608-.851-7.998-2.434-8.188-5.25-.15-2.22.373-4.739 1.441-7.48 7.401-18.995 41.113-48.773 60.72-66.699 4.201-3.844 7.757-7.14 10.268-9.676l1.218.498 17.602 7.24 2.096.862Z" fill="#A03A17"/><path d="m570.627 644.68-20.747 46.903c-4.067 9.176-12.707 7.196-21.573 11.901l-60.61 45.096-19.696 14.653-1.509-2.725-1.649-2.983-7.243-13.086s.977-1.376 2.719-3.836c2.401-3.396 6.273-8.855 11.029-15.564 22.781-32.164 65.848-93.075 65.675-93.439 17.257-27.003 54.177-20.592 55.684 1.591.24 3.47-.387 7.322-2.08 11.489Z" fill="#A03A17"/><path d="M467.697 748.58c-1.076 3.007-2.708 6.007-4.905 8.789-6.655 8.448-16.383 12.375-23.9 10.322a13.392 13.392 0 0 1-4.789-2.395 13.122 13.122 0 0 1-3.166-3.612c-1.997-3.288-2.685-7.48-2.105-11.903.629-4.738 2.719-9.749 6.24-14.224 4.551-5.781 10.54-9.442 16.276-10.518 4.583-.871 9.008-.083 12.413 2.6 3.167 2.485 4.948 6.23 5.371 10.486.323 3.282-.157 6.876-1.435 10.455Z" fill="#A03A17"/><path d="m570.627 644.68-20.747 46.903c-4.067 9.176-12.707 7.196-21.573 11.901l-60.61 45.096c-1.076 3.005-2.708 6.007-4.905 8.788-6.655 8.451-16.383 12.376-23.9 10.323-19.939 19.414-37.632 41.507-37.98 56.418-.075 3.056-2.511 5.516-5.576 5.715-1.783.107-3.839.2-6.008.24-2.023 4.979-2.336 9.957-1.889 15.64.016.23.016.455.033.679l-18.009-2.154a359.604 359.604 0 0 1 5.396-15.019 355.93 355.93 0 0 1 3.264-8.249c5.238.14 8.61-1.424 11.154-3.984 3.771-3.77 5.718-9.692 9.216-15.416 5.42-8.864 12.399-16.633 19.086-24.685 3.372-4.065 6.562-8.333 10.15-12.2 1.243-1.336 2.272-2.296 3.208-2.992 2.884-2.153 4.964-1.92 10.027-2.989a23.7 23.7 0 0 0 3.879-1.17c5.286-2.102 9.149-5.856 13.077-9.682 1.997-1.955 4.011-3.927 6.248-5.716a870.413 870.413 0 0 0 4.964-4.002c19.293-15.638 38.668-32.122 59.495-45.053 21.773-13.527 30.506-39.032 44.08-59.881.24 3.47-.387 7.322-2.08 11.489Z" fill="#7F2811"/><path d="m458.727 771.771.253 18.182.347.14c16.706 7 32.862 10.446 45.784 10.487l-16.158-26.441-7.149-11.702c-.156.151-.319.278-.484.432-4.144 3.819-8.202 6.574-13.396 7.935a27.805 27.805 0 0 1-4.336.787c-1.513.16-3.128.222-4.861.18Z" fill="#B34D22"/><path d="M390.284 710.832c1.065 1.405 2.276 3.097 3.632 5.036 15.14 21.603 47.139 72.845 65.373 74.227l.038-.002c3.444.238 5.686-4.848 7.129-11.046.629-2.651 1.104-5.512 1.468-8.243.329-2.464.568-4.816.735-6.817.23-2.903-1.754-5.524-4.612-6.007-15.362-2.569-36.07-26.021-52.475-49.711a345.451 345.451 0 0 1-3.108-4.558 377.738 377.738 0 0 1-3.357-5.124 341.038 341.038 0 0 1-3.922-6.232l-6.246 10.585-4.655 7.892Z" fill="#B34D22"/><path d="m383.636 685.82.136.484 5.304 19.147 5.862-2.511 10.168-4.353 6.072-2.602 4.798-2.045 60.381-25.853c9.221-2.391 16.749 1.345 22.521-6.226l29.495-38.684c3.787-5.269 5.133-10.41 4.64-15.042-1.88-17.934-31.073-28.243-51.18-8.858.08.376-53.566 47.446-81.59 71.991-8.494 7.447-14.637 12.823-16.205 14.203-.268.229-.402.349-.402.349Z" fill="#B34D22"/><path d="M384.039 685.471c-.099.273-.191.55-.267.833a29.82 29.82 0 0 0-1.213 6.015c-1.083 11.042 3.841 20.809 11.357 23.549a12.68 12.68 0 0 0 3.083.703c4.041.396 7.941-1.199 11.145-4.176 1.263-1.171 2.412-2.562 3.428-4.126 2.261-3.492 3.812-7.865 4.287-12.693.053-.545.092-1.096.117-1.636a29.555 29.555 0 0 0-.661-7.743c-1.828-8.138-7.119-14.202-13.891-14.862a13.397 13.397 0 0 0-1.181-.067c-6.966-.02-13.326 5.783-16.204 14.203Z" fill="#B34D22"/><path d="M410.305 689.029c1.121 2.088 1.247 4.559.873 6.956-.293 1.896-.893 3.748-1.554 5.348a20.291 20.291 0 0 1-1.16 2.378c-1.727 3.046-2.88 3.505-.808 7.742.154.311.318.626.488.942 3.281 6.101 9.694 12.893 14.074 17.97 11.427 13.232 24.408 21.76 37.415 32.182 3.688 2.958 3.681 5.824 3.955 9.044.134 1.654.356 3.408 1.176 5.312.411.953.993 1.654 1.692 2.144 2.896 2.077 7.933.709 12.189-.544 3.545-1.044 7.003-2.534 10.308-4.364a60.564 60.564 0 0 0 7.847-5.21l-7.344-7.481c-2.552-2.64-4.986-1.369-7.652.989-.156.151-.319.278-.484.432-4.144 3.819-8.202 6.574-13.396 7.935.329-2.464.568-4.816.733-6.817.232-2.903-1.752-5.524-4.611-6.007-15.361-2.569-36.069-26.021-52.474-49.711 2.261-3.492 3.811-7.865 4.287-12.693.053-.545.091-1.096.117-1.636l60.381-25.853c9.221-2.391 16.749 1.345 22.521-6.226l29.495-38.684c3.787-5.269 5.133-10.41 4.64-15.042-.867 2.133-1.773 4.22-2.787 6.217-4 7.884-9.613 17.192-16.476 22.993-16.929 14.296-39.654 21.327-60.396 28.111-12.925 4.223-25.782 13.543-38.039 20.741a152.238 152.238 0 0 1-5.01 2.832Z" fill="#7F2811"/><path d="m481.804 762.437 7.149 11.702 16.158 26.441c7.781.029 14.396-1.183 19.249-3.6l-27.56-28.052-7.344-7.48c-2.552-2.64-4.985-1.369-7.652.989Z" fill="#070706"/><path d="m381.327 393.919-.928.084c5.866-19.567 35.425-32.983 53.934-35.403-3.344 4.075-21.128 16.797-17.62 21.943 13.478-12.83 40.751-20.628 42.482-23.599-.934 2.9-4.971 16.567-23.396 24.104 14.154-2.008 36.193-8.617 41.628-13.335 1.781 13.168-11.548 18.382-18.302 21.872 45.65-17.73 66.955-8.793 91.235-1.993-12.013 3.784-41.916 10.553-51.393 16.716 26.286 2.871 80.713 13.92 99.446 34.643-5.026-3.782-43.533-9.252-48.64-7.096 2.587 7.846 11.054 12.756 18.534 16.749 7.893 4.212 17.586 5.611 25.893 7.252 10.24 2.024 21.187 3.751 28.987 10.788 5.826 5.249 16.24 23.521 21.293 29.523-9.24-6.871-36.067-5.524-45.307-2.003-13.84 5.277-26.146 7.603-40.6 4.717-5.386-1.076-11.96-1.68-16.76-4.738-5.28-3.367-8.72-9.435-13.906-14.083-16.168-14.495-33.871-24.987-54.094-33.091-16.978-6.805-33.966-12.925-51.377-18.224-12.944-3.94-31.789-10.137-39.551-21.764l-7.458-11.597c1.028.673 3.261-.116 5.9-1.465Z" fill="#604535"/><path d="M400.265 381.6c-16.97-1.735-35.205 9.273-50.018 23.517l22.066 8.471 27.952-31.988Z" fill="#B34D22"/><path d="M844.107 815.52c1.293.665 2.506 1.221 3.626 1.628 3.667 1.321 6.254 2.868 5.027 6.559l-16.747 47.46c-4.586-3.493-9.066-10.603-12.946-19.698l21.04-35.949Z" fill="#070706"/><path d="m823.08 851.472 13.493-23.086 7.533-12.862c-3.973-2.061-8.506-5.261-12.533-8.933-1.973-1.807-3.826-3.72-5.413-5.675-1.213-1.485-2.28-2.989-3.133-4.483-.28-.47-.534-.942-.76-1.406l-.027-.053-10.947 7.006.013.017c.067 1.035.161 2.074.281 3.11 1.666 16.521 5.973 33.457 11.493 46.365Z" fill="#B34D22"/><path d="M820.506 809.162c3.374-.371 7.334-1.394 11.067-2.573 2.96-.937 5.8-1.972 8.094-2.863 2.706-1.057 4.2-3.986 3.386-6.771-5-16.898 13.907-47.118 31.147-73.06a975.305 975.305 0 0 1 4.253-6.395l-5.053-2.375-8.613-4.056-12.414-5.829c-.027 3.251-.64 6.793-1.706 10.568a63.92 63.92 0 0 1-1.107 3.579c-9.24 27.318-38.013 64.303-38.267 82.593l.013.017a12.935 12.935 0 0 0 .281 3.11c.106.567.28 1.108.48 1.622.946 2.4 4.253 2.912 8.439 2.433Z" fill="#B34D22"/><path d="M794.306 711.303c17.254 3.061 34.281 3.378 52.454 4.297 1.293.064 2.6.136 3.907.208 1.48.081 2.96.165 4.466.263 4.08-1.484 7.28-3.126 9.654-5.002 3.72-2.957 5.426-6.498 5.386-10.946-.013-3.204-.947-6.884-2.667-11.142-4.106-.396-8.146-.896-12.079-1.537-6.934-1.123-13.52-2.657-19.574-4.748-11.173-3.82-20.48-9.548-26.653-18.081-4.813-6.531-7.733-14.747-8.213-25.024-5.92-4.194-11.72-7.659-17.4-10.352-2.974-1.42-5.907-2.642-8.8-3.644-14.027-4.899-27.014-4.863-38.441.413-12.573 5.78-23.226 17.851-31.293 36.649 5.294 4.964 10.413 9.463 15.427 13.486 5.786 4.696 11.426 8.798 16.933 12.385 1.027.676 2.067 1.34 3.08 1.979 3.96 2.469 7.867 4.693 11.72 6.656 1.36.702 2.734 1.394 4.08 2.036 13.134 6.284 25.627 9.89 38.013 12.104Z" fill="#A03A17"/><path d="M866.573 726.681c2.667-.234 5.24-1.116 7.507-2.697l.12-.089c7.88-5.61 8.973-17.714 2.427-27.11-5.267-7.546-13.88-11.068-21.2-9.341a15.411 15.411 0 0 0-5.227 2.331c-.52.37-1.027.774-1.493 1.198-6.28 5.679-7.134 16.044-1.947 24.627.28.463.573.925.893 1.383.6.852 1.24 1.656 1.907 2.404 4.68 5.193 11.093 7.821 17.013 7.294Z" fill="#B34D22"/><path d="m836.573 828.386 7.534-12.862c-3.974-2.062-8.507-5.26-12.534-8.935 2.96-.937 5.8-1.972 8.094-2.864 2.706-1.056 4.2-3.985 3.386-6.77-5-16.898 13.907-47.118 31.147-73.06 7.88-5.61 8.973-17.714 2.427-27.11-5.267-7.546-13.88-11.068-21.2-9.341-6.934-1.123-13.52-2.657-19.574-4.748-11.173-3.82-20.48-9.548-26.653-18.081-4.813-6.531-7.733-14.747-8.213-25.024-5.92-4.194-11.72-7.659-17.4-10.352-2.974-1.42-5.907-2.642-8.8-3.644.186 26.605 15.96 49.057 41.88 58.528 6.32 2.308 19.72 3.856 32.04 6.85 8.586 2.09 16.666 4.891 21.466 9.15 4.187 3.716 5.88 8.556 3.227 15.002-.48 1.194-1.12 2.442-1.92 3.742-1.6 2.62-3.24 5.226-4.907 7.814-6.92 10.732-14.293 21.214-21.52 31.735-7.346 10.712-18.173 23.875-22.786 36.61-.24.639-.454 1.281-.654 1.921.507-.194.974-.367 1.414-.514 6.653-2.277 6.146.429 3.133 4.483a36.425 36.425 0 0 1-1.667 2.084c-2.36 2.788-3.786 4.393-3.986 6.161-.214 1.742.76 3.655 3.213 7.048 2.973 4.116 7.72 8.384 12.853 12.177Z" fill="#7F2811"/><path d="m466.259 565.023-.599 2.836a110.796 110.796 0 0 0-2.205 20.872l-.007.024a125.2 125.2 0 0 0 .041 4.457 114.053 114.053 0 0 0 2.855 22.433c1.876 8.171 4.715 15.999 8.448 23.179l.021.067.01.061c6.553 12.529 15.926 23.032 28.096 29.736.378.236.785.445 1.157.645l.18.132.023.004c2.392 1.244 4.877 2.326 7.485 3.31 7.556 2.768 15.143 5.325 22.676 7.725l.027.004c66.08 20.805 129.866 25.689 176.373 1.323.707-.371 1.413-.751 2.133-1.124a105.898 105.898 0 0 0 7.094-4.243 115.678 115.678 0 0 0 20.533-16.817 114.488 114.488 0 0 0 9.053-10.626c6.68-8.71 12.48-18.701 17.28-30.128 3.027-7.11 5.667-14.737 7.907-22.969 5.36-27.395-.973-49.513-16.6-63.777-.933.08-1.853.198-2.76.252-32.24 2.801-57.08-1.8-92.347-14.091-11.333-4.616-22.626-9.097-33.52-13.897l-.146-.064c-11.067-4.964-21.72-10.268-31.614-16.588-1.92-1.231-3.813-2.5-5.653-3.819a126.395 126.395 0 0 1-12.427-9.877 1085.79 1085.79 0 0 0-13.52 5.268c-32.773 13.246-61.638 28.574-83.581 57.509-5.791 7.637-11.123 16.207-15.889 25.973a52.509 52.509 0 0 0-.524 2.21Z" fill="#B34D22"/><path d="M350.011 452.801c2.141.698 4.244 1.42 6.301 2.162a176.566 176.566 0 0 1 8.765 3.429 159.877 159.877 0 0 1 12.504 5.863c.578.278 1.119.58 1.662.86 32.553 17.242 52.6 41.317 66.01 63.044l.18.301c9.28 15.103 15.338 29.036 20.168 38.765 1.94 3.984 3.692 7.226 5.387 9.562 1.104 1.538 2.14 2.688 3.216 3.37l6.959-5.314 107.104-81.698-.187-.246a84.394 84.394 0 0 0-2.693-3.279c-1.36-1.583-2.88-3.207-4.494-4.869v-.023c-10.413-10.72-25.84-22.891-44.2-34.665-35.029-22.46-80.8-43.431-122.98-49.956-3.169-.472-6.308-.894-9.432-1.214l-.022-.002c-2.244-.264-4.45-.452-6.642-.564-.989-.083-2.029-.116-3.022-.15l-.036-.004a60.727 60.727 0 0 0-3.003-.129l-.548.708-4.217 5.6-3.063 4.024-1.005 1.303-.207.294-1.164 1.555-.033-.003-2.443 3.248-2.18 2.858-26.685 35.17Z" fill="#B34D22"/><path d="M420.603 387.459c-16.06-5.754-36.403.561-54.202 10.84l19.38 13.509 34.822-24.349Z" fill="#B34D22"/><path d="M266.279 425.801c-2.311-3.606-5.384-3.874-6.632.682-1.083 3.921-.075 7.944 1.597 11.333 4.417-3.013 6.799-6.76 5.035-12.015Z" fill="#692D14"/><path d="M342.353 407.171c-1.39.07-2.765.236-4.144.589 0 0 5.727-9.063 20.598 3.869-2.679-1.424-5.336-2.572-7.99-3.358 1.164 1.117 1.788 2.577 1.536 4.062-.466 2.703-3.582 4.42-6.969 3.844-3.384-.582-4.224-8.306-3.031-9.006Z" fill="#362A2B"/><path d="M382.584 396.772a158.192 158.192 0 0 1 33.983-8.641c-5.08 3.758-10.363 7.605-16.515 9.048-5.715 1.333-11.671.476-17.468-.407Z" fill="#692D14"/><path d="M261.488 457.483c7.817 5.513 16.592 4.301 26.329-3.28 0 0 .124.01.328 0 .376.524.578.825.632.83 0 0 .544.016 1.491.075.328.028.688.031 1.105.065.303.027.643.027 1.004.056l.18.016c.664.058 1.432.099 2.255.147.283.024.587.021.903.048 1.59.084 3.384.209 5.256.315 6.144.393 13.202.841 17.842 1.206 5.248 6.926 13.248 12.298 22.942 14.696 12.536 3.076 27.428 1.248 36.02-5.404.494-.368.969-.738 1.468-1.138 32.553 17.242 52.6 41.317 66.01 63.044l.18.301c8.207 12.769 13.526 24.887 18.19 34.699.686 1.401 1.34 2.77 1.978 4.066l-.21 2.458c-.791 8.784-1.69 16.808-2.166 24.274a308.23 308.23 0 0 1 2.81-6.366l.001-.023c2.132-4.675 4.115-8.915 4.952-10.781 2.519-5.746 10.22-.987 14.727-6.128 2.496-2.831 8.692-3.592 11.601-5.799l9.116-4.143c1.856-1.44 1.597-9.066 1.657-9.112-6.197-1.788-24.901-6.03-30.058-9.77-6.872-5.027-13.031-11.278-18.982-17.408a94365.809 94365.809 0 0 0-55.476-57.086c-4.146-4.301-8.377-8.662-11.318-13.789a21.841 21.841 0 0 1-1.486-2.805c-1.206-2.608-2.018-5.464-2.262-8.346-.028-.313-.083-.601-.079-.914-.015-.488-.02-.98.003-1.495l-.024-.132c.056-1.441.222-2.869.578-4.256.314-1.293.746-2.521 1.411-3.676.22-.447.497-.909.795-1.349-.595.617-1.171 1.244-1.732 1.836-.682.688-1.307 1.39-1.956 2.081-.887.957-1.768 1.863-2.639 2.768-9.037 9.499-16.669 16.335-28.552 17.699-.551.082-1.097.11-1.669.17-12.73.902-25.26-1.942-37.786-4.633a325.166 325.166 0 0 0-8.465-1.773c-4.092-.79-8.299-1.459-12.492-1.866-4.227-.432-8.472-.612-12.676-.381-6.684.363-13.201 1.696-19.224 4.537l10.563-2.506-13.075 8.972Z" fill="#A0320B"/><path d="m356.789 403.476.215.124c3.416-1.845 6.945-3.28 10.608-4.439l-1.228-.853a124.439 124.439 0 0 1 11.604-5.931 36.802 36.802 0 0 0-8.735.29c-.845.133-1.706.265-2.602.398-3.804 2.65-7.16 6.022-9.862 10.411Zm0 0 .215.124c.772.399 1.476.896 2.121 1.468.175.14.34.312.507.455.357.373.705.753.985 1.193.58.779 1.02 1.631 1.262 2.56.032.107.081.215.089.347.159.605.199 1.258.183 1.897-.148 2.535-1.84 4.821-3.97 6.245-2.154 1.392-4.69 2.022-7.201 2.452-2.444.439-4.965.688-7.359.05-1.525-.39-2.934-1.126-4.26-1.962-2.13-1.293-4.15-2.957-5.088-5.285-.414-1.02-.529-2.08-.454-3.157.273-3.279 2.634-6.46 5.7-7.902 4.036-1.906 8.793-1.425 13.093-.157.316.083.589.181.889.289 1.134.348 2.252.803 3.288 1.383Zm-85.829 11.548c.464 9.683 7.26 23.012 12.264 31.46 2.123 3.612 3.98 6.404 4.924 7.72.373.523.572.821.629.829 0 0 .548.016 1.492.075.324.025.687.032 1.103.067.256.017.529.025.828.049l.175.008.181.017c.663.05 1.435.099 2.255.14.281.026.588.026.904.05 1.589.084 3.38.206 5.252.316 6.149.389 13.209.842 17.844 1.209 5.252 6.924 13.249 12.293 22.946 14.695 9.844 2.41 21.14 1.805 29.694-1.782 2.334-.986 4.473-2.194 6.321-3.62.497-.373.969-.745 1.467-1.142a140.368 140.368 0 0 0 8.801-7.498 127.663 127.663 0 0 0 4.219-4.068c7.357-7.42 13.621-15.48 17.825-23.557a58.798 58.798 0 0 0 2.709-6.015c.058-.156.124-.297.166-.446.896-2.411 1.6-4.831 2.022-7.182.248-1.458.448-2.882.522-4.274.274-4.158-.29-8.175-1.79-11.97l-.132-.314c-.05 0-1.625-.216-3.465-.456l-.073-.008a678.444 678.444 0 0 0-5.422-.687c-.182-.041-.313-.049-.313-.049l-.027.281v.024c-.097.895-.48 3.471-1.978 6.08l-.159.265c-.779 1.3-1.848 2.634-3.315 3.743l-.024.027c-1.45 1.05-3.249 1.937-5.512 2.425-.454.108-.928.192-1.425.259-.215.032-.421.049-.631.081a30.223 30.223 0 0 1-4.532-.463l-.148-.041h-.025c-.863-.149-1.649-.373-2.355-.588a14.623 14.623 0 0 1-1.366-.555l-.299-.157a8.419 8.419 0 0 1-1.459-.845h-.016a9.318 9.318 0 0 1-1.177-.979 6.896 6.896 0 0 1-.995-1.167 15.842 15.842 0 0 1-.313-.513c-.68-1.119-1.037-2.336-1.195-3.563-.604-4.44 1.303-9.128 1.012-10.47l-.025-.182-.224-.2c-1.184-.305-6.183-.032-10.317.266-.672.042-1.318.092-1.947.116h-.017c-2.014.157-3.522.314-3.771.34-22.905 3.686-59.567 10.992-79.24 17.76a79.683 79.683 0 0 0-5.917 2.236c-.879.356-1.948.762-3.099 1.202-.4.148-.805.288-1.201.438-.532.19-1.087.398-1.651.613Z" fill="#15CACE"/><path d="M339.519 401.957c4.037-1.9 8.793-1.418 13.094-.15 2.346.692 4.668 1.636 6.514 3.261 1.858 1.601 3.174 3.985 3.022 6.448-.149 2.543-1.838 4.823-3.965 6.247-2.159 1.392-4.697 2.026-7.204 2.458-2.441.439-4.967.683-7.361.042-1.519-.383-2.931-1.126-4.254-1.958-2.136-1.292-4.158-2.96-5.093-5.282-1.64-4.19 1.184-9.14 5.247-11.066Zm-9.911 8.97c.239 3.325 1.771 6.518 4.159 8.83 4.494 4.331 11.8 5.188 17.738 4.531 3.663-.401 7.286-1.663 10.148-3.993 3.57-2.91 6.17-7.906 4.392-12.471-.882-2.273-2.12-4.128-3.981-5.696-2.844-2.407-6.024-3.415-9.539-4.348-2.006-.527-4.393-.724-6.433-.721-2.088.004-3.807.364-5.868.737-2.567.467-5.1 1.448-7.028 3.211-1.315 1.201-2.26 2.701-2.852 4.334-.639 1.77-.871 3.699-.736 5.586ZM436.337 522.949c8.231-10.14 22.431-22.176 30.476-32.14 7.775-9.633 15.963-18.181 23.18-28.305 5.871-8.235 16.816-21.425 18.027-31.501l8.841 2.758c5.246 1.798 10.672 3.98 15.912 7.37-2.626 5.714-5.373 12.692-9.213 17.908-3.427-2.611-7.667-4.927-11.191-7.202-4.68 4.734-4.398 13.094-9.321 17.684 5.189 2.918 7.032 3.202 11.249 7.848-5.288 7.724-10.256 16.206-17.694 22.284-1.555-4-4.714-8.104-8.264-10.537-3.198 5.777-6.075 11.919-10.855 16.643 2.512 3.034 5.2 6.344 7.412 9.733-3.532 5.904-12.232 15.232-18.148 17.272-1.377-2.663-3.216-4.919-5.341-7.204-3.643 3.103-6.79 7.407-10.446 10.852 1.982 3.277 3.894 6.888 5.599 10.396-5.307 5.963-12.033 7.883-18.565 10.104-4.97-15.04-10.822-22.675-1.658-33.963Z" fill="#60122B"/><path d="M352.223 458.339c6.44 3.238 12.91 7.141 19.228 11.538 16.101 11.218 31.19 25.679 42.121 40.648 12.721 17.419 9.92 13.667 18.205 28.578 15.564-9.303 40.626-31.791 58.178-58.814 12.081-18.596 22.176-36.398 26.906-46.528-25.78-18.396-67.878-31.096-106.745-34.426l-.073-.008a231.876 231.876 0 0 0-5.762-.431l-10.988 12.54-35.998 41.112-5.072 5.791Z" fill="#15CACE"/><mask id="mask0_135_301" style="mask-type:luminance" maskUnits="userSpaceOnUse" x="286" y="438" width="86" height="36"><path d="M354.015 473.107c-4.139 0-8.315-.483-12.258-1.448-9.697-2.402-17.694-7.771-22.946-14.695-4.635-.367-11.695-.82-17.844-1.209-1.872-.11-3.663-.232-5.252-.316-.316-.024-.623-.024-.904-.05-.82-.041-1.592-.09-2.255-.14l-.181-.017-.175-.008-5.445-15.109c.378.013.757.02 1.138.02 3.367 0 6.79-.494 10.208-.986s6.831-.984 10.182-.984c1.398 0 2.788.086 4.161.294 7.601 1.15 12.291 8.018 19.907 11.413 5.241 2.331 11.029 3.625 16.74 3.625 2.777 0 5.536-.306 8.204-.949l-5.072 5.791c6.44 3.238 12.91 7.141 19.228 11.538-5.128 2.151-11.24 3.23-17.436 3.23Z" fill="#fff"/></mask><g mask="url('#mask0_135_301')"><path d="M286.755 473.107h84.695v-34.942h-84.695v34.942Z" fill="#02808C"/></g><path d="M431.777 539.103c-8.285-14.911-5.484-11.159-18.205-28.578-10.931-14.969-26.02-29.43-42.121-40.648-6.318-4.397-12.788-8.3-19.228-11.538l5.072-5.791c6.017-1.449 11.586-4.605 15.853-9.824 5.436 4.44 10.251 9.568 14.892 14.893 10.881 12.484 20.825 26.06 35.659 34.494 5.346 3.042 11.534 4.113 17.832 4.113 6.266 0 12.641-1.06 18.4-2.292 6.222-1.325 12.281-2.883 18.254-5.98 3.448-1.789 7.692-5.419 11.77-7.663-17.486 26.92-42.423 49.34-57.999 58.707l-.179.107Z" fill="#02808C"/><path d="M270.958 415.021c.47 9.687 7.26 23.014 12.266 31.46 2.118 3.612 3.98 6.406 4.921 7.722.376.524.578.825.632.83 0 0 .544.016 1.491.075.328.028.688.031 1.105.065.303.027.643.027 1.004.056.971.06 2.096.134 3.339.211 1.589.084 3.383.209 5.255.316-.159-.268-.319-.513-.467-.787a231.305 231.305 0 0 1-4.604-8.108c-6.321-11.653-11.193-23.522-13.079-36.278l.004-.05a86.165 86.165 0 0 0-5.916 2.234c-1.176.494-2.673 1.036-4.3 1.646-.527.187-1.088.395-1.651.608Z" fill="#60122B"/><path d="M273.087 443.247c-.331 3.881 2.553 7.298 6.448 7.629a7.062 7.062 0 0 0 7.632-6.433 7.064 7.064 0 0 0-6.436-7.634c-3.896-.33-7.315 2.551-7.644 6.438Z" fill="#362A2B"/><path d="M1049.99 489.061c-.66.463-1.34.904-2 1.363.21-.085.42-.163.64-.243l.29-.148c.35-.33.72-.637 1.07-.972Z" fill="#692D14"/><path d="M855.106 541.699c.854-2.772 2.334-5.399 4.321-7.854 12.08-14.977 42.546-23.649 58.64-23.517 21.239.184 48.826 15.084 67.679 19.524-6.146-5.693-16.559-15.792-23.693-19.057 19.174 7.74 36.667 24.95 60.467 21.728-4.89-3.487-12.79-5.66-15.25-11.95 33.58 18.822 60.5-17.58 78.14-39.466.52-.628 1.03-1.251 1.52-1.863-26.28 8.204-67.53 11.801-104.05-3.148 10.68 3.027 24.45-3.18 35.15-6.339-33.443 6.306-56.417-19.076-92.35-16.585-38.04 2.636-71.494 28.955-71.707 63.363l1.133 25.164Z" fill="#33261E"/><path d="M859.427 533.845c12.08-14.977 42.546-23.649 58.64-23.517 21.24.184 48.826 15.084 67.68 19.524-6.147-5.693-16.56-15.792-23.694-19.057 19.174 7.74 36.667 24.95 60.467 21.728-4.89-3.487-12.79-5.66-15.25-11.95 33.58 18.822 60.5-17.58 78.14-39.466-3.44 2.76-6.96 5.5-11 7.221-7.98 3.399-16.33 6.967-24.86 9.071-18.31 4.518-43.3 6.04-60.657-2.066 1.894 3.607 4.174 7.552 6.134 11.095-10.134 3.125-26.6-2.289-35.694-6.785-10.213-5.051-25.986-9.594-33.68-18.242 2 8.615 9 15.314 15.707 20.92-19.293-3-38.04-13.937-56.773-1.69-9.974 6.518-16.547 14.456-21.827 24.978-.733 1.458-1.96 4.655-3.333 8.236Z" fill="#211813"/><path d="M883.813 473.695c11.107-8.915 34.067-15.943 48.04-14.088 7.68 1.021 14.227 3.804 21.734 5.309 6.226 1.248 13 1.196 19.013 3.232-12.067 2.009-24.387 2.751-36.507 1.217 9.854 2.687 19.614 12.282 28.8 16.807-19.813-6.252-40.173-15.699-60.906-11.191 4.16 1.643 9.226 9.008 9.506 13.318-8.693-3.934-14.706-7.498-25.133-4.867-8.347 2.107-16.773 6.461-21.8 11.849 0 0 7.627-13.854 17.253-21.586Z" fill="#604535"/><path d="M916.8 655.701c-16.16 37.267-54.494 50.23-90.734 60.875-43.506 12.781-56.973 7.596-106.893 12.424-5.187.504-7.36-23.356-16.253-47.216-8.933-23.989-24.667-47.979-57.093-47.205-52.2 1.241-48.494 98.298-55.934 98.149-48.906-.976-61.427-6.833-101.759-31.684 6.026-31.153 26.659-90.761-24.86-79.521 0-5.343.015-11.323.148-17.446.05-2.576.132-5.177.232-7.761.224-5.6.579-11.149 1.145-16.268.273-2.603.603-5.096 1.002-7.431 20.153 4.838 96.705-63.045 111.239-87.624.706-1.184 1.253-2.26 1.653-3.229l182.72 11.181c3.107-.024 8.28.284 13.774.591 7.453.417 15.48.836 19.573.42.44-.04.866-.089 1.306-.124 12.587-1.159 24.161-.563 34.387 2.121 7.84 2.063 14.907 5.367 21.013 10.058 12.56 9.625 20.32 25.24 24.374 47.81 1.12 6.228 2.2 11.798 3.293 16.816 8.68 40.224 17.04 46.031 37.667 85.064Z" fill="#15CACE"/><path d="M463.622 563.159c37.767 8.662 109.165-81.859 110.698-85.218 0 0 22.333-.08 29 5.248-2.333 6.142-6.427 19.908-9.8 25.594-4.48-3.295-9.534-5.472-14.227-8.255-5.773 6.749-11.787 12.984-19.253 17.867 3.76 5.012 9.507 10.338 12.613 15.737-5.44 5.825-16.693 12.056-23.747 15.656-3.853-3.273-7.48-9.376-10.506-13.392-3.694 5.541-14.093 14.152-20.347 16.76 2.187 6.573 4.907 14.064 4.24 21.331-7.381 3.213-14.415 8.78-22.465 9.4-2.046-4.792-3.59-9.818-5.04-14.62-5.999 4.812-14.689 7.852-22.029 8.712-1.678 5.041-4.93 9.216-7.388 13.641-2.436-.536-4.939-1.951-7.542-2.788 1.312-6.169 3.108-20.019 5.793-25.673Z" fill="#60122B"/><path d="m588.573 729.387-.2-.006-2.266-.054-4.52-.14a349.913 349.913 0 0 1-9.014-.436c-5.986-.382-11.946-.908-17.8-1.834-5.866-.894-11.626-2.2-17.226-3.997-5.6-1.783-11.04-4.091-16.387-6.709-5.329-2.639-10.569-5.558-15.768-8.608-4.54-2.659-9.056-5.404-13.565-8.175 1.578-7.985 3.253-16.057 4.478-24.252.672-4.483 1.226-9.004 1.547-13.581.312-4.575.404-9.206.036-13.888-.185-2.259-.469-4.54-.925-6.815-.952-8.239-3.975-14.852-10.451-18.256-.389-.287-.788-.56-1.196-.817-2.203-1.408-4.613-2.423-7.056-3.079-2.445-.66-4.92-.976-7.352-1.069a41.92 41.92 0 0 0-1.66-.031 50.59 50.59 0 0 0-5.971.369c.002-.702.003-1.414.007-2.134.477-1.574.917-3.155 1.323-4.75.464-1.84.876-3.696 1.233-5.576 11.833 6.815 27.064 10.067 39.548 10.067 2.123 0 4.165-.095 6.1-.281C535.293 613.04 551.8 592 572.36 580.089c8.547-4.95 17.893-9.202 27.76-12.702 5.613 10.618 12.84 19.866 21.28 27.441.187.775.48 1.653.92 2.663 3.013 7.024 16.387 20.225 32.147 34.16a57.885 57.885 0 0 0-2.68-.25 64.442 64.442 0 0 0-4.574-.152c-.08 0-.16 0-.253.002l-1.133.012-1.267.048c-.813.044-1.64.106-2.453.193a39.569 39.569 0 0 0-9.654 2.273c-6.253 2.331-11.746 6.39-16.08 11.198-4.36 4.817-7.72 10.309-10.466 15.97-2.734 5.676-4.867 11.555-6.654 17.49-1.773 5.938-3.2 11.944-4.426 17.961-1.227 6.017-2.24 12.053-3.227 18.044-.493 2.991-.973 5.977-1.533 8.887-.28 1.449-.574 2.888-.92 4.224-.187.662-.374 1.31-.574 1.836Zm130.36-3.688v-.002h.027l-.027.002Zm.694-.062a7.385 7.385 0 0 1-.454-.788 18.479 18.479 0 0 1-.76-1.77c-.973-2.583-1.746-5.488-2.506-8.379-1.347-5.16-2.64-10.427-4.067-15.675 4.093-1.566 8-3.485 11.933-5.469.134-.068.28-.143.427-.213 3.293-1.652 6.96-3.579 8.84-7.112 1.347-2.528-1.013-4.314-3.107-5.482 2.147-1.782 3.694-3.416 4.347-4.745 0 0-2.32-1.26-5.427-2.84-3.773-7.316-17.76-33.044-31.413-56.623 25.867-4.022 53.213-16.673 71.067-36.562 15.506 5.138 31.28 8.944 48.8 8.944 1.893 0 3.8-.044 5.733-.136 19.107-.91 38.333-6.646 54.28-16.951.653 3.273 1.373 6.54 2.16 9.8.8 3.388 1.707 6.759 2.68 10.116a141.238 141.238 0 0 0 3.32 9.981c2.44 6.592 5.467 12.972 8.733 19.123 3.254 6.161 6.68 12.155 9.987 18.189a693.051 693.051 0 0 1 8.92 16.748 78.49 78.49 0 0 1-8.067 13.667 80.55 80.55 0 0 1-11.92 12.727c-4.44 3.805-9.266 7.204-14.346 10.193-5.08 3.017-10.414 5.643-15.88 8.015-10.947 4.744-22.414 8.428-33.987 11.882-2.92.882-5.8 1.692-8.693 2.496-2.894.847-5.8 1.528-8.707 2.27-5.827 1.377-11.68 2.616-17.573 3.464-11.787 1.84-23.787 2.236-35.947 2.706-6.067.247-12.16.487-18.253.871-6.094.352-12.24.836-18.267 1.389l-1.853.164Zm-16.067-51.184a111.2 111.2 0 0 0-1.533-3.446c.586.454 1.146.898 1.706 1.332.094.425.2.849.307 1.27-.16.272-.307.554-.48.844Z" fill="#02808C"/><path d="M577.04 484.995c3.347 26.018 9.853 54.281 20.667 77.533 17.213 36.977 53.04 59.02 93.64 54.804 34.64-3.595 73.6-23.228 89.52-55.449 6.92-14 10.533-31.495 12.88-46.571 1.08-7.016 1.84-14.331 2.32-21.479-.44.034-.88.083-1.32.124-2.827.291-7.547.175-12.654-.057-7.693-.357-16.28-.987-20.68-.952l-166.586-13.021-9.947-3.728c-.4.969-7.147 7.612-7.84 8.796Z" fill="#60122B"/><path d="m761.32 492.94-.053-.004-16.867-1.317c-.027-.068-.067-.136-.093-.204l17.013 1.525Z" fill="#0D91AD"/><path d="m632.587 482.877-29.774-2.326a35.634 35.634 0 0 0-.533-1.868l30.12 2.7c.067.572.12 1.065.187 1.494Z" fill="#082C24"/><path d="m761.413 492.948-.146-.012.053.004.093.008Z" fill="#02808C"/><path d="M674.373 563.372c-.32 0-.64-.001-.96-.004 9.68-12.188 17.414-26.072 23.707-40.181 0-.007 0-.012.013-.019.214-.031.44-.064.654-.099 9.613-1.514 20.8-5.273 28.88-11.064 6.92-4.96 12.013-12.62 18.626-18.38a39.01 39.01 0 0 0-.893-2.006l16.867 1.317.146.012.36-.001c4.494 0 12.827.606 20.32.953-1.533 4.64-3.306 9.137-5.373 13.311-15.92 32.222-54.88 51.856-89.52 55.45-4.533.472-8.8.711-12.827.711Zm-41.08-14.207c-6.173-5.621-11.573-12.964-16.666-22.12 5.693 5.811 12.466 10.726 19.493 14.182-.213.572-.413 1.146-.627 1.721-.266.72-.52 1.443-.773 2.168-.453 1.299-.933 2.652-1.427 4.049ZM609.28 511.42c-2.627-8.684-4.347-22.703-6.467-30.869l29.774 2.326c.493 3.242 1.373 2.855 3.613 5.107a45.334 45.334 0 0 1-3.507 5.384 37.654 37.654 0 0 1-3.4 3.348l.36.217c-.066.07-.133.138-.2.206-2.32 2.356-4.853 4.313-7.48 6.1-.586.392-1.173.785-1.76 1.164-3.093 2.008-6.266 3.852-9.293 5.884-.547.37-1.093.748-1.64 1.133Z" fill="#080B1D"/><path d="M842.427 652.248c1.773-10.745 5.786-21.297 12-31.497h-29.64c6.213 10.202 10.226 20.753 12.013 31.497h5.627Z" fill="#60122B"/><path d="M836.787 652.237c-1.774 10.746-5.787 21.298-12 31.498h29.64c-6.214-10.202-10.227-20.752-12-31.498h-5.64Z" fill="#60122B"/><path d="M839.6 655.059c10.76 1.772 21.307 5.789 31.52 12v-29.632c-10.213 6.21-20.773 10.225-31.52 12.004v5.628Z" fill="#60122B"/><path d="M839.613 649.427c-10.747-1.774-21.307-5.788-31.507-12v29.632c10.2-6.211 20.76-10.227 31.507-12.004v-5.628ZM550.72 661.189c1.773-10.746 5.787-21.297 12.013-31.497H533.08c6.213 10.203 10.227 20.752 12.013 31.497h5.627Z" fill="#60122B"/><path d="M545.08 661.179c-1.773 10.746-5.787 21.296-12 31.497h29.653c-6.213-10.203-10.24-20.753-12.013-31.497h-5.64Z" fill="#60122B"/><path d="M547.893 664c10.76 1.772 21.307 5.788 31.52 12v-29.632c-10.213 6.211-20.773 10.225-31.52 12.004V664Z" fill="#60122B"/><path d="M547.907 658.368c-10.747-1.775-21.307-5.789-31.508-12V676c10.201-6.212 20.761-10.227 31.508-12.004v-5.628Z" fill="#60122B"/><path d="M462.521 572.104c-.158 1.053-.333 2.067-.48 3.151-.138 1.084-.305 2.19-.413 3.254a174.139 174.139 0 0 0-.625 6.42 227.596 227.596 0 0 0-.43 6.407l-.161 3.196-.071 1.599-.09 1.52c-.082.969-.175 1.89-.314 2.906a57.442 57.442 0 0 1-.468 2.982 86.535 86.535 0 0 1-1.292 5.964 98.023 98.023 0 0 1-1.688 5.888c-.621 1.934-1.306 3.857-2.066 5.656l-2.488 5.877 6.24-1.335c4.176-.893 8.396-1.457 12.469-1.297 4.067.143 7.953 1.087 11.083 3.099 1.573.993 2.926 2.284 4.094 3.762 1.172 1.476 2.096 3.2 2.858 5.028 1.52 3.678 2.261 7.834 2.601 12.052.335 4.232.256 8.564-.043 12.903-.302 4.341-.836 8.7-1.488 13.055-1.304 8.721-3.148 17.4-4.872 26.226l-.44 2.244 1.955 1.204c5.176 3.19 10.373 6.366 15.651 9.456 5.273 3.096 10.645 6.091 16.197 8.836 5.56 2.726 11.32 5.174 17.293 7.074 5.96 1.913 12.08 3.298 18.214 4.234 6.146.967 12.293 1.508 18.426 1.9 3.067.191 6.12.331 9.174.446l4.586.141 2.294.055 1.133.026.293.008.147.002c.72-.016.28-.01.48-.018-.053.007.227-.014.573-.096.307-.064.667-.194.787-.262.173-.08.36-.175.52-.272.133-.09.267-.183.4-.282.253-.2.413-.368.6-.56.147-.16.307-.349.413-.498.227-.315.4-.6.547-.866a11.3 11.3 0 0 0 .653-1.444c.334-.892.56-1.705.787-2.509.413-1.599.72-3.136 1.013-4.664.587-3.055 1.067-6.059 1.56-9.055.987-5.986 1.987-11.921 3.187-17.8 2.413-11.721 5.493-23.336 10.56-33.889 2.533-5.251 5.6-10.211 9.4-14.399 3.787-4.186 8.36-7.525 13.507-9.45a32.819 32.819 0 0 1 8.026-1.884 40.544 40.544 0 0 1 2.08-.167l1.014-.039 1.146-.013a58.698 58.698 0 0 1 4.267.136c5.707.4 11.293 1.729 16.413 4.103 5.134 2.362 9.787 5.738 13.8 9.817 4.027 4.075 7.44 8.811 10.36 13.869 5.854 10.158 9.774 21.486 13.014 33.019 1.626 5.779 3.04 11.632 4.586 17.563.787 2.974 1.56 5.944 2.72 9.052.307.78.627 1.573 1.04 2.402.44.831.894 1.7 1.827 2.695.48.484 1.107 1.043 2.093 1.441a5.16 5.16 0 0 0 1.64.348c.147.002.294 0 .427-.005l.28-.016.28-.027 2.267-.2c6.08-.558 12.04-1.025 18.066-1.374 6.027-.382 12.067-.618 18.134-.863 12.093-.471 24.426-.869 36.666-2.776 12.227-1.781 24.187-4.953 35.867-8.429 11.693-3.491 23.387-7.238 34.747-12.158 5.666-2.46 11.24-5.202 16.613-8.389 5.373-3.157 10.52-6.779 15.293-10.877 4.787-4.091 9.12-8.742 12.92-13.794a85.096 85.096 0 0 0 9.467-16.397l.64-1.48-.747-1.385a732.579 732.579 0 0 0-10.266-18.092c-3.494-5.976-7.08-11.88-10.454-17.828-3.36-5.948-6.44-11.984-8.96-18.272a133.407 133.407 0 0 1-3.48-9.574 203.163 203.163 0 0 1-2.893-9.816c-.893-3.304-1.72-6.63-2.493-9.973a419.12 419.12 0 0 1-2.2-10.068l-2.054-10.155a132.601 132.601 0 0 0-2.586-10.162c-1.014-3.352-2.174-6.662-3.547-9.898-1.36-3.232-2.933-6.392-4.747-9.406a59.397 59.397 0 0 0-6.213-8.539 51.246 51.246 0 0 0-7.76-7.164l-7.053-3.791c5.32 4.188 15.466 14.915 18.773 20.808 1.667 2.942 3.093 6.024 4.32 9.183a93.874 93.874 0 0 1 3.16 9.683c.893 3.28 1.64 6.616 2.253 9.958l1.774 10.192c.6 3.41 1.24 6.815 1.933 10.216.68 3.402 1.427 6.796 2.24 10.183.8 3.388 1.707 6.759 2.68 10.116a141.238 141.238 0 0 0 3.32 9.981c2.44 6.592 5.467 12.972 8.733 19.123 3.254 6.161 6.68 12.155 9.987 18.189 3.307 6.031 6.547 12.088 9.667 18.202l-.107-2.866a78.145 78.145 0 0 1-8.707 15.079 80.55 80.55 0 0 1-11.92 12.727c-4.44 3.805-9.266 7.204-14.346 10.193-5.08 3.017-10.414 5.643-15.88 8.015-10.947 4.744-22.414 8.428-33.987 11.882-2.92.882-5.8 1.692-8.693 2.496-2.894.847-5.8 1.528-8.707 2.27-5.827 1.377-11.68 2.616-17.573 3.464-11.787 1.84-23.787 2.236-35.947 2.706-6.067.247-12.16.487-18.253.871-6.094.352-12.24.836-18.267 1.389l-2.267.2-.28.026v-.002l.134.002c.2.002.4.054.533.108.28.114.307.188.253.129-.106-.108-.426-.569-.68-1.087a18.479 18.479 0 0 1-.76-1.77c-.973-2.583-1.746-5.488-2.506-8.379-1.52-5.813-2.96-11.761-4.614-17.667-3.32-11.802-7.373-23.62-13.653-34.548-3.147-5.441-6.88-10.64-11.387-15.21-4.506-4.568-9.826-8.458-15.733-11.178-5.907-2.734-12.333-4.25-18.733-4.696a64.941 64.941 0 0 0-4.827-.15l-1.133.012-1.267.048c-.813.044-1.64.106-2.453.193a39.569 39.569 0 0 0-9.654 2.273c-6.253 2.331-11.746 6.39-16.08 11.198-4.36 4.817-7.72 10.309-10.466 15.97-2.734 5.676-4.867 11.555-6.654 17.49-1.773 5.938-3.2 11.944-4.426 17.961-1.227 6.017-2.24 12.053-3.227 18.044-.493 2.991-.973 5.977-1.533 8.887-.28 1.449-.574 2.888-.92 4.224-.187.662-.374 1.31-.574 1.836-.093.261-.2.5-.28.632l-.053.096.053-.056.187-.175.173-.115.254-.141c.053-.017.32-.132.52-.168.266-.051.453-.047.306-.04.04 0-.013.003-.053.004-.08.005-.16.009.253-.005l-.146-.003-.28-.007-1.134-.028-2.266-.054-4.52-.14a349.913 349.913 0 0 1-9.014-.436c-5.986-.382-11.946-.908-17.8-1.834-5.866-.894-11.626-2.2-17.226-3.997-5.6-1.783-11.04-4.091-16.387-6.709-5.329-2.639-10.569-5.558-15.768-8.608-5.197-3.044-10.361-6.2-15.521-9.379l1.516 3.449c1.7-8.717 3.578-17.533 4.918-26.497.672-4.483 1.226-9.004 1.547-13.581.312-4.575.404-9.206.036-13.888-.385-4.671-1.184-9.436-3.076-14.046-.953-2.289-2.155-4.548-3.761-6.58-1.594-2.029-3.526-3.865-5.735-5.262-2.203-1.408-4.613-2.423-7.056-3.079-2.445-.66-4.92-.976-7.352-1.069-4.876-.186-9.587.472-14.145 1.444l3.753 4.541c.884-2.092 1.613-4.155 2.287-6.239a108.667 108.667 0 0 0 1.804-6.292 95.987 95.987 0 0 0 1.389-6.418c.2-1.08.365-2.174.513-3.275.068-.559.147-1.091.204-1.669l.156-1.723.096-1.643.071-1.566.157-3.13c.111-2.086.248-4.165.418-6.237.164-2.075.365-4.139.602-6.189.107-1.039.258-2.02.384-3.032.135-1.01.318-2.078.475-3.112l-6.551-1.027Z" fill="#60122B"/><path d="m705 687.056-7.36 1.163c-.387.454-.187 1.956-.693 1.048-4.44-24.786-18.68-59.146-35.747-78.148 13.12-5.643 40.16 64.272 43.8 75.937ZM690.347 701.515c1.72 1.72 7.026 1.03 9.2.748 4.24-.567 8.173-1.674 11.946-3.104 4.214-1.59 8.227-3.563 12.28-5.603.134-.068.28-.143.427-.213 3.293-1.652 6.96-3.579 8.84-7.112 2.293-4.307-6.16-6.459-5.747-7.075l-12.026 5.461-10.16 4.603-11.24 5.105c-1.36 2.08-5.894 4.839-3.52 7.19Z" fill="#070706"/><path d="M651.173 585.125c20.92-15.452 35.44-38.38 45.947-61.938 6.067-13.611 11.467-26.999 11.653-42.314.054-5.229-5.16-31.514-10.88-28.469l-9.026 7.387-33.52 27.46c-3.934 20.002-13.814 38.324-20.627 57.865-1.453 4.203-3.24 8.991-4.747 13.952-2.373 7.84-4.08 16.112-2.84 23.156 2.587 14.62 15.494 9.205 24.04 2.901Z" fill="#2B3332"/><path d="M629.973 559.068c.667 2.108 1.2 4.573 3 5.351 34.427 14.796 63.934-93.55 63.254-101.26-.187-2.088-6.867-.871-7.36-3.368l-10.174 8.334-10 8.202-13.347 10.924c-3.066 15.594-9.746 30.174-15.759 45.1a282.77 282.77 0 0 0-2.867 7.305 197.776 197.776 0 0 0-2 5.46c-1.453 4.203-3.24 8.991-4.747 13.952Z" fill="#DFF7F3"/><path d="M653.28 559.945c-1.72-.953-3.48-1.924-5.24-2.881-.04-.092-.08-.183-.107-.269l-.093.16a486.911 486.911 0 0 0-8.68-4.636c-2.213-1.152-4.24-2.171-5.933-2.966.52-1.464 1.026-2.881 1.493-4.237.453-1.303.92-2.597 1.4-3.888.747.361 1.48.708 2.226 1.036a46.332 46.332 0 0 0 6.294 2.273c5.373 1.511 10.613 1.94 15.853 1.94 1.454 0 2.907-.033 4.374-.086-3.654 5.486-7.534 10.166-11.587 13.554Z" fill="#839995"/><path d="M647.933 556.795c1.36 3.761 16.867 12.849 21.454 16.617 9.973 8.176 56.013 92.663 60.146 101.112-2.12 1.765-9.747-1.389-12.187-1.491-3.72-.157-80.8-80.238-86.44-83.942l17.027-32.296Z" fill="#2B3332"/><path d="M622.32 597.491c3.96 9.214 25.733 29.061 47.36 47.248 17.52 14.725 34.947 28.362 42.733 34.357l13.2-3.852c-2.786-.996-43.026-69.253-53.72-80.917-7.573-8.256-15.96-15.436-27.24-12.747-1.28.303-2.546.62-3.813.949-4.173 1.102-8.227 2.4-11.933 4.192-6.64 3.228-9.414 4.195-6.587 10.77Z" fill="#DFF7F3"/><path d="M703.733 672.339a1577.682 1577.682 0 0 1-14.853-11.808 1300.912 1300.912 0 0 1-19.2-15.792c4.493-.254 8.507-1.54 10.88-4.472 6.173-7.62-2.24-21.322-6.747-28.22-5.307-8.14-15.013-18.11-26.133-25.456 2.853-1.419 5.413-2.459 6.693-2.858-2.746.098-6.12.432-9.573 1.036a78.73 78.73 0 0 0-3.96-2.24c1.267-.329 2.533-.646 3.813-.949a20.509 20.509 0 0 1 4.76-.575c8.947 0 16.014 6.268 22.48 13.322 7.854 8.569 31.667 47.686 44.853 68.234a24.52 24.52 0 0 0-1.266-.684c-2.467-1.21-4.52-1.64-6.48-1.64-2.987 0-5.8.987-9.627 1.728 2.147 2.526 3.387 6.474 4.36 10.374Z" fill="#839995"/><path d="M647.56 620.967c-4.4-3.342-8.413-7.236-12.347-11.343-2.813-2.945-9.92-9.392-9.64-13.816.387-5.961 10.094-9.443 19.227-11.039.96.586 1.92 1.195 2.88 1.822-5.373 2.66-11.8 6.652-13.013 10.256-2.427 7.182 8.426 19.166 12.893 24.12Z" fill="#F2FDFB"/><path d="M647.68 586.591c-.96-.627-1.92-1.236-2.88-1.822 3.453-.604 6.826-.938 9.573-1.036-1.28.399-3.84 1.439-6.693 2.858Z" fill="#CCDDDB"/><path d="M699.373 661.965c6.36-1.23 9.907-3.134 16.107-.088 5.507 2.708 9.813 8.252 14.053 12.647l-24.013 5.273c-1.48-5.298-2.547-13.581-6.147-17.832ZM729.867 674.872l-.334-.348 1.04-.228c-.293.133.134.781-.706.576Z" fill="#2B3332"/><path d="M684.467 698.464c5.026 7.083 45.613-13.927 49.813-22.46 0 0-16.76-9.119-20.68-9.037-5.64.114-6.987 2.032-9.067 5.733-.466.853-.986 1.817-1.613 2.869-4.653 7.902-14.147 14.195-18.027 21.988-.146.298-.293.599-.426.907Z" fill="#DFF7F3"/><path d="M688.48 699.899c-1.893-.002-3.307-.442-4.013-1.435.133-.308.28-.609.426-.907 5.534-1.348 10.84-3.338 15.947-5.833 6.333-3.097 17.64-8.467 21.413-14.975-2.6-2.528-6.093-8.174-10.066-8.45a4.498 4.498 0 0 0-.307-.011c-2.747 0-5.173 2.52-7.347 4.412 2.08-3.701 3.427-5.619 9.067-5.733h.053c4.014 0 20.627 9.037 20.627 9.037-.653 1.329-2.2 2.963-4.347 4.745-9.32 7.731-30.146 18.275-40.253 19.098-.413.034-.813.052-1.2.052Z" fill="#839995"/><path d="M618.96 589.347c9.053-9.14 40.96-17.532 49.293-16.407.72-1.061 1.453-3.072 1.48-3.691 0 0-18.267-10.544-30.573-16.93-5.734-2.976-10.174-5.054-10.854-4.735-9.133 4.203-12.466 18.545-11.826 30.14.253 4.559 1.12 8.695 2.48 11.623Z" fill="#DFF7F3"/><path d="M618.96 589.347c-1.36-2.928-2.227-7.064-2.48-11.623 1-.227 2.027-.459 3.067-.703.186 1.86.466 3.38.8 4.323a22.627 22.627 0 0 1-.094-4.487c9.56-2.26 20.134-5.45 23.907-12.697 2.32-4.463-1.227-8.505-5-11.841 12.307 6.386 30.573 16.93 30.573 16.93-.013.568-.64 2.311-1.306 3.414-.054.098-.107.19-.174.277a13.46 13.46 0 0 0-1.773-.101c-6.347 0-19.587 2.98-30.84 7.265-2.92 1.112-5.707 2.313-8.2 3.572-3.56 1.799-6.547 3.717-8.48 5.671Z" fill="#839995"/><path d="M619.546 577.021c-.8-8.477.521-24.008 7.574-24.008.053 0 .093 0 .133.002l5.414 2.945c-7.36 3.232-11.827 12.767-12.414 20.897-.24.056-.467.111-.707.164Z" fill="#F2FDFB"/><path d="M620.346 581.344c-.333-.943-.613-2.463-.8-4.323.24-.053.467-.108.707-.164-.12 1.566-.08 3.08.093 4.487Z" fill="#CCDDDB"/><path d="m724.68 693.753.24-.118c-.013.168-.093.194-.24.118ZM690.667 689.105c5.853-3.385 10.746-2.732 14.439.115 2.907 2.241 5.081 5.851 6.387 9.939 4.214-1.59 8.227-3.563 12.28-5.603.147-.068.28-.143.427-.213-1.347-1.324-4.294-5.262-6.32-6.874a32.118 32.118 0 0 0-2.613-1.852c-1.974-1.266-4.094-2.284-6.254-2.969-8.16-2.592-13.76.204-18.346 7.457Z" fill="#070706"/><path d="m642.346 471.905 61.827-36.201c-3.08 4.953 2.413 17.24 7.8 20.903 15.84 10.765 28.667 25.612 33.32 37.018-6.613 5.76-11.706 13.42-18.626 18.38-8.08 5.791-19.267 9.55-28.88 11.064-22.76 3.586-49.507-6.416-64.827-23.578-1.04-1.156-2.36-1.97-3.667-2.775 7.614-6.629 11.653-15.269 13.053-24.811Z" fill="#333D3B"/><path d="M606.44 513.587c2.253 4.053 5.093 7.928 8.347 11.508 6.613 7.289 14.96 13.35 23.56 17.169a46.32 46.32 0 0 0 6.293 2.273c8.893 2.5 17.413 2.036 26.173 1.572 4.507-.238 9.08-.477 13.814-.31 4.773-9.83 6.786-21.079 7.093-32.674.493-18.126-3.187-37.082-6.987-52.718l-3.733.752-4.76.969-5.52 1.121-2.987.602-7.066 1.438-12.294 2.502-4.186.848c-3.32 9.488-6.907 20.528-14.734 28.5-2.32 2.356-4.853 4.313-7.48 6.1-.586.392-1.173.785-1.76 1.164-3.093 2.008-6.266 3.852-9.293 5.884-1.547 1.038-3.053 2.122-4.48 3.3Z" fill="#DFF7F3"/><path d="M614.787 525.095c6.613 7.289 14.96 13.35 23.56 17.169a46.32 46.32 0 0 0 6.293 2.273c8.893 2.5 17.413 2.036 26.173 1.572 4.507-.238 9.08-.477 13.814-.31 12.226-25.187 6.346-59.75.106-85.392l-8.493 1.721-5.52 1.121c.973 3.447 1.827 6.923 2.747 10.458 3.666 13.938 5.72 29.082 4.333 43.729-1.693 17.868-39.787 16.525-52.627 11.864-3.04-1.109-6.693-2.495-10.386-4.205Z" fill="#A5BFBB"/><path d="M606.44 513.587c2.253 4.053 5.093 7.928 8.347 11.508 6.613 7.289 14.96 13.35 23.56 17.169a46.32 46.32 0 0 0 6.293 2.273c8.893 2.5 17.413 2.036 26.173 1.572 4.507-.238 9.08-.477 13.814-.31 4.773-9.83 6.786-21.079 7.093-32.674-.08-2.94-.187-5.87-.32-8.785-.52-11.071-2.48-23.04-6.333-33.465-1.227-3.331-2.694-6.492-4.067-9.716l-4.76.969-5.52 1.121-2.987.602c2.36 6.24 3.96 13.49 3.64 18.988-9.373-.146-18.773-2.419-28.36-2.49 8.88 1.711 18.88 4.744 27.094 7.664.186 6.474 2.986 13.939.293 20.159-6.4-2.483-14-3.763-20.44-6.523-4.467-1.913-10.32-3.521-14.2-6.124 4.173 3.268 8.773 6.814 13.493 9.443 5.387 3.001 11.707 4.591 16.494 8.569 7.786 6.472-5.72 18.987-14.214 14.25-7.893-4.416-14.573-12.262-21.626-17.963a416.412 416.412 0 0 1-7.934-6.585c-.586.392-1.173.785-1.76 1.164 6.2 7.873 12 16.194 18.24 23.706-3.186.892-6.333.728-9.466-.26-3.974-1.261-5.52-5.11-8.56-7.909-3.334-3.06-6.414-6.308-9.507-9.653-1.547 1.038-3.053 2.122-4.48 3.3Z" fill="#A5BFBB"/><path d="m684.747 545.552.04-.099a6.877 6.877 0 0 0-.04.099Zm.04-.101Zm3.546-9.275c0-.031.014-.064.027-.095-.013.032-.027.063-.027.095Zm.04-.148.04-.125-.04.125Zm.107-.38c.013-.009.013-.021.013-.031 0 .012 0 .019-.013.031Zm3.24-22.531c-.08-2.937-.187-5.865-.32-8.777-.4-8.599-1.68-17.741-4.027-26.28.347-.244.694-.492 1.027-.741 1.947 10.428 3.36 21.54 3.36 32.446 0 1.12-.013 2.238-.04 3.352Z" fill="#617673"/><path d="M660.493 546.477c-5.24 0-10.48-.429-15.853-1.94 4-.45 7.747-1.057 10.947-1.658 28.066-5.267 31.386-33.304 25.92-61.048a72.525 72.525 0 0 0 5.866-3.771c2.347 8.539 3.627 17.681 4.027 26.28.133 2.912.24 5.84.32 8.777-.2 7.76-1.173 15.371-3.227 22.5 0 .01 0 .022-.013.031a.35.35 0 0 1-.027.115c0 .014-.013.029-.013.044-.013.033-.013.062-.027.096a4.567 4.567 0 0 1-.04.125c0 .017-.013.036-.013.053-.013.031-.027.064-.027.095-.013.013-.013.025-.013.039l-.04.109v.003a61.943 61.943 0 0 1-3.493 9.124v.002l-.04.099c-.014.013-.014.029-.027.043l-.04.078c-.013.042-.04.084-.053.126a91.836 91.836 0 0 0-3.267-.056c-3.587 0-7.08.184-10.547.366-3.466.184-6.893.368-10.32.368Z" fill="#617673"/><path d="m601.787 331.129 44.959-8.109c0 7.587.761 9.653 7.121 13.045 4.08 2.18 11.413 6.398 12.506 11.292-15.467 1.866-25.96 15.115-39.413 21.84-6.933 3.468-12.907 5.842-20.44 3.888-9.787-2.537-6.867-10.098-5.027-18.746 1.667-7.85 3.04-15.754.294-23.21Z" fill="#2B3332"/><path d="M624.413 466.275c3.12 6.232 5.894 11.306 7.947 14.621 3.107 5.015 6.72 9.881 10.427 14.428 16.453-4.076 33.4-17.58 46.573-28.171 5.707-4.592 10.64-9.106 15.4-14.642 3.387-3.936 3.56-4.896 2.227-9.863-1.147-4.227-2.227-8.449-3.107-12.847-3.92-19.608-12.573-38.989-20.867-57.161-4.64-10.147-12.173-33.648-24.533-35.423-.787-.11-1.56-.085-2.333-.06-.934.031-1.854.06-2.8-.144l-19.467 9.499-36.36 17.745c-8.507 20.871 12.693 73.556 26.893 102.018Z" fill="#AFC6C3"/><path d="M640.613 464.237a56.578 56.578 0 0 1-4.24-4.216l2.494-.213c.586 1.476 1.173 2.953 1.746 4.429Zm-9.84-11.254c-8.466-12.134-14.013-27.255-18.506-40.736-5.24-15.715-9.853-33.619-7.347-49.914l13.613-6.114c-2.04 3.942-1.6 14.794-1.4 20.36.4 11.804 2.974 24.236 5.334 35.745 2.826 13.837 8.107 27.031 13.387 40.06l-5.081.599Z" fill="#CADCD9"/><path d="M624.413 466.275c3.12 6.232 7.627 10.734 7.947 14.621.533 6.248 1.453 4.016 5.16 8.563 31.667 2.314 43.96-6.39 57.133-16.979 5.707-4.592 13-6.813 17.76-12.348 3.387-3.936-4.093-12.517-5.426-17.484-1.147-4.227-2.227-8.449-3.107-12.847-3.92-19.608-12.574-38.989-20.867-57.161-4.64-10.147-12.173-33.648-24.533-35.423-.787-.11-1.56-.085-2.334-.06-.933.031-1.853.06-2.8-.144l-19.466 9.499c2.706 1.873 6.253 3.776 8 5.409 5.24 4.887 9.106 11.562 13.333 17.311 8.333 11.363 16.187 26.404 20.253 39.977 6.987 23.218 7.347 65.939-22.666 69.318-8.52.954-20.774-1.079-28.387-12.252Z" fill="#333D3B"/><path d="M662.64 207.679c-22.92-10.562-50.547-.579-54.84 14.448-.413-2.584.72-6.078 2.227-9.451-10 8.607-12.027 17.323-6.947 24.717 3.213 4.663 7.507 9.111 9.12 14.483 1.2-.816 2.44-1.567 3.72-2.251-.08-5.033 3.507-12.912 4.427-15.88 1.92-8.312 10.053-13.481 20.733-17.168-5.92-.042-12.773 2.011-16.92 4.839 5.027-9.357 20.253-17.096 38.48-13.737Z" fill="#F7AD19"/><path d="m619.92 272.349-6.533.92-3.52-24.868 6.533-.921 3.52 24.869Z" fill="#2B3332"/><path d="m647.133 330.333-41.053 5.796c-3.28.008-8.227-5.837-11.667-11.164-1.667-2.581-2.973-5.041-3.586-6.657-10.48-28.055 13.266-55.32 23.906-58.049 1.187-.302 2.213-.304 3 .032 10.653 4.498 18.08 10.126 24.813 26.298 4.787 11.528 5.547 30.292 4.587 43.744Z" fill="#AFC6C3"/><path d="M629.187 266.881v.003a16.095 16.095 0 0 0 0-.003Z" fill="#7BB0C4"/><path d="M608.973 335.72c4.12-6.121 8.787-13.631 9.36-14.977.4-.954.56-2.106.56-3.391 0-6.107-3.786-15.196-4.48-19.971l-3.893.551c.28-1.701.48-3.377.56-4.996l-3.88.507.04-.42 7.533-.926c.454-5.224 4.8-29.745 1.827-31.962a4.215 4.215 0 0 0-.587-.088c.12-.008.227-.011.334-.011.52 0 .986.083 1.386.255 4.04 1.709 7.627 3.586 10.88 6.129.2.153.387.307.574.464 1.04 2.708 1.826 5.248 2.36 6.989 3.906 12.682 2.76 26.55-2.387 38.711-4.36 10.288-9.893 17.859-19.413 23.028l-.774.108Z" fill="#849895"/><path d="M581.493 296.796c-2.68 3.311 3.374 12.297 6.12 14.759 3.64 3.24 7.294 6.96 11.374 9.676 7.466-6.838 11.546-18.604 12.093-28.295l-29.587 3.86Z" fill="#2B3332"/><path d="M615.213 292.987c.173 1.16 2.68 1.05 1.52 1.213l-36.387 5.136a2.108 2.108 0 0 1-2.386-1.801 2.109 2.109 0 0 1 1.8-2.395l33.506-4.731c1.16-.164 1.787 1.418 1.947 2.578Z" fill="#D7F4F0"/><path d="M616.6 260.135c-2.613-.583-8.667 1.126-11.96 2.957-3.44 1.897-7.307 4.865-10 7.736-3.52 3.745-7.52 8.599-9.893 13.145-1.987 3.787-3.32 9.114-4.587 12.378l34.613-4.254c.454-5.224 4.8-29.745 1.827-31.962Z" fill="#D7F4F0"/><path d="M609.747 335.613v-.001l37.386-5.279-37.386 5.28Z" fill="#202726"/><path d="M640.546 282.133c0-.006 0-.014-.013-.021.013.008.013.015.013.021ZM630.4 267.915c-.4-.355-.8-.699-1.213-1.031v-.003c.413.334.813.678 1.213 1.034Z" fill="#5D8896"/><path d="M609.747 335.612c9.52-5.169 15.053-12.74 19.413-23.028 5.147-12.161 6.293-26.029 2.387-38.711-.534-1.741-1.32-4.281-2.36-6.989.413.332.813.676 1.213 1.031 3.707 3.338 7 7.754 10.093 14.112v.001l.04.084c.014.007.014.015.014.021.013.018.013.036.026.054a85.002 85.002 0 0 1 1.934 4.306l.04.096c3.64 8.759 4.946 21.695 4.946 33.304 0 3.671-.12 7.21-.36 10.44l-37.386 5.279Z" fill="#637572"/><path d="M586.68 290.675c2.333-5.11 9.187-22.886 23.16-27.056-7.293 3.864-13.32 16.682-14.72 25.862l-8.44 1.194Z" fill="#E5F8F6"/><path d="M618.333 320.743c-.933 2.174-12.533 20.429-15.226 22.941-.227-.121-2.374-4.584-3.387-6.475-.24-.46-.427-.769-.493-.825-5.694-4.467-18.427-26.695-18.987-33.017-.053-.48-.013-.875.12-1.178l34.053-4.808c.827 5.779 6.214 17.88 3.92 23.362Z" fill="#D7F4F0"/><path d="M587.76 305.277c-.92.076-3.013-.124-3.213.859-.107.549 1.426 2.684 1.893 2.927l1.933-.408c-.493-.858-1.093-2.323-.613-3.378ZM593.387 304.484c-.92.076-3.027-.124-3.227.859-.107.549 1.427 2.684 1.893 2.925l1.947-.405c-.507-.859-1.093-2.324-.613-3.379ZM599 303.692c-.92.072-3.027-.125-3.213.856-.107.552 1.426 2.685 1.893 2.927l1.933-.406c-.493-.86-1.093-2.324-.613-3.377ZM604.627 302.897c-.934.076-3.027-.124-3.227.858-.107.552 1.427 2.685 1.893 2.928l1.947-.408c-.507-.856-1.093-2.323-.613-3.378ZM610.24 302.104c-.92.076-3.027-.124-3.213.859-.12.551 1.413 2.684 1.88 2.925l1.946-.405c-.506-.857-1.093-2.324-.613-3.379ZM590.493 310.955c-.88.138-2.933.08-3.04 1.072-.066.556 1.587 2.577 2.054 2.789l1.853-.536c-.56-.82-1.24-2.241-.867-3.325ZM595.88 309.789c-.893.136-2.947.079-3.053 1.071-.067.556 1.586 2.577 2.053 2.789l1.853-.536c-.56-.821-1.24-2.241-.853-3.324ZM601.253 308.621c-.893.138-2.933.08-3.053 1.072-.067.555 1.587 2.578 2.053 2.79l1.854-.536c-.547-.823-1.24-2.242-.854-3.326ZM606.626 307.455c-.893.137-2.933.078-3.053 1.072-.053.554 1.6 2.576 2.067 2.788l1.84-.536c-.547-.82-1.24-2.24-.854-3.324ZM612 306.288c-.88.136-2.933.077-3.04 1.072-.067.555 1.587 2.577 2.053 2.788l1.84-.536c-.546-.821-1.226-2.241-.853-3.324ZM593.467 315.883c-.814.121-2.707.032-2.8 1.018-.04.552 1.519 2.595 1.946 2.811l1.707-.503c-.52-.826-1.187-2.253-.853-3.326ZM598.427 314.808c-.814.12-2.72.031-2.8 1.016-.054.553 1.506 2.597 1.946 2.815l1.694-.504c-.52-.828-1.174-2.255-.84-3.327ZM603.387 313.731c-.827.122-2.72.03-2.814 1.018-.04.554 1.52 2.596 1.96 2.812l1.694-.504c-.52-.826-1.174-2.252-.84-3.326ZM608.333 312.656c-.813.121-2.706.031-2.8 1.017-.053.554 1.52 2.595 1.947 2.814l1.707-.506c-.52-.826-1.187-2.252-.854-3.325ZM613.293 311.58c-.813.121-2.72.031-2.8 1.019-.053.552 1.507 2.596 1.947 2.812l1.693-.504c-.52-.827-1.173-2.255-.84-3.327ZM596.627 321.061c-.72.099-2.387-.04-2.44.938-.027.548 1.4 2.621 1.786 2.848l1.48-.456c-.48-.835-1.093-2.272-.826-3.33ZM600.946 320.123c-.72.098-2.386-.042-2.44.937-.026.548 1.401 2.621 1.787 2.849l1.48-.457c-.467-.836-1.093-2.271-.827-3.329ZM605.28 319.181c-.72.102-2.387-.038-2.44.94-.027.548 1.4 2.62 1.786 2.848l1.48-.457c-.48-.836-1.093-2.272-.826-3.331ZM609.6 318.244c-.72.099-2.387-.04-2.44.939-.027.546 1.4 2.62 1.787 2.848l1.48-.456c-.48-.838-1.094-2.272-.827-3.331ZM613.64 316.608c-.72.1-2.387-.04-2.44.937-.027.551 1.387 2.623 1.787 2.85l1.48-.458c-.48-.834-1.094-2.27-.827-3.329ZM600.746 325.676c-.72.099-2.386-.041-2.44.937-.04.548 1.387 2.622 1.787 2.848l1.48-.456c-.48-.836-1.107-2.272-.827-3.329ZM605.68 327.669c-.307.252-.6.492-.88.734l-.387.118c-.186-.109-.653-.684-1.04-1.3-.413-.614-.76-1.277-.746-1.549.053-.976 1.72-.836 2.44-.936l-.027.155-.013.01c-.147.884.253 1.978.653 2.768ZM609.387 323.797c-.054.24-.067.506-.054.783-.586.508-1.173 1.007-1.773 1.505-.333-.558-.613-1.11-.6-1.353.04-.973 1.707-.832 2.427-.935Z" fill="#2B3332"/><path d="M603.106 343.684c-.226-.121-2.373-4.584-3.386-6.475.307-1.092.787-1.965 1.48-2.55.427-.602.88-1.188 1.346-1.759a81.014 81.014 0 0 0 2.054-2.545c.68-.875 1.373-1.81 1.987-2.762v-.01c.333-.514.653-1.034.946-1.558.014.02.027.04.027.06.6-.498 1.187-.997 1.773-1.505a2.97 2.97 0 0 1 .054-.783c-.214.031-.507.04-.827.063.24-.629.427-1.259.56-1.881l1.307-.404c-.48-.838-1.094-2.272-.827-3.331-.147.02-.333.031-.547.043a14.695 14.695 0 0 0-.573-2.098l.707-.208c-.52-.826-1.187-2.252-.854-3.325-.32.048-.813.063-1.293.124a43.736 43.736 0 0 0-.813-1.639l1.253-.362c-.547-.82-1.24-2.24-.853-3.324-.494.076-1.36.092-2.04.264a21.797 21.797 0 0 1-.481-1.207l1.134-.237c-.507-.856-1.093-2.323-.613-3.378-.627.051-1.774-.022-2.521.222-.613-.235-1.479-.24-2.946-.322-2.547-.145-4.76-.165-7.32-.165-2 .007-7.84.727-11.6.735a3.804 3.804 0 0 1-.027-.384c0-.311.054-.576.147-.794l34.053-4.808c.693 4.775 4.48 13.864 4.48 19.971 0 1.285-.16 2.437-.56 3.391-.573 1.346-5.24 8.856-9.36 14.977-2.427 3.627-4.666 6.767-5.746 7.848-.04.041-.081.08-.121.116Zm10.534-27.076c-.72.1-2.387-.04-2.44.937-.027.551 1.387 2.623 1.787 2.85l1.48-.458c-.48-.834-1.094-2.27-.827-3.329Zm-.347-5.028c-.813.121-2.72.031-2.8 1.019-.053.552 1.507 2.596 1.947 2.812l1.693-.504c-.52-.827-1.173-2.255-.84-3.327ZM612 306.288c-.88.136-2.933.077-3.04 1.072-.067.555 1.586 2.577 2.053 2.788l1.84-.536c-.546-.821-1.226-2.241-.853-3.324Zm-1.76-4.184c-.92.076-3.027-.124-3.213.859-.12.55 1.413 2.684 1.879 2.925l1.947-.405c-.506-.858-1.093-2.324-.613-3.379Z" fill="#B4CFCB"/><path d="m604.106 306.512-.08-.216c-.746-2.069-1.08-2.848-1.92-3.177.747-.244 1.894-.171 2.52-.222-.48 1.055.107 2.522.614 3.378l-1.134.237ZM608.907 305.888c-.467-.241-2-2.374-1.88-2.925.186-.983 2.293-.783 3.213-.859-.48 1.055.107 2.522.613 3.379l-1.946.405ZM606.227 311.141c-.574-1.144-1.147-2.281-1.64-3.422.68-.172 1.546-.188 2.04-.264-.387 1.084.306 2.504.853 3.324l-1.253.362ZM611.013 310.148c-.466-.211-2.12-2.233-2.053-2.788.107-.995 2.16-.936 3.04-1.072-.373 1.083.307 2.503.853 3.324l-1.84.536ZM608.48 316.189c-.387-1.153-.893-2.286-1.44-3.409.48-.061.973-.076 1.293-.124-.333 1.073.334 2.499.854 3.325l-.707.208ZM612.44 315.411c-.44-.216-2-2.26-1.947-2.812.08-.988 1.987-.898 2.8-1.019-.333 1.072.32 2.5.84 3.327l-1.693.504ZM609.12 321.979a8.49 8.49 0 0 0 .147-1.518c0-.734-.08-1.458-.214-2.174.214-.012.4-.023.547-.043-.267 1.059.347 2.493.827 3.331l-1.307.404ZM612.987 320.395c-.4-.227-1.814-2.299-1.787-2.85.053-.977 1.72-.837 2.44-.937-.267 1.059.347 2.495.827 3.329l-1.48.458ZM607.56 326.085c0-.02-.013-.04-.027-.06.387-.716.747-1.441 1.027-2.165.32-.023.613-.032.827-.063-.054.24-.067.506-.054.783-.586.508-1.173 1.007-1.773 1.505Z" fill="#242B2A"/><path d="M620.587 295.083a5.651 5.651 0 0 1-4.8 6.385 5.665 5.665 0 0 1-6.4-4.807 5.66 5.66 0 0 1 4.813-6.385 5.653 5.653 0 0 1 6.387 4.807Z" fill="#2B3332"/><path d="M618.413 295.388a3.457 3.457 0 0 1-2.947 3.904 3.45 3.45 0 0 1-3.893-2.936 3.449 3.449 0 0 1 2.933-3.904 3.456 3.456 0 0 1 3.907 2.936Z" fill="#D7F4F0"/><path d="m525.573 469.509 313.267-26.828-1.387-14.014-311.306 36.625-.574 4.217Z" fill="#1E2223"/><path d="M679.867 345.456c2.013 3.148 11.52 7.188 15.733 11.051a143.937 143.937 0 0 1 16.533 17.97c8.64 11.151 18.014 21.398 23.187 34.964 5.947 15.596-5.56 20.77-19.587 15.482-10.906-4.108-21.84-11.687-30.32-19.168-7.24-6.378-13.853-12.892-21.96-18.284l16.414-42.015Z" fill="#2B3332"/><path d="M652.986 390.148c7.4 6.167 15.48 10.597 23.187 13.096a123.993 123.993 0 0 0 15.187-13.808c.133-.131.253-.26.386-.393 5.44-5.878 10.107-11.982 13.934-18.123-3.614-6.797-9.24-13.687-16.534-19.752-16.56-13.784-39.533-15.523-49.333-11.792-.84.327-1.573.691-2.213 1.089a6.856 6.856 0 0 0-1.427 1.155c-4.667 5.028-2.707 29.583 13.8 45.808a46.72 46.72 0 0 0 3.013 2.72Z" fill="#2B3332"/><path d="M652.8 386.885c7.413 6.166 15.493 10.596 23.2 13.096a123.824 123.824 0 0 0 15.187-13.808c.133-.13.253-.258.373-.394 5.453-5.875 10.107-11.982 13.933-18.122-3.613-6.796-9.227-13.685-16.52-19.752-16.573-13.784-39.533-15.524-49.333-11.79-.854.325-1.587.69-2.213 1.089a6.887 6.887 0 0 0-1.44 1.153c-4.667 5.028-2.707 29.583 13.8 45.81a54.45 54.45 0 0 0 3.013 2.718Z" fill="#D3E0DE"/><path d="M652.8 386.885c7.413 6.166 15.493 10.596 23.2 13.096a123.751 123.751 0 0 0 15.187-13.808c.133-.13.253-.258.373-.394 5.453-5.875 10.107-11.982 13.933-18.122-3.613-6.796-9.226-13.685-16.52-19.752-16.573-13.784-39.533-15.524-49.333-11.79 16.093 3.869 34.387 12.872 36.973 28.009.147.887.24 1.736.254 2.552.346 12.76-14.427 17.481-27.08 17.491.96.929 1.96 1.84 3.013 2.718Z" fill="#A5BFBB"/><path d="M676.867 366.676a83.567 83.567 0 0 0-2.04-2.043c-10.774-10.493-23.854-20.154-37.4-27.429.626-.399 1.36-.764 2.213-1.089 16.093 3.869 34.387 12.872 36.973 28.009.147.887.24 1.736.254 2.552Z" fill="#9EADAA"/><path d="M691.187 386.173c-3.827-7.005-8.454-13.433-14.32-19.497a17.508 17.508 0 0 0-.254-2.552c-2.586-15.137-20.88-24.14-36.973-28.009 2.84-1.084 6.8-1.707 11.387-1.707 11.213 0 26.186 3.717 37.946 13.497 7.294 6.067 12.907 12.956 16.52 19.752-3.826 6.14-8.48 12.247-13.933 18.122-.12.136-.24.264-.373.394Z" fill="#7C9390"/><path d="M659.707 383.163c-2.227-1.587-4.547-3.604-6.747-5.962-7.147-7.645-10.493-15.965-7.453-18.586.626-.539 1.466-.795 2.48-.795 3.893 0 10.28 3.82 15.96 9.891 3.346 3.589 5.866 7.328 7.28 10.554-3.094 2.391-7.16 3.976-11.52 4.898Z" fill="#E2ECEA"/><path d="M668.92 387.092c-2.387 0-5.707-1.429-9.213-3.929 4.36-.922 8.426-2.507 11.52-4.898 1.6 3.647 1.773 6.642.173 8.032-.627.539-1.467.795-2.48.795Z" fill="#C3D7D5"/><path d="m637.707 448.24 1.6 3.252 5.413 10.933c15.28-3.76 30.533-4.765 45.627-10.57a263.29 263.29 0 0 0 11.586-4.75c43.494-19.062 42.987-34.413 42.987-34.413 2.04-6.247-7.107-12.481-16.96-16.549-4.28-1.768-8.693-3.128-12.373-3.902-1.974-.416-3.72-.668-5.147-.717-10.907-.376-16.147 11.597-23.173 18.523-15 14.782-30.28 28.845-49.56 38.193Z" fill="#DFF7F3"/><path d="m639.307 451.492 5.413 10.933c15.28-3.76 30.533-4.765 45.627-10.57a263.29 263.29 0 0 0 11.586-4.75c43.494-19.062 42.987-34.413 42.987-34.413 2.04-6.247-7.107-12.481-16.96-16.549-4.28-1.768-8.693-3.128-12.373-3.902 3.586 7.45 4.066 16.066-2.014 24.358-14.026 19.138-51.293 34.64-74.266 34.893Z" fill="#A5BFBB"/><path d="M659.32 440.261c-.173 0-.36-.001-.533-.005 7.013-5.98 16.173-11.06 23.253-16.809 7.507-6.099 13.627-13.322 20.64-19.526l1.187-1.344c14.6 3.839-1.694 20.102-9.227 24.335-10.467 5.876-24.347 13.349-35.32 13.349Z" fill="#EAFAF7"/><path d="M701.933 447.105c2.92-2.852 5.64-5.844 8.08-9.009 8.733-11.329 12.613-21.607 16.173-35.143.6-2.277 1.214-4.533 1.774-6.81 8.906 3.678 17.24 9.129 17.253 14.757 0 .596-.093 1.193-.293 1.792v.021c.013.64-.427 15.739-42.987 34.392Z" fill="#617673"/><path d="M620.187 456.8c1.026-2.772 3.12-6.421 4.613-8.951 3.907-6.686 11.987-2.849 18.347-2.704 0 0 6.92 24.046-7.374 26.5-2.16.37-7.933 2.296-10 1.263-1.866-.939-3.16-6.055-4.013-7.857-1.627-3.406-2.84-4.81-1.573-8.251Z" fill="#8D9E9B"/><path d="M601.32 460.968c1.387 16.641 10.64 29.456 20.68 28.621 10.026-.833 17.04-15.001 15.653-31.642-1.373-16.639-10.64-29.455-20.666-28.62-10.04.834-17.054 15.001-15.667 31.641Z" fill="#FCF7D6"/><path d="M599.12 461.151c1.173 14.118 9.026 24.992 17.546 24.285 8.507-.709 14.454-12.731 13.28-26.847-1.173-14.12-9.026-24.992-17.533-24.284-8.52.707-14.466 12.73-13.293 26.846Z" fill="#666D6B"/><path d="m74.501 510.424 44.003-.719 25.193-1.416 50.544-2.853 25.019-1.409 50.77-2.862 24.818-1.412 50.977-2.87 24.653-1.391 51.176-2.891 24.47-1.378 51.392-2.891 24.284-1.372 51.6-2.908 24.12-1.357 16.72-.952c.693-.37 1.453-1.086 2.24-2.05v-.018c3.266-4.004 6.813-12.232 6.706-17.858 0-.249-.013-.496-.04-.744-.013-.256-.04-.52-.066-.784-.734-7.904-2.92-17.962-11.027-21.696a14.276 14.276 0 0 0-.827-.353l-5.08.671-41.066 5.418-19.227 2.532-54.577 7.196-19.66 2.59-53.179 7.013-20.143 2.66-51.853 6.84-20.695 2.727-50.58 6.668-21.285 2.813-49.339 6.505-21.886 2.886-48.128 6.338-16.53 2.183-5.957.788-37.54 6.356Z" fill="#FFFBDC"/><path d="M545.853 446.863c3.174 8.374 8.894 17.23 17.147 26.529 3.293 3.705 6.8 7.271 10.4 10.655l24.12-1.356c-6.387-5.315-12.88-11.334-18.613-17.798-5.267-5.93-10.601-13.098-13.827-20.565l-19.227 2.535Z" fill="#1E2223"/><path d="m74.501 510.424 44.003-.719 25.193-1.416 50.544-2.853 25.019-1.409 50.77-2.862 24.818-1.412 50.977-2.87 24.653-1.391 51.176-2.891 24.47-1.378 51.392-2.891 24.284-1.372 51.6-2.908 24.12-1.357 16.72-.952a14.27 14.27 0 0 0 2.24-2.05v-.018c3.96-4.406 6.906-12.032 6.706-17.858 0-.249-.013-.496-.04-.744-.013-.256-.04-.52-.066-.784-.68-7.898-2.16-17.689-11.027-21.696a14.276 14.276 0 0 0-.827-.353l-5.08.671c17 22.162-25.346 25.409-59.186 32.961-53.251 11.891-175.636 17.485-230.307 21.963-8.845.734-17.648 1.488-26.441 2.244a8512.28 8512.28 0 0 1-23.643 2.012c-41.487 3.49-82.693 6.426-124.747 5.797-7.864-.113-15.83-.311-23.824-.608l-5.957.788-37.54 6.356Z" fill="#1E2223"/><path d="M471.624 456.651c3.321 6.309 7.997 12.868 14.031 19.662 3.734 4.204 7.752 8.23 11.857 12.018l24.288-1.371c-6.888-5.637-14.009-12.128-20.236-19.145-3.635-4.096-7.308-8.787-10.289-13.756l-19.651 2.592ZM398.291 466.323c2.766 4.201 6.11 8.505 10.02 12.91 4.181 4.715 8.725 9.196 13.346 13.374l24.466-1.376c-7.396-5.942-15.176-12.914-21.902-20.496a108.372 108.372 0 0 1-5.786-7.071l-20.144 2.659ZM325.74 475.888a123.076 123.076 0 0 0 5.227 6.265c4.638 5.228 9.721 10.174 14.857 14.732l24.652-1.39c-7.905-6.222-16.359-13.674-23.599-21.838-.149-.164-.292-.332-.436-.5l-20.701 2.731ZM253.881 485.365c3.994 4.472 8.3 8.74 12.692 12.727a238.512 238.512 0 0 0 3.451 3.069l24.824-1.401a243.263 243.263 0 0 1-4.636-3.685c-5.031-4.088-10.192-8.635-15.045-13.516l-21.286 2.806ZM182.656 494.759c3.765 3.765 7.685 7.337 11.59 10.676l25.008-1.411c-4.728-3.595-9.769-7.685-14.712-12.152l-21.886 2.887Z" fill="#1E2223"/><path d="M112.037 504.072a211.49 211.49 0 0 0 6.465 5.633l25.195-1.417a245.028 245.028 0 0 1-9.175-7.183l-22.485 2.967Z" fill="#2D6266"/><path d="M270.666 864.067c.363.736.783 1.44 1.211 2.089a20.645 20.645 0 0 0-1.777-1.505c.197-.198.381-.384.566-.584Zm-62.309 26.706c-.988 1.302-1.695 2.58-2.169 3.83h111.109c5.351-8.038 3.272-20.364-11.152-18.717 10.201-7.801 4.984-19.962-3.197-24.23-5.642-2.924-12.698-2.104-17.104 6.493l-.772-.145c-.468-4.761-5.91-7.119-10.307-6.149-1.655-14.084-21.956-26.04-31.667-7.058-.312-.054-.632-.124-.94-.178-.765-7.774-12.321-10.316-17.278-4.978-4.034 4.355-1.792 10.569 1.116 14.962-4.316-4.144-10.688-7.127-16.062-4.681-6.909 3.15-6.876 13.992 1.135 14.711-5.364.23-9.784 2.342-13.005 5.288-9.638 8.815-8.479 25.128 10.293 20.852Z" fill="#FFEEB8"/><path d="M208.357 890.773c-.988 1.302-1.695 2.58-2.169 3.83h111.109c5.351-8.038 3.272-20.364-11.152-18.717 10.201-7.801 4.984-19.962-3.197-24.23.378 8.487-3.703 15.647-13.698 10.911 5.707 9.305-6.889 22.054-13.924 12.212 5.714 10.048-7.018 14.964-15.402 13.664-13.114-2.054-13.274-11.962-11.9-22.852-3.131 8.054-18.288 5.181-20.858-1.92.086 18.992-22.92 14.964-29.102 6.25-9.638 8.815-8.479 25.128 10.293 20.852Z" fill="#E5CF8F"/><path d="M374.419 864.067c.362.736.784 1.44 1.21 2.089a20.36 20.36 0 0 0-1.778-1.505c.198-.198.382-.384.568-.584Zm-62.308 26.706c-.99 1.302-1.696 2.58-2.17 3.83h111.108c5.351-8.038 3.272-20.364-11.152-18.717 10.203-7.801 4.986-19.962-3.196-24.23-5.642-2.924-12.7-2.104-17.104 6.493l-.773-.145c-.468-4.761-5.909-7.119-10.307-6.149-1.654-14.084-21.956-26.04-31.668-7.058-.309-.054-.629-.124-.94-.178-.764-7.774-12.318-10.316-17.277-4.978-4.032 4.355-1.793 10.569 1.116 14.962-4.315-4.144-10.689-7.127-16.061-4.681-6.91 3.15-6.876 13.992 1.137 14.711-5.367.23-9.785 2.342-13.007 5.288-9.638 8.815-8.481 25.128 10.294 20.852Z" fill="#FFEEB8"/><path d="M312.111 890.773c-.99 1.302-1.696 2.58-2.17 3.83h111.108c5.351-8.038 3.272-20.364-11.152-18.717 10.203-7.801 4.986-19.962-3.196-24.23.376 8.487-3.704 15.647-13.698 10.911 5.708 9.305-6.891 22.054-13.924 12.212 5.713 10.048-7.02 14.964-15.403 13.664-13.115-2.054-13.273-11.962-11.899-22.852-3.132 8.054-18.288 5.181-20.858-1.92.085 18.992-22.919 14.964-29.102 6.25-9.638 8.815-8.481 25.128 10.294 20.852Z" fill="#E5CF8F"/><path d="M683.373 846.404a36.057 36.057 0 0 0 2.32 3.992 39.324 39.324 0 0 0-3.4-2.876c.373-.377.733-.735 1.08-1.116ZM539.4 894.603h237.44c3.213-13.724-3.76-28.126-25.694-25.62 19.494-14.904 9.52-38.134-6.106-46.286-10.774-5.585-24.254-4.018-32.667 12.4-.493-.092-.987-.181-1.48-.276-.893-9.094-11.293-13.596-19.693-11.748-3.16-26.901-41.934-49.744-60.494-13.48-.586-.105-1.2-.237-1.786-.341-1.467-14.847-23.534-19.707-33.014-9.507-7.693 8.318-3.413 20.191 2.134 28.579-8.24-7.916-20.414-13.614-30.68-8.943-13.2 6.019-13.134 26.728 2.173 28.103-10.253.441-18.693 4.473-24.84 10.101-12.347 11.291-15.427 29.02-5.293 37.018Z" fill="#FFEEB8"/><path d="M539.4 894.603h237.44c3.213-13.724-3.76-28.126-25.694-25.62 19.494-14.904 9.52-38.134-6.106-46.286.72 16.21-7.067 29.887-26.16 20.842 10.893 17.777-13.16 42.128-26.6 23.328 10.906 19.192-13.414 28.581-29.427 26.102-25.053-3.925-25.36-22.852-22.733-43.656-5.974 15.387-34.934 9.899-39.84-3.665.16 36.279-43.787 28.581-55.587 11.937-12.347 11.291-15.427 29.02-5.293 37.018Z" fill="#E5CF8F"/><path d="M881.573 846.404a38.52 38.52 0 0 0 2.307 3.992 37.457 37.457 0 0 0-3.4-2.876c.387-.377.733-.735 1.093-1.116Zm-143.986 48.199H975.04c3.213-13.724-3.773-28.126-25.707-25.62 19.494-14.904 9.52-38.134-6.106-46.286-10.774-5.585-24.254-4.018-32.667 12.4-.493-.092-.987-.181-1.48-.276-.893-9.094-11.28-13.596-19.68-11.748-3.173-26.901-41.947-49.744-60.493-13.48-.6-.105-1.214-.237-1.8-.341-1.454-14.847-23.534-19.707-33-9.507-7.707 8.318-3.427 20.191 2.133 28.579-8.253-7.916-20.427-13.614-30.693-8.943-13.187 6.019-13.134 26.728 2.173 28.103-10.24.441-18.68 4.473-24.84 10.101-12.347 11.291-15.413 29.02-5.293 37.018Z" fill="#FFEEB8"/><path d="M737.587 894.603H975.04c3.213-13.724-3.773-28.126-25.707-25.62 19.494-14.904 9.52-38.134-6.106-46.286.72 16.21-7.067 29.887-26.16 20.842 10.906 17.777-13.16 42.128-26.6 23.328 10.92 19.192-13.4 28.581-29.427 26.102-25.04-3.925-25.347-22.852-22.733-43.656-5.974 15.387-34.934 9.899-39.84-3.665.173 36.279-43.774 28.581-55.587 11.937-12.347 11.291-15.413 29.02-5.293 37.018Z" fill="#E5CF8F"/><path d="m927.333 786.151-.173-.165.28-.117-.107.282Zm3.493-18.308c.28.345.574.666.867.96-.333-.212-.72-.416-1.093-.592.08-.124.16-.243.226-.368Zm19.894 2.246c4.467-5.217.386-11.001-4.374-12.328-3.266-.902-6.879.31-8.226 5.298-.147.004-.28.008-.427.01-.773-2.438-3.88-3.068-6.067-2.074-2.44-7.187-14.386-11.191-17.373-.176-.16.005-.333.004-.507.01-1.266-3.982-7.599-4.03-9.586-.685-1.627 2.728.226 5.732 2.24 7.707-2.72-1.691-6.387-2.543-8.934-.666-3.266 2.415-2.04 8.087 2.24 7.575-2.786.716-4.866 2.312-6.226 4.212-4.067 5.684-1.64 14.095 7.707 9.772-5.054 10.718 15.999 13.885 14.519 4.147 1.214 5.806 9.707 2.895 12.24-1.423 3.254 3.771 12.24 3.609 11.36-2.213 1.454 6.931 15.627-1.364 8.654-6.209 13.586 4.225 15.413-17.191 2.76-12.957Z" fill="#FFEEB8"/><path d="M947.96 783.046c6.973 4.845-7.2 13.14-8.654 6.209.88 5.822-8.106 5.984-11.36 2.213-2.533 4.318-11.026 7.229-12.24 1.423 1.48 9.738-19.573 6.571-14.519-4.147-9.347 4.323-11.774-4.088-7.707-9.772 4.213 3.873 16.693 3.428 14.547-6.504 2.133 3.432 10.386 3.251 11.119-1.313.494 5.853 1.681 11.022 8.774 10.641 4.533-.252 10.653-4.24 6.546-8.863 4.774 4.371 9.947-3.701 5.934-7.94 5.746 1.37 7.093-2.832 5.946-7.232 4.76 1.327 8.841 7.111 4.374 12.328 12.653-4.234 10.826 17.182-2.76 12.957Z" fill="#E5CF8F"/><path d="m321.617 792.108-.029-.161.209.045-.18.116Zm9.454-9.063c.016.31.054.614.105.902a7.825 7.825 0 0 0-.388-.785l.283-.117Zm10.476 9.369c4.682-1.17 4.697-6.143 2.512-8.834-1.51-1.851-4.066-2.62-6.87-.313l-.245-.164c.549-1.712-.975-3.336-2.636-3.659 1.529-5.105-3.688-12.256-9.871-7.157l-.298-.2c.896-2.796-2.711-5.396-5.216-4.294-2.042.902-2.198 3.379-1.85 5.326-.87-2.072-2.624-4.051-4.842-4.008-2.852.056-4.459 3.801-1.803 5.244-1.885-.722-3.724-.651-5.276-.115-4.641 1.603-6.676 7.404.439 8.729-7.258 4.081 3.518 14.456 6.632 8.276-1.67 3.817 4.381 5.604 7.588 4.159.322 3.479 5.541 7.043 7.401 3.348-1.989 4.56 9.505 5.569 7.484-.038 6.064 7.942 15.823-3.581 6.851-6.3Z" fill="#FFEEB8"/><path d="M334.696 798.714c2.021 5.607-9.473 4.598-7.484.038-1.86 3.695-7.079.131-7.401-3.348-3.207 1.445-9.258-.342-7.588-4.159-3.114 6.18-13.89-4.195-6.632-8.276-7.115-1.325-5.08-7.126-.439-8.729.832 3.927 8.168 8.748 10.972 2.184-.173 2.833 4.627 6.083 6.908 3.771-2.097 3.553-3.523 6.995.695 9.657 2.698 1.698 7.825 1.903 7.352-2.416.958 4.445 7.206 1.926 6.626-2.136 2.742 3.124 5.218 1.262 6.354-1.72 2.185 2.691 2.17 7.664-2.512 8.834 8.972 2.719-.787 14.242-6.851 6.3Z" fill="#E5CF8F"/><path d="m891.893 742.581-.186-.028.133-.204.053.232Zm-6.146-13.282c.333.094.666.164.986.216a8.48 8.48 0 0 0-.96.125l-.026-.341Zm13.72-7.662c.466-5.376-4.787-7.198-8.427-5.869-2.507.924-4.253 3.345-2.84 7.147l-.253.196c-1.614-1.2-3.88-.18-4.827 1.457-4.84-3.473-14.307-.56-11.16 7.828l-.32.241c-2.627-1.964-6.693.902-6.44 3.951.213 2.484 2.773 3.549 4.96 3.891-2.507.165-5.24 1.296-6 3.657-.973 3.035 2.4 6.095 4.893 3.812-1.453 1.731-2.04 3.699-2.04 5.533 0 5.487 5.4 9.744 9.387 2.71 1.68 9.152 16.573 1.54 11.16-3.996 3.44 3.15 7.52-2.592 7.16-6.504 3.8.921 9.467-3.296 6.227-6.604 4.106 3.757 9.36-8.019 2.693-7.923 10.6-3.517 1.96-18.019-4.173-9.527Z" fill="#FFEEB8"/><path d="M903.64 731.164c6.667-.096 1.413 11.68-2.693 7.923 3.24 3.308-2.427 7.525-6.227 6.604.36 3.912-3.72 9.654-7.16 6.504 5.413 5.536-9.48 13.148-11.16 3.996-3.987 7.034-9.387 2.777-9.387-2.71 4.454.548 12.214-5.448 6.294-10.8 2.933 1.214 8.12-2.676 6.506-5.926 2.987 3.508 6.107 6.264 10.467 2.778 2.773-2.234 4.853-7.577.12-8.648 5.04.604 4.653-6.913.147-7.777 4.293-1.761 3.226-5.055.493-7.34 3.64-1.329 8.893.493 8.427 5.869 6.133-8.492 14.773 6.01 4.173 9.527Z" fill="#E5CF8F"/></g><defs><clipPath id="clip0_135_301"><path d="M0 0h1117v1000H0z"/></clipPath></defs></svg>