<svg aria-hidden="true" style="width:0;height:0;position:absolute;overflow:hidden" xmlns="http://www.w3.org/2000/svg"><defs><symbol id="icon-brightness" viewBox="0 0 32 32"><path d="M16 22.667c-3.68 0-6.667-2.987-6.667-6.667S12.32 9.333 16 9.333 22.667 12.32 22.667 16 19.68 22.667 16 22.667zM16 12c-2.2 0-4 1.8-4 4s1.8 4 4 4 4-1.8 4-4-1.8-4-4-4zm1.333-6.667v-4C17.333.6 16.733 0 16 0s-1.333.6-1.333 1.333v4c0 .733.6 1.333 1.333 1.333s1.333-.6 1.333-1.333zm0 25.334v-4c0-.733-.6-1.333-1.333-1.333s-1.333.6-1.333 1.333v4c0 .733.6 1.333 1.333 1.333s1.333-.6 1.333-1.333zM6.667 16c0-.733-.6-1.333-1.333-1.333h-4c-.733 0-1.333.6-1.333 1.333s.6 1.333 1.333 1.333h4c.733 0 1.333-.6 1.333-1.333zM32 16c0-.733-.6-1.333-1.333-1.333h-4c-.733 0-1.333.6-1.333 1.333s.6 1.333 1.333 1.333h4c.733 0 1.333-.6 1.333-1.333zM8.947 8.947c.52-.52.52-1.36 0-1.88L6.28 4.4c-.52-.52-1.36-.52-1.88 0s-.52 1.36 0 1.88l2.667 2.667c.267.267.6.387.947.387s.68-.133.947-.387zm18.666 18.666c.52-.52.52-1.36 0-1.88l-2.667-2.667c-.52-.52-1.36-.52-1.88 0s-.52 1.36 0 1.88l2.667 2.667c.267.267.6.387.947.387s.68-.133.947-.387zm-21.333 0 2.667-2.667c.52-.52.52-1.36 0-1.88s-1.36-.52-1.88 0L4.4 25.733A1.328 1.328 0 0 0 5.347 28c.347 0 .68-.133.947-.387zM24.947 8.947l2.667-2.667c.52-.52.52-1.36 0-1.88s-1.36-.52-1.88 0l-2.667 2.667a1.328 1.328 0 0 0 .947 2.267c.347 0 .68-.133.947-.387z"/></symbol><symbol id="icon-moon" viewBox="0 0 32 32"><path d="M18.667 32c-8.833-.01-15.99-7.167-16-15.999V16C2.463 4.059 16.042-3.98 26.388 2.012l2.071 1.149-2.057 1.173c-8.933 4.917-8.28 18.493 1.067 22.541l2.161.975-1.956 1.341a15.758 15.758 0 0 1-9.006 2.808h-.001zm0-29.333C11.307 2.675 5.342 8.64 5.334 16v.001C5.127 25.49 15.685 32.268 24.207 28.11c-4.134-2.803-6.815-7.479-6.815-12.781 0-4.79 2.188-9.07 5.62-11.893l.027-.021a12.742 12.742 0 0 0-4.345-.748h-.028.001z"/></symbol><symbol id="icon-search" viewBox="0 0 30 30"><path d="M13 3C7.489 3 3 7.489 3 13s4.489 10 10 10a9.947 9.947 0 0 0 6.322-2.264l5.971 5.971a1 1 0 1 0 1.414-1.414l-5.97-5.97A9.947 9.947 0 0 0 23 13c0-5.511-4.489-10-10-10zm0 2c4.43 0 8 3.57 8 8s-3.57 8-8 8-8-3.57-8-8 3.57-8 8-8z"/></symbol><symbol id="icon-cross-small" viewBox="0 0 32 32"><path d="M18.828 16 24 10.823a2 2 0 0 0-2.825-2.821L21.177 8 16 13.172l-5.187-5.188a2.001 2.001 0 0 0-2.83 2.83l5.188 5.187-5.172 5.176a2 2 0 1 0 2.822 2.826l.002-.002 5.176-5.172 5.171 5.172a2.001 2.001 0 0 0 2.83-2.83z"/></symbol></defs></svg>