<svg aria-hidden="true" style="width: 0; height: 0; position: absolute; overflow: hidden" version="1.1" xmlns="http://www.w3.org/2000/svg" xmlns:xlink="http://www.w3.org/1999/xlink">
<defs>
<symbol id="icon-brightness" viewBox="0 0 32 32">
<path d="M16 22.667c-3.68 0-6.667-2.987-6.667-6.667s2.987-6.667 6.667-6.667 6.667 2.987 6.667 6.667-2.987 6.667-6.667 6.667zM16 12c-2.2 0-4 1.8-4 4s1.8 4 4 4 4-1.8 4-4-1.8-4-4-4zM17.333 5.333v-4c0-0.733-0.6-1.333-1.333-1.333s-1.333 0.6-1.333 1.333v4c0 0.733 0.6 1.333 1.333 1.333s1.333-0.6 1.333-1.333zM17.333 30.667v-4c0-0.733-0.6-1.333-1.333-1.333s-1.333 0.6-1.333 1.333v4c0 0.733 0.6 1.333 1.333 1.333s1.333-0.6 1.333-1.333zM6.667 16c0-0.733-0.6-1.333-1.333-1.333h-4c-0.733 0-1.333 0.6-1.333 1.333s0.6 1.333 1.333 1.333h4c0.733 0 1.333-0.6 1.333-1.333zM32 16c0-0.733-0.6-1.333-1.333-1.333h-4c-0.733 0-1.333 0.6-1.333 1.333s0.6 1.333 1.333 1.333h4c0.733 0 1.333-0.6 1.333-1.333zM8.947 8.947c0.52-0.52 0.52-1.36 0-1.88l-2.667-2.667c-0.52-0.52-1.36-0.52-1.88 0s-0.52 1.36 0 1.88l2.667 2.667c0.267 0.267 0.6 0.387 0.947 0.387s0.68-0.133 0.947-0.387zM27.613 27.613c0.52-0.52 0.52-1.36 0-1.88l-2.667-2.667c-0.52-0.52-1.36-0.52-1.88 0s-0.52 1.36 0 1.88l2.667 2.667c0.267 0.267 0.6 0.387 0.947 0.387s0.68-0.133 0.947-0.387zM6.28 27.613l2.667-2.667c0.52-0.52 0.52-1.36 0-1.88s-1.36-0.52-1.88 0l-2.667 2.667c-0.52 0.52-0.52 1.36 0 1.88 0.267 0.267 0.6 0.387 0.947 0.387s0.68-0.133 0.947-0.387zM24.947 8.947l2.667-2.667c0.52-0.52 0.52-1.36 0-1.88s-1.36-0.52-1.88 0l-2.667 2.667c-0.52 0.52-0.52 1.36 0 1.88 0.267 0.267 0.6 0.387 0.947 0.387s0.68-0.133 0.947-0.387z"></path>
</symbol>
<symbol id="icon-moon" viewBox="0 0 32 32">
<path d="M18.667 32c-8.833-0.010-15.99-7.167-16-15.999v-0.001c-0.204-11.941 13.375-19.98 23.721-13.988l2.071 1.149-2.057 1.173c-8.933 4.917-8.28 18.493 1.067 22.541l2.161 0.975-1.956 1.341c-2.517 1.755-5.639 2.805-9.006 2.808h-0.001zM18.667 2.667c-7.36 0.008-13.325 5.973-13.333 13.333v0.001c-0.207 9.489 10.351 16.267 18.873 12.109-4.134-2.803-6.815-7.479-6.815-12.781 0-4.79 2.188-9.070 5.62-11.893l0.027-0.021c-1.294-0.474-2.787-0.748-4.345-0.748-0.009 0-0.019 0-0.028 0h0.001z"></path>
</symbol>
<symbol id="icon-cross-small" viewBox="0 0 32 32">
<path d="M18.828 16l5.172-5.177c0.309-0.35 0.498-0.814 0.498-1.321 0-1.105-0.895-2-2-2-0.507 0-0.971 0.189-1.323 0.5l0.002-0.002-5.177 5.172-5.187-5.188c-0.362-0.362-0.862-0.586-1.415-0.586-1.105 0-2.001 0.896-2.001 2.001 0 0.552 0.224 1.053 0.586 1.415v0l5.188 5.187-5.172 5.176c-0.41 0.368-0.667 0.899-0.667 1.491 0 1.105 0.895 2 2 2 0.592 0 1.123-0.257 1.489-0.665l0.002-0.002 5.176-5.172 5.171 5.172c0.362 0.362 0.862 0.586 1.415 0.586 1.105 0 2.001-0.896 2.001-2.001 0-0.552-0.224-1.053-0.586-1.415v0z"></path>
</symbol>
</defs>
</svg>
